<svg width="75" height="98" viewBox="0 0 75 98" fill="none" xmlns="http://www.w3.org/2000/svg">
<path d="M9.8747 8.78156L9.22306 10.8464L10.2364 10.857C10.5444 10.8602 10.7721 10.9321 10.9194 11.0727C11.0767 11.2035 11.1538 11.3931 11.1508 11.6415C11.1478 11.8799 11.066 12.0678 10.9053 12.2053C10.7447 12.3328 10.5154 12.395 10.2174 12.3919L8.74202 12.3766L8.05947 14.5306C7.97666 14.798 7.86013 14.9806 7.70987 15.0784C7.55973 15.1662 7.33564 15.2086 7.03759 15.2055C6.78922 15.203 6.59623 15.1413 6.45862 15.0207C6.32113 14.8901 6.25356 14.7304 6.25591 14.5416C6.2564 14.5019 6.2672 14.4325 6.2883 14.3333L6.90902 12.3575L4.19678 12.3294L3.51423 14.4834C3.43141 14.7508 3.31488 14.9334 3.16462 15.0312C3.01449 15.1191 2.79039 15.1614 2.49235 15.1583C2.24397 15.1558 2.05098 15.0941 1.91337 14.9735C1.77589 14.8429 1.70832 14.6832 1.71066 14.4944C1.71115 14.4547 1.72195 14.3853 1.74306 14.2861L2.36378 12.3103L1.64846 12.3029C1.35041 12.2998 1.11283 12.2278 0.935732 12.0869C0.768566 11.946 0.686402 11.7613 0.68924 11.5328C0.692202 11.2944 0.778994 11.1065 0.949616 10.9692C1.12024 10.8319 1.35954 10.7648 1.66752 10.768L2.84482 10.7802L3.49645 8.71533L2.5427 8.70542C2.24465 8.70233 2.00707 8.63031 1.82997 8.48937C1.6628 8.34853 1.58064 8.16386 1.58348 7.93536C1.58644 7.69692 1.67323 7.50904 1.84385 7.37171C2.01448 7.23438 2.25378 7.16731 2.56176 7.17051L3.9924 7.18536L4.62876 5.15012C4.70114 4.92234 4.81749 4.75464 4.97781 4.64701C5.14818 4.52954 5.3824 4.47236 5.68044 4.47545C5.91888 4.47793 6.10697 4.53453 6.2447 4.64526C6.38243 4.75598 6.45013 4.90573 6.44778 5.09449C6.44655 5.19383 6.43563 5.27321 6.41502 5.33261L5.8254 7.2044L8.53764 7.23256L9.174 5.19732C9.24639 4.96954 9.36274 4.80184 9.52305 4.6942C9.69343 4.57674 9.92764 4.51956 10.2257 4.52265C10.4641 4.52513 10.6522 4.58173 10.7899 4.69245C10.9277 4.80318 10.9954 4.95292 10.993 5.14168C10.9918 5.24103 10.9809 5.32041 10.9603 5.37981L10.3706 7.25159L11.1307 7.25949C11.4387 7.26268 11.6663 7.3346 11.8136 7.47523C11.9709 7.60603 12.0481 7.79562 12.045 8.04399C12.042 8.28242 11.9602 8.47036 11.7995 8.60779C11.639 8.73529 11.4096 8.7975 11.1116 8.7944L9.8747 8.78156ZM8.0417 8.76252L5.32945 8.73436L4.67782 10.7993L7.39006 10.8274L8.0417 8.76252ZM17.9738 15.334C16.9704 15.3236 16.1087 15.101 15.3888 14.6663C14.6688 14.2316 14.1201 13.6098 13.7426 12.8011C13.3751 11.9925 13.1982 11.0318 13.2121 9.91911C13.2259 8.80642 13.4266 7.84968 13.8141 7.04888C14.2115 6.2482 14.7756 5.63802 15.5061 5.21836C16.2367 4.79869 17.1037 4.59407 18.1071 4.60449C19.1105 4.61491 19.9722 4.83748 20.6922 5.27221C21.4121 5.70693 21.9559 6.32861 22.3234 7.13724C22.7009 7.94598 22.8827 8.90669 22.8689 10.0194C22.855 11.1321 22.6494 12.0888 22.2519 12.8895C21.8644 13.6902 21.3054 14.3005 20.5748 14.7201C19.8442 15.1398 18.9773 15.3444 17.9738 15.334ZM17.9933 13.7693C18.8874 13.7786 19.587 13.453 20.092 12.7925C20.6071 12.1222 20.872 11.191 20.8868 9.9988C20.9016 8.80664 20.6598 7.87511 20.1614 7.20422C19.6731 6.5235 18.9818 6.1785 18.0877 6.16921C17.1935 6.15993 16.4889 6.49044 15.9738 7.16074C15.4688 7.8212 15.2089 8.74752 15.1941 9.93969C15.1793 11.1319 15.4161 12.0683 15.9044 12.749C16.4028 13.4199 17.0991 13.76 17.9933 13.7693ZM30.336 15.4624C30.0479 15.4594 29.8155 15.3675 29.6389 15.1869C29.4623 15.0062 29.3758 14.7718 29.3794 14.4837L29.3955 13.1872L24.6267 13.1377C24.3485 13.1348 24.1258 13.0679 23.9585 12.937C23.8011 12.8062 23.7237 12.6414 23.7261 12.4427C23.7286 12.244 23.8105 12.0511 23.9718 11.864L29.7201 5.05297C29.8008 4.95445 29.916 4.87615 30.0658 4.81809C30.2255 4.76014 30.3798 4.73193 30.5289 4.73348C30.7772 4.73606 30.9899 4.81279 31.1669 4.96366C31.3539 5.10471 31.446 5.28948 31.4432 5.51798L31.3667 11.6725L32.097 11.6801C32.3851 11.6831 32.6078 11.75 32.7652 11.8808C32.9325 12.0117 33.0145 12.2063 33.0113 12.4646C33.0082 12.713 32.9214 12.9009 32.7509 13.0283C32.5804 13.1557 32.3561 13.2179 32.0779 13.215L31.3477 13.2075L31.3316 14.5039C31.3281 14.7821 31.2308 15.0146 31.0397 15.2014C30.8587 15.3784 30.6241 15.4654 30.336 15.4624ZM29.5485 11.6686L29.5977 7.70461L26.2401 11.6342L29.5485 11.6686ZM38.6975 15.5492C37.6941 15.5388 36.8324 15.3162 36.1125 14.8815C35.3925 14.4468 34.8438 13.825 34.4663 13.0163C34.0988 12.2077 33.922 11.247 33.9358 10.1343C33.9496 9.02161 34.1503 8.06487 34.5378 7.26408C34.9353 6.46339 35.4993 5.85321 36.2298 5.43355C36.9604 5.01389 37.8274 4.80927 38.8308 4.81968C39.8342 4.8301 40.6959 5.05268 41.4159 5.4874C42.1358 5.92213 42.6796 6.5438 43.0471 7.35244C43.4246 8.16117 43.6064 9.12189 43.5926 10.2346C43.5787 11.3473 43.3731 12.304 42.9756 13.1046C42.5881 13.9054 42.0291 14.5157 41.2985 14.9353C40.568 15.355 39.701 15.5596 38.6975 15.5492ZM38.717 13.9845C39.6111 13.9938 40.3107 13.6682 40.8157 13.0077C41.3308 12.3374 41.5957 11.4062 41.6105 10.214C41.6253 9.02183 41.3835 8.0903 40.8851 7.41941C40.3968 6.73869 39.7055 6.39369 38.8114 6.38441C37.9172 6.37512 37.2126 6.70563 36.6975 7.37593C36.1925 8.0364 35.9326 8.96272 35.9178 10.1549C35.903 11.3471 36.1398 12.2835 36.6281 12.9642C37.1265 13.6351 37.8228 13.9752 38.717 13.9845ZM49.182 15.6581C48.3077 15.649 47.5049 15.4817 46.7737 15.1561C46.0425 14.8306 45.4421 14.3723 44.9725 13.7812C44.8158 13.5907 44.7389 13.3863 44.7416 13.1677C44.7452 12.8796 44.8822 12.6475 45.1527 12.4715C45.3131 12.3539 45.4827 12.2961 45.6616 12.2979C45.9398 12.3008 46.1863 12.4524 46.4011 12.7527C46.7237 13.1833 47.122 13.5153 47.596 13.7488C48.0801 13.9724 48.6153 14.0873 49.2014 14.0933C49.9664 14.1013 50.5592 13.9733 50.9798 13.7094C51.4004 13.4455 51.6137 13.0701 51.6198 12.5833C51.6273 11.9773 51.4987 11.5338 51.2339 11.2529C50.9691 10.9719 50.5486 10.8284 49.9724 10.8225L48.348 10.8056C48.0499 10.8025 47.8124 10.7305 47.6353 10.5895C47.4681 10.4487 47.3859 10.264 47.3888 10.0355C47.3919 9.78716 47.4787 9.59928 47.6492 9.47188C47.8198 9.33455 48.0591 9.26748 48.3671 9.27068L49.9914 9.28755C50.4286 9.29209 50.7729 9.17146 51.0243 8.92567C51.2858 8.67005 51.4194 8.31374 51.4251 7.85675C51.4306 7.41962 51.2509 7.0849 50.8861 6.85258C50.5214 6.62026 49.9913 6.5005 49.2958 6.49327C48.2825 6.48275 47.4684 6.82206 46.8538 7.5112C46.5919 7.79662 46.3368 7.93805 46.0884 7.93547C45.9195 7.93371 45.7563 7.8724 45.5988 7.75154C45.3328 7.56992 45.2016 7.33507 45.2052 7.04696C45.208 6.81846 45.2999 6.61573 45.481 6.43876C45.964 5.94697 46.5351 5.57037 47.1941 5.30894C47.8532 5.04751 48.5602 4.92071 49.3153 4.92855C50.1299 4.93701 50.8437 5.06863 51.4566 5.32339C52.0795 5.56832 52.5621 5.91613 52.9043 6.3668C53.2466 6.80754 53.4142 7.31105 53.4071 7.87733C53.4017 8.31446 53.2725 8.71552 53.0196 9.08053C52.7766 9.44564 52.42 9.75492 51.9499 10.0084L51.9495 10.0382C52.5223 10.3223 52.9402 10.6744 53.2032 11.0945C53.4762 11.5146 53.6091 12.0178 53.6018 12.6039C53.5896 13.5875 53.1976 14.3485 52.4258 14.8869C51.6542 15.4155 50.5729 15.6725 49.182 15.6581ZM59.5813 15.7661C58.5779 15.7556 57.7162 15.5331 56.9963 15.0983C56.2763 14.6636 55.7276 14.0419 55.3501 13.2331C54.9826 12.4245 54.8058 11.4638 54.8196 10.3512C54.8334 9.23847 55.0341 8.28173 55.4216 7.48093C55.8191 6.68024 56.3831 6.07007 57.1136 5.6504C57.8442 5.23074 58.7112 5.02612 59.7146 5.03654C60.718 5.04696 61.5797 5.26953 62.2997 5.70426C63.0196 6.13898 63.5634 6.76066 63.9309 7.56929C64.3084 8.37803 64.4902 9.33874 64.4764 10.4514C64.4625 11.5641 64.2569 12.5208 63.8594 13.3215C63.4719 14.1223 62.9129 14.7325 62.1823 15.1522C61.4518 15.5718 60.5848 15.7765 59.5813 15.7661ZM59.6008 14.2013C60.4949 14.2106 61.1945 13.885 61.6995 13.2246C62.2146 12.5543 62.4795 11.623 62.4943 10.4309C62.5091 9.23868 62.2673 8.30716 61.7689 7.63627C61.2806 6.95555 60.5893 6.61055 59.6952 6.60126C58.801 6.59198 58.0964 6.92248 57.5813 7.59278C57.0763 8.25325 56.8164 9.17957 56.8016 10.3717C56.7868 11.5639 57.0236 12.5004 57.5119 13.1811C58.0103 13.852 58.7066 14.192 59.6008 14.2013ZM67.2062 15.7111C66.9202 15.5392 66.7789 15.3092 66.7825 15.0211C66.7846 14.8522 66.8466 14.6641 66.9684 14.4567L71.5641 6.84374L66.3482 6.78958C66.07 6.78669 65.8423 6.71974 65.6651 6.58873C65.4978 6.45783 65.4157 6.26819 65.4188 6.01982C65.422 5.76152 65.5089 5.56867 65.6794 5.44127C65.8499 5.31387 66.0792 5.25167 66.3673 5.25466L72.7902 5.32136C73.0982 5.32455 73.3457 5.40164 73.5326 5.55262C73.7195 5.70361 73.8113 5.91322 73.8079 6.18145C73.8051 6.40995 73.7275 6.65755 73.5752 6.92424L68.5815 15.3826C68.4902 15.5307 68.3695 15.6487 68.2194 15.7365C68.0692 15.8244 67.9047 15.8674 67.7259 15.8655C67.5471 15.8637 67.3738 15.8122 67.2062 15.7111Z" fill="#FCFEFF"/>
<path d="M49.1652 32.0064C49.1652 31.5729 49.2961 31.2161 49.5581 30.9361C49.82 30.6561 50.2129 30.5161 50.7368 30.5161H53.0671C54.3407 30.5161 55.2755 30.7735 55.8716 31.2884C56.4768 31.7942 56.7794 32.5393 56.7794 33.5239C56.7794 34.4542 56.4587 35.1587 55.8174 35.6374C55.1761 36.1161 54.2187 36.3555 52.9452 36.3555L55.8852 39.5394C55.9845 39.6387 56.0342 39.7381 56.0342 39.8374C56.0342 39.9187 55.9981 39.991 55.9258 40.0542C55.8626 40.1084 55.7948 40.1355 55.7226 40.1355C55.6142 40.1355 55.4923 40.0632 55.3568 39.9187L52.0645 36.3555H49.8832V39.7019C49.8832 39.991 49.7613 40.1355 49.5174 40.1355C49.2826 40.1355 49.1652 39.991 49.1652 39.7019V32.0064ZM53.1077 35.7187C53.9568 35.7187 54.6568 35.5561 55.2078 35.231C55.7678 34.9058 56.0478 34.3368 56.0478 33.5239C56.0478 32.6568 55.7994 32.0471 55.3026 31.6948C54.8148 31.3335 54.0923 31.1529 53.1348 31.1529H50.6555C50.4206 31.1529 50.231 31.2297 50.0865 31.3832C49.951 31.5277 49.8832 31.7219 49.8832 31.9658V35.7187H53.1077ZM59.0282 35.1497C58.8385 35.1497 58.6804 35.0864 58.554 34.96C58.4366 34.8335 58.3779 34.6755 58.3779 34.4858C58.3779 34.2961 58.4366 34.1335 58.554 33.9981C58.6804 33.8626 58.8385 33.7948 59.0282 33.7948C59.2088 33.7948 59.3669 33.8626 59.5024 33.9981C59.6469 34.1335 59.7192 34.2961 59.7192 34.4858C59.7192 34.6664 59.6469 34.8245 59.5024 34.96C59.3669 35.0864 59.2088 35.1497 59.0282 35.1497ZM59.0282 39.8374C58.8385 39.8374 58.6759 39.7742 58.5404 39.6477C58.414 39.5123 58.3508 39.3497 58.3508 39.16C58.3508 38.9794 58.414 38.8213 58.5404 38.6858C58.6759 38.5503 58.8385 38.4826 59.0282 38.4826C59.2088 38.4826 59.3669 38.5503 59.5024 38.6858C59.6469 38.8213 59.7192 38.9794 59.7192 39.16C59.7192 39.3497 59.6514 39.5123 59.5159 39.6477C59.3804 39.7742 59.2179 39.8374 59.0282 39.8374ZM66.5467 40.1355C66.3119 40.1355 66.1944 39.991 66.1944 39.7019V37.6968H61.439C61.3306 37.6968 61.2402 37.6697 61.168 37.6155C61.1048 37.5523 61.0732 37.48 61.0732 37.3987C61.0732 37.3264 61.1048 37.2452 61.168 37.1548L66.2893 30.5432C66.3796 30.4348 66.488 30.3806 66.6145 30.3806C66.6957 30.3806 66.7635 30.4122 66.8177 30.4755C66.8809 30.5297 66.9125 30.6064 66.9125 30.7058V37.06H68.0099C68.2809 37.06 68.4164 37.1684 68.4164 37.3852C68.4164 37.5929 68.2809 37.6968 68.0099 37.6968H66.9125V39.7019C66.9125 39.991 66.7906 40.1355 66.5467 40.1355ZM66.1944 37.06V31.749L62.0757 37.06H66.1944ZM53.4736 58.1355C52.5432 58.1355 51.7258 57.9368 51.0213 57.5394C50.3258 57.1329 49.7839 56.5639 49.3955 55.8323C49.0161 55.0916 48.8265 54.2381 48.8265 53.2716C48.8265 52.3052 49.0206 51.4516 49.409 50.711C49.7974 49.9703 50.3439 49.3968 51.0484 48.9903C51.7529 48.5839 52.5658 48.3806 53.4871 48.3806C54.2458 48.3806 54.9413 48.5116 55.5736 48.7735C56.2058 49.0264 56.7071 49.3787 57.0774 49.8303C57.1407 49.9026 57.1723 49.9839 57.1723 50.0742C57.1723 50.1826 57.1316 50.2639 57.0503 50.3181C56.9961 50.3632 56.9194 50.3858 56.82 50.3858C56.6845 50.3858 56.5852 50.3406 56.5219 50.2503C56.2419 49.871 55.831 49.5774 55.289 49.3697C54.7561 49.1529 54.1555 49.0445 53.4871 49.0445C52.6832 49.0445 51.9832 49.2161 51.3871 49.5593C50.8 49.8935 50.3484 50.3813 50.0323 51.0226C49.7161 51.6548 49.5581 52.4045 49.5581 53.2716C49.5581 54.1387 49.7116 54.8884 50.0187 55.5206C50.3348 56.1529 50.7865 56.6361 51.3736 56.9703C51.9697 57.3045 52.6697 57.4716 53.4736 57.4716C54.1058 57.4716 54.6703 57.3677 55.1671 57.16C55.6729 56.9432 56.0703 56.6452 56.3594 56.2658C56.6484 55.8864 56.7929 55.4619 56.7929 54.9923V54.4774C56.7929 54.1974 56.7387 54.0032 56.6303 53.8948C56.5219 53.7774 56.3323 53.7187 56.0613 53.7187H53.8936C53.6226 53.7187 53.4871 53.6148 53.4871 53.4071C53.4871 53.2897 53.5187 53.2084 53.5819 53.1632C53.6452 53.109 53.749 53.0819 53.8936 53.0819H55.98C56.4949 53.0819 56.8787 53.1948 57.1316 53.4206C57.3845 53.6464 57.511 53.9942 57.511 54.4639V54.9787C57.511 55.5568 57.3303 56.0897 56.969 56.5774C56.6168 57.0561 56.129 57.4355 55.5058 57.7155C54.8916 57.9955 54.2142 58.1355 53.4736 58.1355ZM59.7559 53.1497C59.5662 53.1497 59.4081 53.0864 59.2817 52.96C59.1643 52.8335 59.1056 52.6755 59.1056 52.4858C59.1056 52.2961 59.1643 52.1335 59.2817 51.9981C59.4081 51.8626 59.5662 51.7948 59.7559 51.7948C59.9365 51.7948 60.0946 51.8626 60.2301 51.9981C60.3746 52.1335 60.4469 52.2961 60.4469 52.4858C60.4469 52.6664 60.3746 52.8245 60.2301 52.96C60.0946 53.0864 59.9365 53.1497 59.7559 53.1497ZM59.7559 57.8374C59.5662 57.8374 59.4036 57.7742 59.2681 57.6477C59.1417 57.5123 59.0785 57.3497 59.0785 57.16C59.0785 56.9794 59.1417 56.8213 59.2681 56.6858C59.4036 56.5503 59.5662 56.4826 59.7559 56.4826C59.9365 56.4826 60.0946 56.5503 60.2301 56.6858C60.3746 56.8213 60.4469 56.9794 60.4469 57.16C60.4469 57.3497 60.3791 57.5123 60.2436 57.6477C60.1081 57.7742 59.9456 57.8374 59.7559 57.8374ZM65.5131 58.1355C64.8267 58.1355 64.1763 58.0045 63.5621 57.7426C62.9479 57.4806 62.4376 57.1013 62.0312 56.6045C61.9679 56.5232 61.9363 56.4374 61.9363 56.3471C61.9363 56.2477 61.977 56.171 62.0583 56.1168C62.1305 56.0716 62.2073 56.049 62.2886 56.049C62.4241 56.049 62.5234 56.0942 62.5867 56.1845C62.8938 56.6 63.3092 56.9206 63.8331 57.1465C64.357 57.3632 64.917 57.4716 65.5131 57.4716C66.3983 57.4716 67.0938 57.2955 67.5996 56.9432C68.1054 56.5819 68.3583 56.0761 68.3583 55.4258C68.3583 54.7574 68.1776 54.2471 67.8163 53.8948C67.4551 53.5335 66.9312 53.3529 66.2447 53.3529H64.7138C64.4428 53.3529 64.3073 53.249 64.3073 53.0413C64.3073 52.8245 64.4428 52.7161 64.7138 52.7161H66.2447C66.7957 52.7161 67.2473 52.5626 67.5996 52.2555C67.9518 51.9393 68.128 51.5284 68.128 51.0226C68.128 50.3813 67.9112 49.8935 67.4776 49.5593C67.0441 49.2161 66.4118 49.0445 65.5809 49.0445C65.0299 49.0445 64.515 49.1393 64.0363 49.329C63.5667 49.5187 63.1602 49.8077 62.817 50.1961C62.7357 50.2864 62.6363 50.3316 62.5189 50.3316C62.4376 50.3316 62.3609 50.309 62.2886 50.2639C62.2073 50.2097 62.1667 50.1284 62.1667 50.02C62.1667 49.9206 62.1983 49.8393 62.2615 49.7761C62.7041 49.3064 63.2054 48.9587 63.7654 48.7329C64.3344 48.4981 64.9396 48.3806 65.5809 48.3806C66.6557 48.3806 67.4686 48.6245 68.0196 49.1122C68.5705 49.591 68.846 50.2277 68.846 51.0226C68.846 51.42 68.7241 51.7948 68.4802 52.1471C68.2363 52.4903 67.8796 52.7748 67.4099 53.0006V53.0142C68.5209 53.4026 69.0763 54.2064 69.0763 55.4258C69.0763 55.9768 68.9183 56.46 68.6022 56.8755C68.2951 57.2819 67.8705 57.5935 67.3286 57.8103C66.7957 58.0271 66.1905 58.1355 65.5131 58.1355ZM50.7368 76C50.24 76 49.8516 75.869 49.5716 75.6071C49.3006 75.3452 49.1652 74.9794 49.1652 74.5097V68.0064C49.1652 67.5368 49.3006 67.171 49.5716 66.909C49.8516 66.6471 50.24 66.5161 50.7368 66.5161H53.9884C54.8645 66.5161 55.5374 66.7374 56.0071 67.18C56.4858 67.6226 56.7252 68.2458 56.7252 69.0497C56.7252 69.5013 56.6078 69.8987 56.3729 70.2419C56.1381 70.5761 55.7948 70.8381 55.3432 71.0277V71.0548C55.8219 71.2264 56.1968 71.511 56.4678 71.9084C56.7478 72.2968 56.8878 72.7529 56.8878 73.2768C56.8878 74.1258 56.6439 74.7942 56.1561 75.2819C55.6684 75.7606 55 76 54.151 76H50.7368ZM54.151 70.7432C54.7019 70.7432 55.1445 70.5897 55.4787 70.2826C55.8219 69.9664 55.9936 69.5555 55.9936 69.0497C55.9936 68.4264 55.8219 67.9568 55.4787 67.6406C55.1445 67.3155 54.6478 67.1529 53.9884 67.1529H50.6555C50.4297 67.1529 50.2445 67.2297 50.1 67.3832C49.9555 67.5368 49.8832 67.731 49.8832 67.9658V70.7432H54.151ZM54.151 75.3632C54.8103 75.3632 55.3071 75.1871 55.6413 74.8348C55.9845 74.4735 56.1561 73.9542 56.1561 73.2768C56.1561 72.6987 55.971 72.2381 55.6007 71.8948C55.2394 71.5516 54.7471 71.38 54.1239 71.38H49.8832V74.5503C49.8832 74.7852 49.9555 74.9794 50.1 75.1329C50.2445 75.2865 50.4297 75.3632 50.6555 75.3632H54.151ZM59.134 71.1497C58.9444 71.1497 58.7863 71.0864 58.6598 70.96C58.5424 70.8335 58.4837 70.6755 58.4837 70.4858C58.4837 70.2961 58.5424 70.1335 58.6598 69.9981C58.7863 69.8626 58.9444 69.7948 59.134 69.7948C59.3147 69.7948 59.4727 69.8626 59.6082 69.9981C59.7527 70.1335 59.825 70.2961 59.825 70.4858C59.825 70.6664 59.7527 70.8245 59.6082 70.96C59.4727 71.0864 59.3147 71.1497 59.134 71.1497ZM59.134 75.8374C58.9444 75.8374 58.7818 75.7742 58.6463 75.6477C58.5198 75.5123 58.4566 75.3497 58.4566 75.16C58.4566 74.9794 58.5198 74.8213 58.6463 74.6858C58.7818 74.5503 58.9444 74.4826 59.134 74.4826C59.3147 74.4826 59.4727 74.5503 59.6082 74.6858C59.7527 74.8213 59.825 74.9794 59.825 75.16C59.825 75.3497 59.7573 75.5123 59.6218 75.6477C59.4863 75.7742 59.3237 75.8374 59.134 75.8374ZM62.6422 76.0813C62.5338 76.0181 62.4796 75.9277 62.4796 75.8103C62.4796 75.72 62.5067 75.6297 62.5609 75.5394L67.0048 67.1529H61.5855C61.3145 67.1529 61.179 67.049 61.179 66.8413C61.179 66.6245 61.3145 66.5161 61.5855 66.5161H67.33C67.5919 66.5161 67.7229 66.6471 67.7229 66.909C67.7229 67.0806 67.6777 67.2477 67.5874 67.4103L63.1435 75.9187C63.0803 76.0632 62.9764 76.1355 62.8319 76.1355C62.7687 76.1355 62.7055 76.1174 62.6422 76.0813Z" fill="#FCFEFF"/>
<path d="M5.41936 40.1355C4.51614 40.1355 3.71678 39.9323 3.02129 39.5258C2.32581 39.1194 1.78387 38.5503 1.39549 37.8187C1.01613 37.0781 0.826453 36.229 0.826453 35.2716C0.826453 34.3052 1.01613 33.4516 1.39549 32.711C1.78387 31.9703 2.32581 31.3968 3.02129 30.9903C3.71678 30.5839 4.51614 30.3806 5.41936 30.3806C6.17807 30.3806 6.87356 30.5116 7.50582 30.7735C8.13808 31.0264 8.63937 31.3787 9.00969 31.8303C9.07292 31.9026 9.10453 31.9839 9.10453 32.0742C9.10453 32.1826 9.06388 32.2639 8.98259 32.3181C8.9284 32.3632 8.85163 32.3858 8.75227 32.3858C8.61679 32.3858 8.51743 32.3406 8.45421 32.2503C8.17421 31.871 7.76324 31.5774 7.2213 31.3697C6.6884 31.1529 6.08775 31.0445 5.41936 31.0445C4.63355 31.0445 3.9471 31.2161 3.36 31.5593C2.78194 31.9026 2.33484 32.3948 2.01871 33.0361C1.71162 33.6684 1.55807 34.4135 1.55807 35.2716C1.55807 36.1297 1.71162 36.8748 2.01871 37.5071C2.33484 38.1394 2.78194 38.6271 3.36 38.9703C3.9471 39.3045 4.63355 39.4716 5.41936 39.4716C6.14194 39.4716 6.77872 39.3677 7.32969 39.16C7.88969 38.9523 8.30969 38.6542 8.58969 38.2658C8.66195 38.1664 8.76582 38.1168 8.9013 38.1168C8.97356 38.1168 9.04582 38.1439 9.11808 38.1981C9.19937 38.2613 9.24001 38.3471 9.24001 38.4555C9.24001 38.5277 9.2084 38.6045 9.14517 38.6858C8.78388 39.1284 8.26904 39.4806 7.60066 39.7426C6.93227 40.0045 6.20517 40.1355 5.41936 40.1355ZM11.4913 35.1497C11.3016 35.1497 11.1435 35.0864 11.0171 34.96C10.8997 34.8335 10.8409 34.6755 10.8409 34.4858C10.8409 34.2961 10.8997 34.1335 11.0171 33.9981C11.1435 33.8626 11.3016 33.7948 11.4913 33.7948C11.6719 33.7948 11.83 33.8626 11.9655 33.9981C12.11 34.1335 12.1822 34.2961 12.1822 34.4858C12.1822 34.6664 12.11 34.8245 11.9655 34.96C11.83 35.0864 11.6719 35.1497 11.4913 35.1497ZM11.4913 39.8374C11.3016 39.8374 11.139 39.7742 11.0035 39.6477C10.8771 39.5123 10.8139 39.3497 10.8139 39.16C10.8139 38.9794 10.8771 38.8213 11.0035 38.6858C11.139 38.5503 11.3016 38.4826 11.4913 38.4826C11.6719 38.4826 11.83 38.5503 11.9655 38.6858C12.11 38.8213 12.1822 38.9794 12.1822 39.16C12.1822 39.3497 12.1145 39.5123 11.979 39.6477C11.8435 39.7742 11.6809 39.8374 11.4913 39.8374ZM19.0098 40.1355C18.775 40.1355 18.6575 39.991 18.6575 39.7019V37.6968H13.902C13.7937 37.6968 13.7033 37.6697 13.6311 37.6155C13.5678 37.5523 13.5362 37.48 13.5362 37.3987C13.5362 37.3264 13.5678 37.2452 13.6311 37.1548L18.7524 30.5432C18.8427 30.4348 18.9511 30.3806 19.0775 30.3806C19.1588 30.3806 19.2266 30.4122 19.2808 30.4755C19.344 30.5297 19.3756 30.6064 19.3756 30.7058V37.06H20.473C20.744 37.06 20.8795 37.1684 20.8795 37.3852C20.8795 37.5929 20.744 37.6968 20.473 37.6968H19.3756V39.7019C19.3756 39.991 19.2537 40.1355 19.0098 40.1355ZM18.6575 37.06V31.749L14.5388 37.06H18.6575ZM25.9412 40.1355C25.2547 40.1355 24.6044 40.0045 23.9902 39.7426C23.376 39.4806 22.8657 39.1013 22.4592 38.6045C22.396 38.5232 22.3644 38.4374 22.3644 38.3471C22.3644 38.2477 22.405 38.171 22.4863 38.1168C22.5586 38.0716 22.6354 38.049 22.7167 38.049C22.8521 38.049 22.9515 38.0942 23.0147 38.1845C23.3218 38.6 23.7373 38.9206 24.2612 39.1465C24.785 39.3632 25.345 39.4716 25.9412 39.4716C26.8263 39.4716 27.5218 39.2955 28.0276 38.9432C28.5334 38.5819 28.7863 38.0761 28.7863 37.4258C28.7863 36.7574 28.6057 36.2471 28.2444 35.8948C27.8831 35.5335 27.3592 35.3529 26.6728 35.3529H25.1418C24.8709 35.3529 24.7354 35.249 24.7354 35.0413C24.7354 34.8245 24.8709 34.7161 25.1418 34.7161H26.6728C27.2238 34.7161 27.6754 34.5626 28.0276 34.2555C28.3799 33.9393 28.556 33.5284 28.556 33.0226C28.556 32.3813 28.3392 31.8935 27.9057 31.5593C27.4721 31.2161 26.8399 31.0445 26.0089 31.0445C25.4579 31.0445 24.9431 31.1393 24.4644 31.329C23.9947 31.5187 23.5883 31.8077 23.245 32.1961C23.1638 32.2864 23.0644 32.3316 22.947 32.3316C22.8657 32.3316 22.7889 32.309 22.7167 32.2639C22.6354 32.2097 22.5947 32.1284 22.5947 32.02C22.5947 31.9206 22.6263 31.8393 22.6896 31.7761C23.1321 31.3064 23.6334 30.9587 24.1934 30.7329C24.7625 30.4981 25.3676 30.3806 26.0089 30.3806C27.0838 30.3806 27.8967 30.6245 28.4476 31.1122C28.9986 31.591 29.2741 32.2277 29.2741 33.0226C29.2741 33.42 29.1521 33.7948 28.9083 34.1471C28.6644 34.4903 28.3076 34.7748 27.838 35.0006V35.0142C28.9489 35.4026 29.5044 36.2064 29.5044 37.4258C29.5044 37.9768 29.3463 38.46 29.0302 38.8755C28.7231 39.2819 28.2986 39.5935 27.7567 39.8103C27.2238 40.0271 26.6186 40.1355 25.9412 40.1355ZM1.51742 58.1355C1.28258 58.1355 1.16516 57.991 1.16516 57.7019V51.3613C1.16516 50.431 1.42258 49.7039 1.93742 49.18C2.46129 48.6471 3.17936 48.3806 4.09162 48.3806C4.66065 48.3806 5.18001 48.5297 5.64969 48.8277C6.1284 49.1258 6.46259 49.5142 6.65227 49.9929C6.85098 49.5051 7.18066 49.1168 7.6413 48.8277C8.11098 48.5297 8.63937 48.3806 9.22646 48.3806C10.1387 48.3806 10.8523 48.6471 11.3671 49.18C11.891 49.7039 12.1529 50.431 12.1529 51.3613V57.7019C12.1529 57.991 12.031 58.1355 11.7871 58.1355C11.5523 58.1355 11.4349 57.991 11.4349 57.7019V51.3613C11.4349 50.5845 11.2542 50.0064 10.8929 49.6271C10.5316 49.2477 9.97614 49.0581 9.22646 49.0581C8.54001 49.0581 7.99808 49.2658 7.60066 49.6813C7.20324 50.0877 7.00453 50.6477 7.00453 51.3613V57.7019C7.00453 57.991 6.88711 58.1355 6.65227 58.1355C6.42646 58.1355 6.31356 57.991 6.31356 57.7019V51.3613C6.31356 50.6658 6.11033 50.1103 5.70388 49.6948C5.29743 49.2703 4.76001 49.0581 4.09162 49.0581C3.34194 49.0581 2.78646 49.2477 2.42516 49.6271C2.06387 50.0064 1.88323 50.5845 1.88323 51.3613V57.7019C1.88323 57.991 1.76129 58.1355 1.51742 58.1355ZM14.7461 53.1497C14.5564 53.1497 14.3983 53.0864 14.2719 52.96C14.1544 52.8335 14.0957 52.6755 14.0957 52.4858C14.0957 52.2961 14.1544 52.1335 14.2719 51.9981C14.3983 51.8626 14.5564 51.7948 14.7461 51.7948C14.9267 51.7948 15.0848 51.8626 15.2203 51.9981C15.3648 52.1335 15.437 52.2961 15.437 52.4858C15.437 52.6664 15.3648 52.8245 15.2203 52.96C15.0848 53.0864 14.9267 53.1497 14.7461 53.1497ZM14.7461 57.8374C14.5564 57.8374 14.3938 57.7742 14.2583 57.6477C14.1319 57.5123 14.0686 57.3497 14.0686 57.16C14.0686 56.9794 14.1319 56.8213 14.2583 56.6858C14.3938 56.5503 14.5564 56.4826 14.7461 56.4826C14.9267 56.4826 15.0848 56.5503 15.2203 56.6858C15.3648 56.8213 15.437 56.9794 15.437 57.16C15.437 57.3497 15.3693 57.5123 15.2338 57.6477C15.0983 57.7742 14.9357 57.8374 14.7461 57.8374ZM20.422 58.1355C19.7446 58.1355 19.1078 58.0045 18.5117 57.7426C17.9246 57.4806 17.4278 57.1013 17.0213 56.6045C16.9581 56.5232 16.9265 56.4374 16.9265 56.3471C16.9265 56.2477 16.9672 56.171 17.0484 56.1168C17.1207 56.0716 17.1975 56.049 17.2788 56.049C17.4143 56.049 17.5136 56.0942 17.5768 56.1845C17.893 56.6 18.2949 56.9206 18.7826 57.1465C19.2794 57.3632 19.8214 57.4716 20.4084 57.4716C21.3026 57.4716 22.0026 57.2232 22.5085 56.7264C23.0233 56.2297 23.2807 55.5161 23.2807 54.5858C23.2807 53.7548 23.0278 53.1181 22.522 52.6755C22.0162 52.2239 21.3659 51.9981 20.571 51.9981C20.1284 51.9981 19.6949 52.0884 19.2704 52.269C18.8549 52.4406 18.5252 52.6664 18.2813 52.9464C18.1639 53.0729 18.0646 53.1632 17.9833 53.2174C17.911 53.2716 17.8343 53.2987 17.753 53.2987C17.6084 53.2987 17.4955 53.2581 17.4143 53.1768C17.342 53.0955 17.3149 52.9871 17.333 52.8516L17.8613 49.3019C17.8975 49.0671 17.9968 48.8774 18.1594 48.7329C18.331 48.5884 18.5614 48.5161 18.8504 48.5161H23.1588C23.4297 48.5161 23.5652 48.6245 23.5652 48.8413C23.5652 49.049 23.4297 49.1529 23.1588 49.1529H18.9859C18.8143 49.1529 18.6923 49.189 18.6201 49.2613C18.5478 49.3245 18.4981 49.4464 18.471 49.6271L18.0781 52.269C18.4304 51.9619 18.8233 51.7316 19.2568 51.5781C19.6994 51.4155 20.1646 51.3342 20.6523 51.3342C21.2755 51.3342 21.8401 51.4652 22.3459 51.7271C22.8607 51.989 23.2626 52.3639 23.5517 52.8516C23.8497 53.3393 23.9988 53.9129 23.9988 54.5723C23.9988 55.2858 23.8497 55.9135 23.5517 56.4555C23.2626 56.9884 22.8472 57.4039 22.3052 57.7019C21.7723 57.991 21.1446 58.1355 20.422 58.1355ZM26.8146 58.0813C26.7062 58.0181 26.652 57.9277 26.652 57.8103C26.652 57.72 26.6791 57.6297 26.7333 57.5394L31.1772 49.1529H25.7578C25.4869 49.1529 25.3514 49.049 25.3514 48.8413C25.3514 48.6245 25.4869 48.5161 25.7578 48.5161H31.5024C31.7643 48.5161 31.8953 48.6471 31.8953 48.909C31.8953 49.0806 31.8501 49.2477 31.7598 49.4103L27.3159 57.9187C27.2527 58.0632 27.1488 58.1355 27.0043 58.1355C26.9411 58.1355 26.8778 58.1174 26.8146 58.0813ZM8.0884 66.3806C8.32324 66.3806 8.44066 66.5251 8.44066 66.8142V68.6161C8.44066 69.3839 8.29162 70.0793 7.99356 70.7026C7.70453 71.3258 7.29807 71.8271 6.7742 72.2064C6.25033 72.5858 5.65872 72.8071 4.99936 72.8703V75.7019C4.99936 75.991 4.87743 76.1355 4.63355 76.1355C4.39872 76.1355 4.2813 75.991 4.2813 75.7019V72.8703C3.58581 72.8161 2.97613 72.6084 2.45226 72.2471C1.93742 71.8768 1.53549 71.38 1.24645 70.7568C0.966453 70.1335 0.826453 69.42 0.826453 68.6161V66.8142C0.826453 66.5251 0.943872 66.3806 1.17871 66.3806C1.42258 66.3806 1.54452 66.5251 1.54452 66.8142V68.6568C1.54452 69.7768 1.81549 70.6529 2.35742 71.2852C2.90839 71.9084 3.6671 72.22 4.63355 72.22C5.59098 72.22 6.34517 71.9039 6.89614 71.2716C7.44711 70.6303 7.72259 69.7587 7.72259 68.6568V66.8142C7.72259 66.5251 7.84453 66.3806 8.0884 66.3806ZM10.6842 71.1497C10.4945 71.1497 10.3364 71.0864 10.21 70.96C10.0926 70.8335 10.0339 70.6755 10.0339 70.4858C10.0339 70.2961 10.0926 70.1335 10.21 69.9981C10.3364 69.8626 10.4945 69.7948 10.6842 69.7948C10.8648 69.7948 11.0229 69.8626 11.1584 69.9981C11.3029 70.1335 11.3752 70.2961 11.3752 70.4858C11.3752 70.6664 11.3029 70.8245 11.1584 70.96C11.0229 71.0864 10.8648 71.1497 10.6842 71.1497ZM10.6842 75.8374C10.4945 75.8374 10.3319 75.7742 10.1964 75.6477C10.07 75.5123 10.0068 75.3497 10.0068 75.16C10.0068 74.9794 10.07 74.8213 10.1964 74.6858C10.3319 74.5503 10.4945 74.4826 10.6842 74.4826C10.8648 74.4826 11.0229 74.5503 11.1584 74.6858C11.3029 74.8213 11.3752 74.9794 11.3752 75.16C11.3752 75.3497 11.3074 75.5123 11.1719 75.6477C11.0364 75.7742 10.8739 75.8374 10.6842 75.8374ZM16.5769 76.1355C15.8182 76.1355 15.1588 75.9413 14.5988 75.5529C14.0388 75.1555 13.6098 74.591 13.3117 73.8594C13.0137 73.1277 12.8646 72.2606 12.8646 71.2581C12.8646 70.2555 13.0137 69.3884 13.3117 68.6568C13.6098 67.9251 14.0388 67.3651 14.5988 66.9768C15.1588 66.5793 15.8182 66.3806 16.5769 66.3806C17.3356 66.3806 17.995 66.5793 18.555 66.9768C19.115 67.3651 19.544 67.9251 19.8421 68.6568C20.1401 69.3884 20.2892 70.2555 20.2892 71.2581C20.2892 72.2606 20.1401 73.1277 19.8421 73.8594C19.544 74.591 19.115 75.1555 18.555 75.5529C17.995 75.9413 17.3356 76.1355 16.5769 76.1355ZM16.5769 75.4716C17.5343 75.4716 18.2704 75.1058 18.7853 74.3742C19.3092 73.6426 19.5711 72.6039 19.5711 71.2581C19.5711 69.9122 19.3092 68.8735 18.7853 68.1419C18.2704 67.4103 17.5343 67.0445 16.5769 67.0445C15.6195 67.0445 14.8788 67.4103 14.355 68.1419C13.8401 68.8735 13.5827 69.9122 13.5827 71.2581C13.5827 72.6039 13.8401 73.6426 14.355 74.3742C14.8788 75.1058 15.6195 75.4716 16.5769 75.4716ZM8.10195 94.1355C8.02066 94.1355 7.9484 94.1084 7.88517 94.0542C7.83098 94 7.79485 93.9277 7.77678 93.8374C7.54195 92.7626 7.09936 91.8142 6.44904 90.9923C5.80775 90.1613 4.9271 89.4252 3.8071 88.7839L1.95097 90.3284V93.7019C1.95097 93.991 1.82903 94.1355 1.58516 94.1355C1.35032 94.1355 1.2329 93.991 1.2329 93.7019V84.8142C1.2329 84.5251 1.35032 84.3806 1.58516 84.3806C1.82903 84.3806 1.95097 84.5251 1.95097 84.8142V89.4613L7.69549 84.5297C7.74066 84.4845 7.80388 84.4619 7.88517 84.4619C7.97549 84.4619 8.05679 84.4981 8.12904 84.5703C8.19227 84.6335 8.22388 84.7103 8.22388 84.8006C8.22388 84.9 8.18775 84.9813 8.1155 85.0445L4.30839 88.3774C5.48259 89.0819 6.40388 89.8723 7.07227 90.7484C7.74066 91.6155 8.18775 92.6 8.41356 93.7019C8.43162 93.8194 8.40904 93.9187 8.34582 94C8.29162 94.0903 8.21033 94.1355 8.10195 94.1355ZM10.671 89.1497C10.4813 89.1497 10.3232 89.0864 10.1968 88.96C10.0793 88.8335 10.0206 88.6755 10.0206 88.4858C10.0206 88.2961 10.0793 88.1335 10.1968 87.9981C10.3232 87.8626 10.4813 87.7948 10.671 87.7948C10.8516 87.7948 11.0097 87.8626 11.1452 87.9981C11.2897 88.1335 11.3619 88.2961 11.3619 88.4858C11.3619 88.6664 11.2897 88.8245 11.1452 88.96C11.0097 89.0864 10.8516 89.1497 10.671 89.1497ZM10.671 93.8374C10.4813 93.8374 10.3187 93.7742 10.1832 93.6477C10.0568 93.5123 9.99354 93.3497 9.99354 93.16C9.99354 92.9794 10.0568 92.8213 10.1832 92.6858C10.3187 92.5503 10.4813 92.4826 10.671 92.4826C10.8516 92.4826 11.0097 92.5503 11.1452 92.6858C11.2897 92.8213 11.3619 92.9794 11.3619 93.16C11.3619 93.3497 11.2942 93.5123 11.1587 93.6477C11.0232 93.7742 10.8606 93.8374 10.671 93.8374ZM16.4282 94.1355C15.8682 94.1355 15.3172 94.0271 14.7753 93.8103C14.2424 93.5845 13.7817 93.2639 13.3933 92.8484C13.3301 92.7852 13.2985 92.7039 13.2985 92.6045C13.2985 92.5052 13.3391 92.4239 13.4204 92.3606C13.4927 92.3064 13.565 92.2794 13.6372 92.2794C13.7275 92.2794 13.8314 92.329 13.9488 92.4284C14.6895 93.1239 15.5159 93.4716 16.4282 93.4716C17.4308 93.4716 18.1669 93.1058 18.6366 92.3742C19.1153 91.6426 19.3546 90.5497 19.3546 89.0955L19.3275 89.0819C19.0475 89.6961 18.6592 90.1748 18.1624 90.5181C17.6656 90.8523 17.0514 91.0194 16.3198 91.0194C15.5972 91.0194 14.974 90.8703 14.4501 90.5723C13.9262 90.2742 13.5288 89.8768 13.2579 89.38C12.9869 88.8742 12.8514 88.3277 12.8514 87.7406C12.8514 87.0993 12.9914 86.5258 13.2714 86.02C13.5514 85.5051 13.9533 85.1032 14.4772 84.8142C15.0101 84.5251 15.6333 84.3806 16.3469 84.3806C18.8127 84.3806 20.0456 86.011 20.0456 89.2716C20.0456 90.8523 19.734 92.0581 19.1108 92.889C18.4875 93.72 17.5933 94.1355 16.4282 94.1355ZM16.3198 90.3555C16.8527 90.3555 17.3269 90.2426 17.7424 90.0168C18.1579 89.7819 18.4785 89.4568 18.7043 89.0413C18.9392 88.6258 19.0566 88.1471 19.0566 87.6052C19.0566 86.8103 18.8082 86.1871 18.3114 85.7355C17.8146 85.2748 17.1598 85.0445 16.3469 85.0445C15.4888 85.0445 14.8114 85.2884 14.3146 85.7761C13.8179 86.2548 13.5695 86.8916 13.5695 87.6864C13.5695 88.2103 13.6824 88.6755 13.9082 89.0819C14.143 89.4884 14.4682 89.8045 14.8837 90.0303C15.2991 90.2471 15.7779 90.3555 16.3198 90.3555ZM22.8586 94.0813C22.7502 94.0181 22.696 93.9277 22.696 93.8103C22.696 93.72 22.7231 93.6297 22.7773 93.5394L27.2212 85.1529H21.8018C21.5309 85.1529 21.3954 85.049 21.3954 84.8413C21.3954 84.6245 21.5309 84.5161 21.8018 84.5161H27.5463C27.8083 84.5161 27.9392 84.6471 27.9392 84.909C27.9392 85.0806 27.8941 85.2477 27.8038 85.4103L23.3599 93.9187C23.2967 94.0632 23.1928 94.1355 23.0483 94.1355C22.985 94.1355 22.9218 94.1174 22.8586 94.0813Z" fill="#FCFEFF"/>
</svg>
