<svg width="83" height="98" viewBox="0 0 83 98" fill="none" xmlns="http://www.w3.org/2000/svg">
<path d="M9.8747 8.78156L9.22306 10.8464L10.2364 10.857C10.5444 10.8602 10.7721 10.9321 10.9194 11.0727C11.0767 11.2035 11.1538 11.3931 11.1508 11.6415C11.1478 11.8799 11.066 12.0678 10.9053 12.2053C10.7447 12.3328 10.5154 12.395 10.2174 12.3919L8.74202 12.3766L8.05947 14.5306C7.97666 14.798 7.86013 14.9806 7.70987 15.0784C7.55973 15.1662 7.33564 15.2086 7.03759 15.2055C6.78922 15.203 6.59623 15.1413 6.45862 15.0207C6.32113 14.8901 6.25356 14.7304 6.25591 14.5416C6.2564 14.5019 6.2672 14.4325 6.2883 14.3333L6.90902 12.3575L4.19678 12.3294L3.51423 14.4834C3.43141 14.7508 3.31488 14.9334 3.16462 15.0312C3.01449 15.1191 2.79039 15.1614 2.49235 15.1583C2.24397 15.1558 2.05098 15.0941 1.91337 14.9735C1.77589 14.8429 1.70832 14.6832 1.71066 14.4944C1.71115 14.4547 1.72195 14.3853 1.74306 14.2861L2.36378 12.3103L1.64846 12.3029C1.35041 12.2998 1.11283 12.2278 0.935732 12.0869C0.768566 11.946 0.686402 11.7613 0.68924 11.5328C0.692202 11.2944 0.778994 11.1065 0.949616 10.9692C1.12024 10.8319 1.35954 10.7648 1.66752 10.768L2.84482 10.7802L3.49645 8.71533L2.5427 8.70542C2.24465 8.70233 2.00707 8.63031 1.82997 8.48937C1.6628 8.34853 1.58064 8.16386 1.58348 7.93536C1.58644 7.69692 1.67323 7.50904 1.84385 7.37171C2.01448 7.23438 2.25378 7.16731 2.56176 7.17051L3.9924 7.18536L4.62876 5.15012C4.70114 4.92234 4.81749 4.75464 4.97781 4.64701C5.14818 4.52954 5.3824 4.47236 5.68044 4.47545C5.91888 4.47793 6.10697 4.53453 6.2447 4.64526C6.38243 4.75598 6.45013 4.90573 6.44778 5.09449C6.44655 5.19383 6.43563 5.27321 6.41502 5.33261L5.8254 7.2044L8.53764 7.23256L9.174 5.19732C9.24639 4.96954 9.36274 4.80184 9.52305 4.6942C9.69343 4.57674 9.92764 4.51956 10.2257 4.52265C10.4641 4.52513 10.6522 4.58173 10.7899 4.69245C10.9277 4.80318 10.9954 4.95292 10.993 5.14168C10.9918 5.24103 10.9809 5.32041 10.9603 5.37981L10.3706 7.25159L11.1307 7.25949C11.4387 7.26268 11.6663 7.3346 11.8136 7.47523C11.9709 7.60603 12.0481 7.79562 12.045 8.04399C12.042 8.28242 11.9602 8.47036 11.7995 8.60779C11.639 8.73529 11.4096 8.7975 11.1116 8.7944L9.8747 8.78156ZM8.0417 8.76252L5.32945 8.73436L4.67782 10.7993L7.39006 10.8274L8.0417 8.76252ZM15.7701 15.1621C15.0151 15.1542 14.4314 14.9495 14.019 14.5477C13.6067 14.146 13.405 13.5875 13.4139 12.8722L13.4879 6.91136C13.4965 6.21593 13.702 5.67655 14.1042 5.29322C14.5163 4.91 15.0801 4.7221 15.7954 4.72953L17.8817 4.75119C19.0242 4.76306 20.0102 4.98195 20.8395 5.40787C21.6689 5.8338 22.2973 6.44145 22.7246 7.23084C23.162 8.02032 23.3739 8.95651 23.3604 10.0394C23.347 11.1223 23.1119 12.0538 22.655 12.834C22.2083 13.6044 21.565 14.1939 20.7253 14.6025C19.8956 15.0012 18.9046 15.1946 17.7521 15.1827L15.7701 15.1621ZM17.6222 13.6462C18.864 13.6591 19.7917 13.3706 20.4051 12.7809C21.0187 12.1811 21.3332 11.2603 21.3486 10.0185C21.364 8.77666 21.0675 7.84953 20.4591 7.23712C19.8607 6.61487 18.9456 6.29735 17.7136 6.28456L16.1191 6.268C15.9204 6.26594 15.7606 6.32886 15.6398 6.45678C15.5289 6.58479 15.472 6.76305 15.4692 6.99155L15.3959 12.8928C15.393 13.1213 15.4455 13.3007 15.5531 13.431C15.6708 13.5613 15.8289 13.6276 16.0276 13.6296L17.6222 13.6462ZM29.1447 15.45C27.6942 15.4349 26.5699 15.155 25.7719 14.6102C24.9838 14.0555 24.5961 13.2765 24.6085 12.2731C24.615 11.7564 24.7947 11.2864 25.1477 10.8628C25.5009 10.4293 25.9772 10.0815 26.5766 9.81942L26.577 9.78962C26.1029 9.55617 25.7292 9.24924 25.4557 8.86883C25.1822 8.48842 25.0482 8.07468 25.0538 7.62762C25.0654 6.69376 25.442 5.97234 26.1836 5.46337C26.9252 4.95439 27.9566 4.70677 29.278 4.72049C30.5993 4.73421 31.6244 5.00319 32.3532 5.52743C33.0819 6.05167 33.4405 6.78072 33.4289 7.71459C33.4234 8.16165 33.2792 8.5725 32.9963 8.94713C32.7134 9.32176 32.3321 9.62085 31.8524 9.8444L31.8521 9.8742C32.4448 10.1486 32.9123 10.5062 33.2546 10.947C33.5971 11.3778 33.7651 11.8515 33.7586 12.3681C33.7462 13.3715 33.3342 14.1422 32.5227 14.6803C31.7212 15.2085 30.5952 15.4651 29.1447 15.45ZM29.2238 9.0868C29.9093 9.09392 30.4473 8.97531 30.8379 8.73096C31.2385 8.47679 31.4415 8.13114 31.4469 7.69401C31.4525 7.24694 31.263 6.90218 30.8785 6.65973C30.494 6.41727 29.954 6.29243 29.2586 6.28521C28.5631 6.27799 28.0202 6.39158 27.6298 6.62599C27.2393 6.8604 27.0413 7.20114 27.0358 7.6482C27.0304 8.08533 27.2198 8.43506 27.604 8.69738C27.9983 8.94988 28.5382 9.07969 29.2238 9.0868ZM29.1642 13.8853C29.9888 13.8938 30.6263 13.7663 31.0767 13.5027C31.537 13.2392 31.7703 12.8542 31.7766 12.3475C31.7835 11.7911 31.5603 11.3616 31.107 11.0588C30.6537 10.756 30.0197 10.6004 29.2051 10.5919C28.3904 10.5835 27.7527 10.7259 27.292 11.0192C26.8313 11.3125 26.5975 11.7373 26.5906 12.2936C26.5843 12.8003 26.803 13.1901 27.2467 13.463C27.7004 13.7359 28.3395 13.8767 29.1642 13.8853ZM39.4026 15.5565C38.5482 15.5476 37.7454 15.3803 36.9943 15.0546C36.2433 14.7189 35.638 14.2605 35.1782 13.6795C35.0218 13.4692 34.9449 13.2597 34.9475 13.0511C34.951 12.7729 35.0879 12.5458 35.3584 12.3698C35.5188 12.2522 35.6885 12.1944 35.8673 12.1962C36.1554 12.1992 36.4019 12.3508 36.6069 12.651C36.9097 13.0715 37.308 13.3985 37.8019 13.6322C38.2958 13.8658 38.8309 13.9857 39.4071 13.9916C40.2814 14.0007 40.9445 13.8139 41.3964 13.431C41.8582 13.0483 42.0935 12.5043 42.1023 11.7989C42.1109 11.1035 41.9089 10.5649 41.4963 10.183C41.0839 9.79122 40.4753 9.59114 39.6706 9.58279C39.2036 9.57794 38.7705 9.65293 38.3711 9.80776C37.9818 9.95276 37.6712 10.1582 37.4394 10.4241C37.2881 10.6013 37.1175 10.7387 36.9275 10.836C36.7474 10.9335 36.568 10.9814 36.3892 10.9795C36.2898 10.9785 36.1956 10.9626 36.1066 10.9319C35.8691 10.8499 35.6868 10.7288 35.5596 10.5685C35.4424 10.4083 35.4 10.2191 35.4325 10.0008L36.0615 6.1621C36.1259 5.77526 36.3084 5.47908 36.6091 5.27354C36.9098 5.05807 37.2937 4.95276 37.7606 4.95761L42.7381 5.0093C43.0262 5.01229 43.2489 5.07919 43.4063 5.20999C43.5736 5.34089 43.6556 5.5355 43.6524 5.7938C43.6493 6.04217 43.5625 6.23005 43.392 6.35745C43.2215 6.48485 42.9972 6.5471 42.719 6.54421L38.3526 6.49887C38.2135 6.49743 38.0937 6.5409 37.9933 6.62928C37.9029 6.70783 37.8468 6.82151 37.8251 6.97032L37.5348 8.74089C37.8954 8.50617 38.2901 8.32645 38.7189 8.20174C39.1577 8.07712 39.5956 8.01709 40.0328 8.02163C40.8772 8.0304 41.6055 8.19197 42.2177 8.50634C42.8299 8.81078 43.2965 9.24784 43.6173 9.81752C43.9381 10.3872 44.0938 11.0496 44.0845 11.8046C44.075 12.5696 43.8828 13.2383 43.5081 13.8107C43.1335 14.3731 42.5964 14.8097 41.8971 15.1204C41.1978 15.4211 40.3663 15.5665 39.4026 15.5565ZM49.7208 15.6637C48.8664 15.6548 48.0636 15.4875 47.3125 15.1617C46.5615 14.826 45.9562 14.3677 45.4964 13.7866C45.34 13.5763 45.2631 13.3669 45.2657 13.1582C45.2692 12.8801 45.4061 12.653 45.6766 12.4769C45.837 12.3594 46.0067 12.3015 46.1855 12.3034C46.4736 12.3063 46.7201 12.4579 46.9251 12.7582C47.2279 13.1786 47.6262 13.5057 48.1201 13.7393C48.614 13.973 49.1491 14.0928 49.7253 14.0988C50.5996 14.1079 51.2627 13.921 51.7146 13.5382C52.1764 13.1555 52.4117 12.6114 52.4205 11.9061C52.4291 11.2106 52.2271 10.672 51.8145 10.2901C51.4021 9.89836 50.7935 9.69829 49.9888 9.68993C49.5218 9.68508 49.0887 9.76007 48.6893 9.9149C48.3 10.0599 47.9894 10.2653 47.7576 10.5312C47.6063 10.7085 47.4357 10.8458 47.2457 10.9432C47.0656 11.0407 46.8862 11.0885 46.7074 11.0866C46.608 11.0856 46.5138 11.0697 46.4248 11.039C46.1873 10.957 46.005 10.8359 45.8778 10.6756C45.7606 10.5154 45.7182 10.3262 45.7507 10.1079L46.3797 6.26924C46.4441 5.88241 46.6266 5.58622 46.9273 5.38069C47.228 5.16522 47.6119 5.05991 48.0788 5.06476L53.0563 5.11644C53.3444 5.11943 53.5671 5.18633 53.7245 5.31713C53.8917 5.44804 53.9738 5.64264 53.9706 5.90094C53.9675 6.14931 53.8807 6.3372 53.7102 6.46459C53.5397 6.59199 53.3154 6.65425 53.0372 6.65136L48.6708 6.60602C48.5317 6.60457 48.4119 6.64804 48.3114 6.73642C48.221 6.81497 48.165 6.92865 48.1433 7.07747L47.853 8.84803C48.2136 8.61331 48.6083 8.43359 49.0371 8.30888C49.4759 8.18427 49.9138 8.12423 50.351 8.12877C51.1954 8.13754 51.9237 8.29911 52.5359 8.61348C53.1481 8.91792 53.6147 9.35498 53.9355 9.92467C54.2563 10.4943 54.412 11.1567 54.4027 11.9118C54.3932 12.6767 54.201 13.3454 53.8263 13.9178C53.4517 14.4803 52.9146 14.9168 52.2152 15.2275C51.516 15.5283 50.6845 15.6737 49.7208 15.6637ZM56.4494 15.5845C56.1811 15.5817 55.9635 15.5 55.7966 15.3392C55.6398 15.1687 55.5628 14.9642 55.5658 14.7258C55.5677 14.5668 55.6094 14.4133 55.6907 14.2651C55.7722 14.1069 55.8931 13.9691 56.0536 13.8515L60.959 10.1019C61.4505 9.72946 61.7772 9.41987 61.9393 9.17315C62.1013 8.92643 62.1847 8.61431 62.1894 8.23679C62.1957 7.73012 62.0217 7.33584 61.6675 7.05396C61.3134 6.76214 60.8185 6.61293 60.1826 6.60632C59.5766 6.60003 59.0388 6.69877 58.5693 6.90255C58.1098 7.0965 57.7286 7.39062 57.4256 7.78492C57.2033 8.08069 56.9531 8.22713 56.6749 8.22424C56.4961 8.22239 56.3329 8.16604 56.1852 8.05522C55.9192 7.8736 55.7879 7.63875 55.7915 7.35064C55.794 7.15194 55.881 6.94419 56.0526 6.72738C56.5166 6.17578 57.1031 5.75462 57.8121 5.46391C58.5212 5.17319 59.3179 5.03242 60.2021 5.0416C61.4638 5.0547 62.4439 5.34806 63.1422 5.92166C63.8407 6.48533 64.1838 7.2639 64.1714 8.25738C64.1649 8.78392 63.9947 9.28889 63.6608 9.77228C63.3269 10.2557 62.7787 10.7865 62.0164 11.3648L58.4803 14.0705L63.3385 14.1209C63.9246 14.127 64.2145 14.3883 64.2081 14.9049C64.2018 15.4116 63.9055 15.6619 63.3194 15.6558L56.4494 15.5845ZM66.539 15.8234C66.2409 15.8203 66.0035 15.7383 65.8266 15.5775C65.6498 15.4167 65.5631 15.1972 65.5665 14.9191L65.6313 9.70332C65.6492 8.26279 66.0755 7.13947 66.9102 6.33339C67.745 5.5273 68.8975 5.13189 70.3679 5.14716C71.3316 5.15717 72.1638 5.34963 72.8646 5.72454C73.5655 6.09945 74.0953 6.63653 74.4543 7.33577C74.8232 8.03513 75.0018 8.8567 74.99 9.8005L74.9253 15.0162C74.9218 15.2944 74.8297 15.512 74.6489 15.6691C74.4681 15.8262 74.2286 15.9032 73.9306 15.9001C73.6325 15.8971 73.3901 15.815 73.2033 15.6541C73.0266 15.4834 72.9399 15.2639 72.9432 14.9957L72.9734 12.5666L67.5787 12.5106L67.5485 14.9396C67.5452 15.2079 67.4481 15.4255 67.2573 15.5924C67.0765 15.7495 66.837 15.8265 66.539 15.8234ZM72.9925 11.0317L73.0086 9.73521C73.0209 8.74174 72.8017 7.99426 72.3508 7.49278C71.9101 6.98147 71.2426 6.72117 70.3484 6.71188C68.5502 6.69321 67.6387 7.68231 67.6139 9.6792L67.5978 10.9757L72.9925 11.0317Z" fill="#FCFEFF"/>
<path d="M49.1652 32.0064C49.1652 31.5729 49.2961 31.2161 49.5581 30.9361C49.82 30.6561 50.2129 30.5161 50.7368 30.5161H53.0671C54.3407 30.5161 55.2755 30.7735 55.8716 31.2884C56.4768 31.7942 56.7794 32.5393 56.7794 33.5239C56.7794 34.4542 56.4587 35.1587 55.8174 35.6374C55.1761 36.1161 54.2187 36.3555 52.9452 36.3555L55.8852 39.5394C55.9845 39.6387 56.0342 39.7381 56.0342 39.8374C56.0342 39.9187 55.9981 39.991 55.9258 40.0542C55.8626 40.1084 55.7948 40.1355 55.7226 40.1355C55.6142 40.1355 55.4923 40.0632 55.3568 39.9187L52.0645 36.3555H49.8832V39.7019C49.8832 39.991 49.7613 40.1355 49.5174 40.1355C49.2826 40.1355 49.1652 39.991 49.1652 39.7019V32.0064ZM53.1077 35.7187C53.9568 35.7187 54.6568 35.5561 55.2078 35.231C55.7678 34.9058 56.0478 34.3368 56.0478 33.5239C56.0478 32.6568 55.7994 32.0471 55.3026 31.6948C54.8148 31.3335 54.0923 31.1529 53.1348 31.1529H50.6555C50.4206 31.1529 50.231 31.2297 50.0865 31.3832C49.951 31.5277 49.8832 31.7219 49.8832 31.9658V35.7187H53.1077ZM59.0282 35.1497C58.8385 35.1497 58.6804 35.0864 58.554 34.96C58.4366 34.8335 58.3779 34.6755 58.3779 34.4858C58.3779 34.2961 58.4366 34.1335 58.554 33.9981C58.6804 33.8626 58.8385 33.7948 59.0282 33.7948C59.2088 33.7948 59.3669 33.8626 59.5024 33.9981C59.6469 34.1335 59.7192 34.2961 59.7192 34.4858C59.7192 34.6664 59.6469 34.8245 59.5024 34.96C59.3669 35.0864 59.2088 35.1497 59.0282 35.1497ZM59.0282 39.8374C58.8385 39.8374 58.6759 39.7742 58.5404 39.6477C58.414 39.5123 58.3508 39.3497 58.3508 39.16C58.3508 38.9794 58.414 38.8213 58.5404 38.6858C58.6759 38.5503 58.8385 38.4826 59.0282 38.4826C59.2088 38.4826 59.3669 38.5503 59.5024 38.6858C59.6469 38.8213 59.7192 38.9794 59.7192 39.16C59.7192 39.3497 59.6514 39.5123 59.5159 39.6477C59.3804 39.7742 59.2179 39.8374 59.0282 39.8374ZM61.6422 40C61.5157 40 61.4119 39.9684 61.3306 39.9052C61.2583 39.8329 61.2222 39.7471 61.2222 39.6477C61.2222 39.5394 61.2719 39.44 61.3712 39.3497L66.4925 34.8923C66.8086 34.6123 67.0299 34.3277 67.1564 34.0387C67.2919 33.7497 67.3596 33.3974 67.3596 32.9819C67.3596 32.3677 67.1474 31.8935 66.7228 31.5593C66.2983 31.2161 65.7022 31.0445 64.9344 31.0445C64.3203 31.0445 63.7512 31.1619 63.2273 31.3968C62.7125 31.6226 62.3061 31.9342 62.008 32.3316C61.9448 32.4219 61.8454 32.4671 61.7099 32.4671C61.6106 32.4671 61.5338 32.4445 61.4796 32.3993C61.3983 32.3452 61.3577 32.2639 61.3577 32.1555C61.3577 32.0651 61.3893 31.9839 61.4525 31.9116C61.8499 31.4329 62.3512 31.0581 62.9564 30.7871C63.5706 30.5161 64.2299 30.3806 64.9344 30.3806C65.5577 30.3806 66.1041 30.489 66.5738 30.7058C67.0525 30.9226 67.4228 31.2297 67.6848 31.6271C67.9467 32.0155 68.0777 32.4671 68.0777 32.9819C68.0777 33.4877 67.9783 33.9348 67.7796 34.3232C67.5809 34.7026 67.2422 35.1 66.7635 35.5155L62.3467 39.3632H67.739C67.8835 39.3632 67.9874 39.3903 68.0506 39.4445C68.1138 39.4897 68.1454 39.571 68.1454 39.6884C68.1454 39.8961 68.0099 40 67.739 40H61.6422ZM72.3328 40.1355C72.098 40.1355 71.9806 39.991 71.9806 39.7019V31.2477L70.0702 31.9793C69.998 32.0064 69.9348 32.02 69.8806 32.02C69.7993 32.02 69.727 32.0019 69.6638 31.9658C69.6006 31.9206 69.5554 31.8664 69.5283 31.8032C69.5102 31.749 69.5012 31.7039 69.5012 31.6677C69.5012 31.5955 69.5238 31.5277 69.569 31.4645C69.6231 31.4013 69.6954 31.3516 69.7857 31.3155L72.1702 30.4213C72.2335 30.3942 72.2967 30.3806 72.3599 30.3806C72.4593 30.3806 72.5406 30.4213 72.6038 30.5026C72.667 30.5748 72.6986 30.6742 72.6986 30.8006V39.7019C72.6986 39.991 72.5767 40.1355 72.3328 40.1355ZM78.4325 40.1355C77.2041 40.1355 76.2557 39.711 75.5873 38.8619C74.9279 38.0039 74.5983 36.7981 74.5983 35.2445C74.5983 34.2419 74.7473 33.3748 75.0454 32.6432C75.3525 31.9116 75.795 31.3516 76.3731 30.9632C76.9512 30.5748 77.6421 30.3806 78.446 30.3806C79.0692 30.3806 79.6292 30.471 80.126 30.6516C80.6228 30.8232 81.0834 31.1032 81.508 31.4916C81.5802 31.5639 81.6163 31.6451 81.6163 31.7355C81.6163 31.8258 81.5802 31.9071 81.508 31.9793C81.4447 32.0426 81.368 32.0742 81.2776 32.0742C81.1783 32.0742 81.0789 32.0335 80.9796 31.9522C80.5912 31.6361 80.2073 31.4058 79.828 31.2613C79.4576 31.1168 78.997 31.0445 78.446 31.0445C77.3983 31.0445 76.617 31.4284 76.1021 32.1961C75.5873 32.9639 75.3299 34.0477 75.3299 35.4477L75.357 35.4613C75.6641 34.8923 76.066 34.4361 76.5628 34.0929C77.0686 33.7497 77.6918 33.5781 78.4325 33.5781C79.1551 33.5781 79.7647 33.7226 80.2615 34.0116C80.7673 34.3006 81.1467 34.689 81.3996 35.1768C81.6615 35.6645 81.7925 36.2064 81.7925 36.8026C81.7925 37.4348 81.657 38.0039 81.386 38.5097C81.1151 39.0155 80.7222 39.4129 80.2073 39.7019C79.7015 39.991 79.1099 40.1355 78.4325 40.1355ZM78.4325 39.4716C79.2544 39.4716 79.9002 39.2368 80.3699 38.7671C80.8396 38.2974 81.0744 37.6606 81.0744 36.8568C81.0744 36.0529 80.8396 35.4161 80.3699 34.9464C79.9002 34.4768 79.2544 34.2419 78.4325 34.2419C77.9176 34.2419 77.4434 34.3639 77.0099 34.6077C76.5763 34.8516 76.2286 35.1813 75.9667 35.5968C75.7138 36.0032 75.5873 36.4503 75.5873 36.9381C75.5873 37.4348 75.7138 37.8774 75.9667 38.2658C76.2196 38.6452 76.5628 38.9432 76.9963 39.16C77.4389 39.3677 77.9176 39.4716 78.4325 39.4716ZM53.4736 58.1355C52.5432 58.1355 51.7258 57.9368 51.0213 57.5394C50.3258 57.1329 49.7839 56.5639 49.3955 55.8323C49.0161 55.0916 48.8265 54.2381 48.8265 53.2716C48.8265 52.3052 49.0206 51.4516 49.409 50.711C49.7974 49.9703 50.3439 49.3968 51.0484 48.9903C51.7529 48.5839 52.5658 48.3806 53.4871 48.3806C54.2458 48.3806 54.9413 48.5116 55.5736 48.7735C56.2058 49.0264 56.7071 49.3787 57.0774 49.8303C57.1407 49.9026 57.1723 49.9839 57.1723 50.0742C57.1723 50.1826 57.1316 50.2639 57.0503 50.3181C56.9961 50.3632 56.9194 50.3858 56.82 50.3858C56.6845 50.3858 56.5852 50.3406 56.5219 50.2503C56.2419 49.871 55.831 49.5774 55.289 49.3697C54.7561 49.1529 54.1555 49.0445 53.4871 49.0445C52.6832 49.0445 51.9832 49.2161 51.3871 49.5593C50.8 49.8935 50.3484 50.3813 50.0323 51.0226C49.7161 51.6548 49.5581 52.4045 49.5581 53.2716C49.5581 54.1387 49.7116 54.8884 50.0187 55.5206C50.3348 56.1529 50.7865 56.6361 51.3736 56.9703C51.9697 57.3045 52.6697 57.4716 53.4736 57.4716C54.1058 57.4716 54.6703 57.3677 55.1671 57.16C55.6729 56.9432 56.0703 56.6452 56.3594 56.2658C56.6484 55.8864 56.7929 55.4619 56.7929 54.9923V54.4774C56.7929 54.1974 56.7387 54.0032 56.6303 53.8948C56.5219 53.7774 56.3323 53.7187 56.0613 53.7187H53.8936C53.6226 53.7187 53.4871 53.6148 53.4871 53.4071C53.4871 53.2897 53.5187 53.2084 53.5819 53.1632C53.6452 53.109 53.749 53.0819 53.8936 53.0819H55.98C56.4949 53.0819 56.8787 53.1948 57.1316 53.4206C57.3845 53.6464 57.511 53.9942 57.511 54.4639V54.9787C57.511 55.5568 57.3303 56.0897 56.969 56.5774C56.6168 57.0561 56.129 57.4355 55.5058 57.7155C54.8916 57.9955 54.2142 58.1355 53.4736 58.1355ZM59.7559 53.1497C59.5662 53.1497 59.4081 53.0864 59.2817 52.96C59.1643 52.8335 59.1056 52.6755 59.1056 52.4858C59.1056 52.2961 59.1643 52.1335 59.2817 51.9981C59.4081 51.8626 59.5662 51.7948 59.7559 51.7948C59.9365 51.7948 60.0946 51.8626 60.2301 51.9981C60.3746 52.1335 60.4469 52.2961 60.4469 52.4858C60.4469 52.6664 60.3746 52.8245 60.2301 52.96C60.0946 53.0864 59.9365 53.1497 59.7559 53.1497ZM59.7559 57.8374C59.5662 57.8374 59.4036 57.7742 59.2681 57.6477C59.1417 57.5123 59.0785 57.3497 59.0785 57.16C59.0785 56.9794 59.1417 56.8213 59.2681 56.6858C59.4036 56.5503 59.5662 56.4826 59.7559 56.4826C59.9365 56.4826 60.0946 56.5503 60.2301 56.6858C60.3746 56.8213 60.4469 56.9794 60.4469 57.16C60.4469 57.3497 60.3791 57.5123 60.2436 57.6477C60.1081 57.7742 59.9456 57.8374 59.7559 57.8374ZM65.5538 58.1355C64.8763 58.1355 64.2621 58.0271 63.7112 57.8103C63.1602 57.5935 62.7267 57.2819 62.4105 56.8755C62.0944 56.46 61.9363 55.9768 61.9363 55.4258C61.9363 54.8387 62.1215 54.3419 62.4918 53.9355C62.8621 53.529 63.3725 53.2219 64.0228 53.0142V53.0006C63.4628 52.811 63.0338 52.5355 62.7357 52.1742C62.4376 51.8129 62.2886 51.3884 62.2886 50.9006C62.2886 50.4219 62.406 49.9929 62.6409 49.6135C62.8847 49.2342 63.2505 48.9361 63.7383 48.7193C64.226 48.4935 64.8312 48.3806 65.5538 48.3806C66.2763 48.3806 66.8815 48.4935 67.3692 48.7193C67.857 48.9361 68.2183 49.2342 68.4531 49.6135C68.697 49.9929 68.8189 50.4219 68.8189 50.9006C68.8189 51.3884 68.6699 51.8129 68.3718 52.1742C68.0738 52.5355 67.6447 52.811 67.0847 53.0006V53.0142C67.7351 53.2219 68.2454 53.529 68.6157 53.9355C68.986 54.3419 69.1712 54.8387 69.1712 55.4258C69.1712 55.9768 69.0131 56.46 68.697 56.8755C68.3809 57.2819 67.9473 57.5935 67.3963 57.8103C66.8454 58.0271 66.2312 58.1355 65.5538 58.1355ZM65.5538 52.7297C66.3215 52.7297 66.9357 52.5626 67.3963 52.2284C67.866 51.8852 68.1009 51.4426 68.1009 50.9006C68.1009 50.3226 67.8796 49.871 67.437 49.5458C67.0034 49.2116 66.3757 49.0445 65.5538 49.0445C64.7318 49.0445 64.0996 49.2116 63.657 49.5458C63.2234 49.871 63.0067 50.3226 63.0067 50.9006C63.0067 51.4426 63.237 51.8852 63.6976 52.2284C64.1673 52.5626 64.786 52.7297 65.5538 52.7297ZM65.5538 57.4716C66.4389 57.4716 67.1434 57.2955 67.6673 56.9432C68.1912 56.5819 68.4531 56.0761 68.4531 55.4258C68.4531 54.7664 68.1912 54.2561 67.6673 53.8948C67.1434 53.5245 66.4389 53.3393 65.5538 53.3393C64.6686 53.3393 63.9641 53.5245 63.4402 53.8948C62.9163 54.2561 62.6544 54.7664 62.6544 55.4258C62.6544 56.0761 62.9163 56.5819 63.4402 56.9432C63.9641 57.2955 64.6686 57.4716 65.5538 57.4716ZM74.151 58.1355C73.4735 58.1355 72.8368 58.0045 72.2406 57.7426C71.6535 57.4806 71.1568 57.1013 70.7503 56.6045C70.6871 56.5232 70.6555 56.4374 70.6555 56.3471C70.6555 56.2477 70.6961 56.171 70.7774 56.1168C70.8497 56.0716 70.9264 56.049 71.0077 56.049C71.1432 56.049 71.2426 56.0942 71.3058 56.1845C71.6219 56.6 72.0239 56.9206 72.5116 57.1465C73.0084 57.3632 73.5503 57.4716 74.1374 57.4716C75.0316 57.4716 75.7316 57.2232 76.2374 56.7264C76.7523 56.2297 77.0097 55.5161 77.0097 54.5858C77.0097 53.7548 76.7568 53.1181 76.251 52.6755C75.7452 52.2239 75.0948 51.9981 74.3 51.9981C73.8574 51.9981 73.4239 52.0884 72.9993 52.269C72.5839 52.4406 72.2542 52.6664 72.0103 52.9464C71.8929 53.0729 71.7935 53.1632 71.7123 53.2174C71.64 53.2716 71.5632 53.2987 71.4819 53.2987C71.3374 53.2987 71.2245 53.2581 71.1432 53.1768C71.071 53.0955 71.0439 52.9871 71.0619 52.8516L71.5903 49.3019C71.6264 49.0671 71.7258 48.8774 71.8884 48.7329C72.06 48.5884 72.2903 48.5161 72.5793 48.5161H76.8877C77.1587 48.5161 77.2942 48.6245 77.2942 48.8413C77.2942 49.049 77.1587 49.1529 76.8877 49.1529H72.7148C72.5432 49.1529 72.4213 49.189 72.349 49.2613C72.2768 49.3245 72.2271 49.4464 72.2 49.6271L71.8071 52.269C72.1593 51.9619 72.5523 51.7316 72.9858 51.5781C73.4284 51.4155 73.8935 51.3342 74.3813 51.3342C75.0045 51.3342 75.569 51.4652 76.0748 51.7271C76.5897 51.989 76.9916 52.3639 77.2806 52.8516C77.5787 53.3393 77.7277 53.9129 77.7277 54.5723C77.7277 55.2858 77.5787 55.9135 77.2806 56.4555C76.9916 56.9884 76.5761 57.4039 76.0342 57.7019C75.5013 57.991 74.8735 58.1355 74.151 58.1355ZM50.7368 76C50.24 76 49.8516 75.869 49.5716 75.6071C49.3006 75.3452 49.1652 74.9794 49.1652 74.5097V68.0064C49.1652 67.5368 49.3006 67.171 49.5716 66.909C49.8516 66.6471 50.24 66.5161 50.7368 66.5161H53.9884C54.8645 66.5161 55.5374 66.7374 56.0071 67.18C56.4858 67.6226 56.7252 68.2458 56.7252 69.0497C56.7252 69.5013 56.6078 69.8987 56.3729 70.2419C56.1381 70.5761 55.7948 70.8381 55.3432 71.0277V71.0548C55.8219 71.2264 56.1968 71.511 56.4678 71.9084C56.7478 72.2968 56.8878 72.7529 56.8878 73.2768C56.8878 74.1258 56.6439 74.7942 56.1561 75.2819C55.6684 75.7606 55 76 54.151 76H50.7368ZM54.151 70.7432C54.7019 70.7432 55.1445 70.5897 55.4787 70.2826C55.8219 69.9664 55.9936 69.5555 55.9936 69.0497C55.9936 68.4264 55.8219 67.9568 55.4787 67.6406C55.1445 67.3155 54.6478 67.1529 53.9884 67.1529H50.6555C50.4297 67.1529 50.2445 67.2297 50.1 67.3832C49.9555 67.5368 49.8832 67.731 49.8832 67.9658V70.7432H54.151ZM54.151 75.3632C54.8103 75.3632 55.3071 75.1871 55.6413 74.8348C55.9845 74.4735 56.1561 73.9542 56.1561 73.2768C56.1561 72.6987 55.971 72.2381 55.6007 71.8948C55.2394 71.5516 54.7471 71.38 54.1239 71.38H49.8832V74.5503C49.8832 74.7852 49.9555 74.9794 50.1 75.1329C50.2445 75.2865 50.4297 75.3632 50.6555 75.3632H54.151ZM59.134 71.1497C58.9444 71.1497 58.7863 71.0864 58.6598 70.96C58.5424 70.8335 58.4837 70.6755 58.4837 70.4858C58.4837 70.2961 58.5424 70.1335 58.6598 69.9981C58.7863 69.8626 58.9444 69.7948 59.134 69.7948C59.3147 69.7948 59.4727 69.8626 59.6082 69.9981C59.7527 70.1335 59.825 70.2961 59.825 70.4858C59.825 70.6664 59.7527 70.8245 59.6082 70.96C59.4727 71.0864 59.3147 71.1497 59.134 71.1497ZM59.134 75.8374C58.9444 75.8374 58.7818 75.7742 58.6463 75.6477C58.5198 75.5123 58.4566 75.3497 58.4566 75.16C58.4566 74.9794 58.5198 74.8213 58.6463 74.6858C58.7818 74.5503 58.9444 74.4826 59.134 74.4826C59.3147 74.4826 59.4727 74.5503 59.6082 74.6858C59.7527 74.8213 59.825 74.9794 59.825 75.16C59.825 75.3497 59.7573 75.5123 59.6218 75.6477C59.4863 75.7742 59.3237 75.8374 59.134 75.8374ZM66.6526 76.1355C66.4177 76.1355 66.3003 75.991 66.3003 75.7019V73.6968H61.5448C61.4364 73.6968 61.3461 73.6697 61.2738 73.6155C61.2106 73.5523 61.179 73.48 61.179 73.3987C61.179 73.3264 61.2106 73.2452 61.2738 73.1548L66.3951 66.5432C66.4855 66.4348 66.5938 66.3806 66.7203 66.3806C66.8016 66.3806 66.8693 66.4122 66.9235 66.4755C66.9867 66.5297 67.0184 66.6064 67.0184 66.7058V73.06H68.1158C68.3868 73.06 68.5222 73.1684 68.5222 73.3852C68.5222 73.5929 68.3868 73.6968 68.1158 73.6968H67.0184V75.7019C67.0184 75.991 66.8964 76.1355 66.6526 76.1355ZM66.3003 73.06V67.749L62.1816 73.06H66.3003ZM70.4407 76C70.3143 76 70.2104 75.9684 70.1291 75.9052C70.0568 75.8329 70.0207 75.7471 70.0207 75.6477C70.0207 75.5394 70.0704 75.44 70.1697 75.3497L75.291 70.8923C75.6072 70.6123 75.8285 70.3277 75.9549 70.0387C76.0904 69.7497 76.1581 69.3974 76.1581 68.9819C76.1581 68.3677 75.9459 67.8935 75.5214 67.5593C75.0968 67.2161 74.5007 67.0445 73.733 67.0445C73.1188 67.0445 72.5497 67.1619 72.0259 67.3968C71.511 67.6226 71.1046 67.9342 70.8065 68.3316C70.7433 68.4219 70.6439 68.4671 70.5085 68.4671C70.4091 68.4671 70.3323 68.4445 70.2781 68.3993C70.1968 68.3452 70.1562 68.2639 70.1562 68.1555C70.1562 68.0651 70.1878 67.9839 70.251 67.9116C70.6485 67.4329 71.1497 67.0581 71.7549 66.7871C72.3691 66.5161 73.0285 66.3806 73.733 66.3806C74.3562 66.3806 74.9027 66.489 75.3723 66.7058C75.851 66.9226 76.2214 67.2297 76.4833 67.6271C76.7452 68.0155 76.8762 68.4671 76.8762 68.9819C76.8762 69.4877 76.7768 69.9348 76.5781 70.3232C76.3794 70.7026 76.0407 71.1 75.562 71.5155L71.1452 75.3632H76.5375C76.682 75.3632 76.7859 75.3903 76.8491 75.4445C76.9123 75.4897 76.9439 75.571 76.9439 75.6884C76.9439 75.8961 76.8085 76 76.5375 76H70.4407Z" fill="#FCFEFF"/>
<path d="M5.41936 40.1355C4.51614 40.1355 3.71678 39.9323 3.02129 39.5258C2.32581 39.1194 1.78387 38.5503 1.39549 37.8187C1.01613 37.0781 0.826453 36.229 0.826453 35.2716C0.826453 34.3052 1.01613 33.4516 1.39549 32.711C1.78387 31.9703 2.32581 31.3968 3.02129 30.9903C3.71678 30.5839 4.51614 30.3806 5.41936 30.3806C6.17807 30.3806 6.87356 30.5116 7.50582 30.7735C8.13808 31.0264 8.63937 31.3787 9.00969 31.8303C9.07292 31.9026 9.10453 31.9839 9.10453 32.0742C9.10453 32.1826 9.06388 32.2639 8.98259 32.3181C8.9284 32.3632 8.85163 32.3858 8.75227 32.3858C8.61679 32.3858 8.51743 32.3406 8.45421 32.2503C8.17421 31.871 7.76324 31.5774 7.2213 31.3697C6.6884 31.1529 6.08775 31.0445 5.41936 31.0445C4.63355 31.0445 3.9471 31.2161 3.36 31.5593C2.78194 31.9026 2.33484 32.3948 2.01871 33.0361C1.71162 33.6684 1.55807 34.4135 1.55807 35.2716C1.55807 36.1297 1.71162 36.8748 2.01871 37.5071C2.33484 38.1394 2.78194 38.6271 3.36 38.9703C3.9471 39.3045 4.63355 39.4716 5.41936 39.4716C6.14194 39.4716 6.77872 39.3677 7.32969 39.16C7.88969 38.9523 8.30969 38.6542 8.58969 38.2658C8.66195 38.1664 8.76582 38.1168 8.9013 38.1168C8.97356 38.1168 9.04582 38.1439 9.11808 38.1981C9.19937 38.2613 9.24001 38.3471 9.24001 38.4555C9.24001 38.5277 9.2084 38.6045 9.14517 38.6858C8.78388 39.1284 8.26904 39.4806 7.60066 39.7426C6.93227 40.0045 6.20517 40.1355 5.41936 40.1355ZM11.4913 35.1497C11.3016 35.1497 11.1435 35.0864 11.0171 34.96C10.8997 34.8335 10.8409 34.6755 10.8409 34.4858C10.8409 34.2961 10.8997 34.1335 11.0171 33.9981C11.1435 33.8626 11.3016 33.7948 11.4913 33.7948C11.6719 33.7948 11.83 33.8626 11.9655 33.9981C12.11 34.1335 12.1822 34.2961 12.1822 34.4858C12.1822 34.6664 12.11 34.8245 11.9655 34.96C11.83 35.0864 11.6719 35.1497 11.4913 35.1497ZM11.4913 39.8374C11.3016 39.8374 11.139 39.7742 11.0035 39.6477C10.8771 39.5123 10.8139 39.3497 10.8139 39.16C10.8139 38.9794 10.8771 38.8213 11.0035 38.6858C11.139 38.5503 11.3016 38.4826 11.4913 38.4826C11.6719 38.4826 11.83 38.5503 11.9655 38.6858C12.11 38.8213 12.1822 38.9794 12.1822 39.16C12.1822 39.3497 12.1145 39.5123 11.979 39.6477C11.8435 39.7742 11.6809 39.8374 11.4913 39.8374ZM17.384 40.1355C16.6253 40.1355 15.9659 39.9413 15.4059 39.5529C14.8459 39.1555 14.4169 38.591 14.1188 37.8594C13.8208 37.1277 13.6717 36.2606 13.6717 35.2581C13.6717 34.2555 13.8208 33.3884 14.1188 32.6568C14.4169 31.9251 14.8459 31.3651 15.4059 30.9768C15.9659 30.5793 16.6253 30.3806 17.384 30.3806C18.1427 30.3806 18.802 30.5793 19.362 30.9768C19.922 31.3651 20.3511 31.9251 20.6491 32.6568C20.9472 33.3884 21.0962 34.2555 21.0962 35.2581C21.0962 36.2606 20.9472 37.1277 20.6491 37.8594C20.3511 38.591 19.922 39.1555 19.362 39.5529C18.802 39.9413 18.1427 40.1355 17.384 40.1355ZM17.384 39.4716C18.3414 39.4716 19.0775 39.1058 19.5924 38.3742C20.1162 37.6426 20.3782 36.6039 20.3782 35.2581C20.3782 33.9122 20.1162 32.8735 19.5924 32.1419C19.0775 31.4103 18.3414 31.0445 17.384 31.0445C16.4266 31.0445 15.6859 31.4103 15.162 32.1419C14.6472 32.8735 14.3898 33.9122 14.3898 35.2581C14.3898 36.6039 14.6472 37.6426 15.162 38.3742C15.6859 39.1058 16.4266 39.4716 17.384 39.4716ZM1.51742 58.1355C1.28258 58.1355 1.16516 57.991 1.16516 57.7019V51.3613C1.16516 50.431 1.42258 49.7039 1.93742 49.18C2.46129 48.6471 3.17936 48.3806 4.09162 48.3806C4.66065 48.3806 5.18001 48.5297 5.64969 48.8277C6.1284 49.1258 6.46259 49.5142 6.65227 49.9929C6.85098 49.5051 7.18066 49.1168 7.6413 48.8277C8.11098 48.5297 8.63937 48.3806 9.22646 48.3806C10.1387 48.3806 10.8523 48.6471 11.3671 49.18C11.891 49.7039 12.1529 50.431 12.1529 51.3613V57.7019C12.1529 57.991 12.031 58.1355 11.7871 58.1355C11.5523 58.1355 11.4349 57.991 11.4349 57.7019V51.3613C11.4349 50.5845 11.2542 50.0064 10.8929 49.6271C10.5316 49.2477 9.97614 49.0581 9.22646 49.0581C8.54001 49.0581 7.99808 49.2658 7.60066 49.6813C7.20324 50.0877 7.00453 50.6477 7.00453 51.3613V57.7019C7.00453 57.991 6.88711 58.1355 6.65227 58.1355C6.42646 58.1355 6.31356 57.991 6.31356 57.7019V51.3613C6.31356 50.6658 6.11033 50.1103 5.70388 49.6948C5.29743 49.2703 4.76001 49.0581 4.09162 49.0581C3.34194 49.0581 2.78646 49.2477 2.42516 49.6271C2.06387 50.0064 1.88323 50.5845 1.88323 51.3613V57.7019C1.88323 57.991 1.76129 58.1355 1.51742 58.1355ZM14.7461 53.1497C14.5564 53.1497 14.3983 53.0864 14.2719 52.96C14.1544 52.8335 14.0957 52.6755 14.0957 52.4858C14.0957 52.2961 14.1544 52.1335 14.2719 51.9981C14.3983 51.8626 14.5564 51.7948 14.7461 51.7948C14.9267 51.7948 15.0848 51.8626 15.2203 51.9981C15.3648 52.1335 15.437 52.2961 15.437 52.4858C15.437 52.6664 15.3648 52.8245 15.2203 52.96C15.0848 53.0864 14.9267 53.1497 14.7461 53.1497ZM14.7461 57.8374C14.5564 57.8374 14.3938 57.7742 14.2583 57.6477C14.1319 57.5123 14.0686 57.3497 14.0686 57.16C14.0686 56.9794 14.1319 56.8213 14.2583 56.6858C14.3938 56.5503 14.5564 56.4826 14.7461 56.4826C14.9267 56.4826 15.0848 56.5503 15.2203 56.6858C15.3648 56.8213 15.437 56.9794 15.437 57.16C15.437 57.3497 15.3693 57.5123 15.2338 57.6477C15.0983 57.7742 14.9357 57.8374 14.7461 57.8374ZM20.7607 58.1355C19.5323 58.1355 18.5839 57.711 17.9155 56.8619C17.2562 56.0039 16.9265 54.7981 16.9265 53.2445C16.9265 52.2419 17.0755 51.3748 17.3736 50.6432C17.6807 49.9116 18.1233 49.3516 18.7014 48.9632C19.2794 48.5748 19.9704 48.3806 20.7743 48.3806C21.3975 48.3806 21.9575 48.471 22.4543 48.6516C22.951 48.8232 23.4117 49.1032 23.8362 49.4916C23.9085 49.5639 23.9446 49.6451 23.9446 49.7355C23.9446 49.8258 23.9085 49.9071 23.8362 49.9793C23.773 50.0426 23.6962 50.0742 23.6059 50.0742C23.5065 50.0742 23.4072 50.0335 23.3078 49.9522C22.9194 49.6361 22.5355 49.4058 22.1562 49.2613C21.7859 49.1168 21.3252 49.0445 20.7743 49.0445C19.7265 49.0445 18.9452 49.4284 18.4304 50.1961C17.9155 50.9639 17.6581 52.0477 17.6581 53.4477L17.6852 53.4613C17.9923 52.8923 18.3943 52.4361 18.891 52.0929C19.3968 51.7497 20.0201 51.5781 20.7607 51.5781C21.4833 51.5781 22.093 51.7226 22.5897 52.0116C23.0956 52.3006 23.4749 52.689 23.7278 53.1768C23.9897 53.6645 24.1207 54.2064 24.1207 54.8026C24.1207 55.4348 23.9852 56.0039 23.7143 56.5097C23.4433 57.0155 23.0504 57.4129 22.5355 57.7019C22.0297 57.991 21.4381 58.1355 20.7607 58.1355ZM20.7607 57.4716C21.5826 57.4716 22.2285 57.2368 22.6981 56.7671C23.1678 56.2974 23.4026 55.6606 23.4026 54.8568C23.4026 54.0529 23.1678 53.4161 22.6981 52.9464C22.2285 52.4768 21.5826 52.2419 20.7607 52.2419C20.2459 52.2419 19.7717 52.3639 19.3381 52.6077C18.9046 52.8516 18.5568 53.1813 18.2949 53.5968C18.042 54.0032 17.9155 54.4503 17.9155 54.9381C17.9155 55.4348 18.042 55.8774 18.2949 56.2658C18.5478 56.6452 18.891 56.9432 19.3246 57.16C19.7672 57.3677 20.2459 57.4716 20.7607 57.4716ZM28.3021 58.1355C28.0673 58.1355 27.9498 57.991 27.9498 57.7019V49.2477L26.0395 49.9793C25.9672 50.0064 25.904 50.02 25.8498 50.02C25.7685 50.02 25.6963 50.0019 25.6331 49.9658C25.5698 49.9206 25.5247 49.8664 25.4976 49.8032C25.4795 49.749 25.4705 49.7039 25.4705 49.6677C25.4705 49.5955 25.4931 49.5277 25.5382 49.4645C25.5924 49.4013 25.6647 49.3516 25.755 49.3155L28.1395 48.4213C28.2027 48.3942 28.266 48.3806 28.3292 48.3806C28.4285 48.3806 28.5098 48.4213 28.5731 48.5026C28.6363 48.5748 28.6679 48.6742 28.6679 48.8006V57.7019C28.6679 57.991 28.546 58.1355 28.3021 58.1355ZM8.0884 66.3806C8.32324 66.3806 8.44066 66.5251 8.44066 66.8142V68.6161C8.44066 69.3839 8.29162 70.0793 7.99356 70.7026C7.70453 71.3258 7.29807 71.8271 6.7742 72.2064C6.25033 72.5858 5.65872 72.8071 4.99936 72.8703V75.7019C4.99936 75.991 4.87743 76.1355 4.63355 76.1355C4.39872 76.1355 4.2813 75.991 4.2813 75.7019V72.8703C3.58581 72.8161 2.97613 72.6084 2.45226 72.2471C1.93742 71.8768 1.53549 71.38 1.24645 70.7568C0.966453 70.1335 0.826453 69.42 0.826453 68.6161V66.8142C0.826453 66.5251 0.943872 66.3806 1.17871 66.3806C1.42258 66.3806 1.54452 66.5251 1.54452 66.8142V68.6568C1.54452 69.7768 1.81549 70.6529 2.35742 71.2852C2.90839 71.9084 3.6671 72.22 4.63355 72.22C5.59098 72.22 6.34517 71.9039 6.89614 71.2716C7.44711 70.6303 7.72259 69.7587 7.72259 68.6568V66.8142C7.72259 66.5251 7.84453 66.3806 8.0884 66.3806ZM10.6842 71.1497C10.4945 71.1497 10.3364 71.0864 10.21 70.96C10.0926 70.8335 10.0339 70.6755 10.0339 70.4858C10.0339 70.2961 10.0926 70.1335 10.21 69.9981C10.3364 69.8626 10.4945 69.7948 10.6842 69.7948C10.8648 69.7948 11.0229 69.8626 11.1584 69.9981C11.3029 70.1335 11.3752 70.2961 11.3752 70.4858C11.3752 70.6664 11.3029 70.8245 11.1584 70.96C11.0229 71.0864 10.8648 71.1497 10.6842 71.1497ZM10.6842 75.8374C10.4945 75.8374 10.3319 75.7742 10.1964 75.6477C10.07 75.5123 10.0068 75.3497 10.0068 75.16C10.0068 74.9794 10.07 74.8213 10.1964 74.6858C10.3319 74.5503 10.4945 74.4826 10.6842 74.4826C10.8648 74.4826 11.0229 74.5503 11.1584 74.6858C11.3029 74.8213 11.3752 74.9794 11.3752 75.16C11.3752 75.3497 11.3074 75.5123 11.1719 75.6477C11.0364 75.7742 10.8739 75.8374 10.6842 75.8374ZM16.4821 76.1355C15.8046 76.1355 15.1904 76.0271 14.6395 75.8103C14.0885 75.5935 13.655 75.2819 13.3388 74.8755C13.0227 74.46 12.8646 73.9768 12.8646 73.4258C12.8646 72.8387 13.0498 72.3419 13.4201 71.9355C13.7904 71.529 14.3008 71.2219 14.9511 71.0142V71.0006C14.3911 70.811 13.9621 70.5355 13.664 70.1742C13.3659 69.8129 13.2169 69.3884 13.2169 68.9006C13.2169 68.4219 13.3343 67.9929 13.5692 67.6135C13.813 67.2342 14.1788 66.9361 14.6666 66.7193C15.1543 66.4935 15.7595 66.3806 16.4821 66.3806C17.2046 66.3806 17.8098 66.4935 18.2975 66.7193C18.7853 66.9361 19.1466 67.2342 19.3814 67.6135C19.6253 67.9929 19.7472 68.4219 19.7472 68.9006C19.7472 69.3884 19.5982 69.8129 19.3001 70.1742C19.0021 70.5355 18.573 70.811 18.013 71.0006V71.0142C18.6634 71.2219 19.1737 71.529 19.544 71.9355C19.9143 72.3419 20.0995 72.8387 20.0995 73.4258C20.0995 73.9768 19.9414 74.46 19.6253 74.8755C19.3092 75.2819 18.8756 75.5935 18.3246 75.8103C17.7737 76.0271 17.1595 76.1355 16.4821 76.1355ZM16.4821 70.7297C17.2498 70.7297 17.864 70.5626 18.3246 70.2284C18.7943 69.8852 19.0292 69.4426 19.0292 68.9006C19.0292 68.3226 18.8079 67.871 18.3653 67.5458C17.9317 67.2116 17.304 67.0445 16.4821 67.0445C15.6601 67.0445 15.0279 67.2116 14.5853 67.5458C14.1517 67.871 13.935 68.3226 13.935 68.9006C13.935 69.4426 14.1653 69.8852 14.6259 70.2284C15.0956 70.5626 15.7143 70.7297 16.4821 70.7297ZM16.4821 75.4716C17.3672 75.4716 18.0717 75.2955 18.5956 74.9432C19.1195 74.5819 19.3814 74.0761 19.3814 73.4258C19.3814 72.7664 19.1195 72.2561 18.5956 71.8948C18.0717 71.5245 17.3672 71.3393 16.4821 71.3393C15.5969 71.3393 14.8924 71.5245 14.3685 71.8948C13.8446 72.2561 13.5827 72.7664 13.5827 73.4258C13.5827 74.0761 13.8446 74.5819 14.3685 74.9432C14.8924 75.2955 15.5969 75.4716 16.4821 75.4716ZM24.2799 76.1355C24.0451 76.1355 23.9276 75.991 23.9276 75.7019V67.2477L22.0173 67.9793C21.9451 68.0064 21.8818 68.02 21.8276 68.02C21.7464 68.02 21.6741 68.0019 21.6109 67.9658C21.5476 67.9206 21.5025 67.8664 21.4754 67.8032C21.4573 67.749 21.4483 67.7039 21.4483 67.6677C21.4483 67.5955 21.4709 67.5277 21.516 67.4645C21.5702 67.4013 21.6425 67.3516 21.7328 67.3155L24.1173 66.4213C24.1806 66.3942 24.2438 66.3806 24.307 66.3806C24.4064 66.3806 24.4876 66.4213 24.5509 66.5026C24.6141 66.5748 24.6457 66.6742 24.6457 66.8006V75.7019C24.6457 75.991 24.5238 76.1355 24.2799 76.1355ZM8.10195 94.1355C8.02066 94.1355 7.9484 94.1084 7.88517 94.0542C7.83098 94 7.79485 93.9277 7.77678 93.8374C7.54195 92.7626 7.09936 91.8142 6.44904 90.9923C5.80775 90.1613 4.9271 89.4252 3.8071 88.7839L1.95097 90.3284V93.7019C1.95097 93.991 1.82903 94.1355 1.58516 94.1355C1.35032 94.1355 1.2329 93.991 1.2329 93.7019V84.8142C1.2329 84.5251 1.35032 84.3806 1.58516 84.3806C1.82903 84.3806 1.95097 84.5251 1.95097 84.8142V89.4613L7.69549 84.5297C7.74066 84.4845 7.80388 84.4619 7.88517 84.4619C7.97549 84.4619 8.05679 84.4981 8.12904 84.5703C8.19227 84.6335 8.22388 84.7103 8.22388 84.8006C8.22388 84.9 8.18775 84.9813 8.1155 85.0445L4.30839 88.3774C5.48259 89.0819 6.40388 89.8723 7.07227 90.7484C7.74066 91.6155 8.18775 92.6 8.41356 93.7019C8.43162 93.8194 8.40904 93.9187 8.34582 94C8.29162 94.0903 8.21033 94.1355 8.10195 94.1355ZM10.671 89.1497C10.4813 89.1497 10.3232 89.0864 10.1968 88.96C10.0793 88.8335 10.0206 88.6755 10.0206 88.4858C10.0206 88.2961 10.0793 88.1335 10.1968 87.9981C10.3232 87.8626 10.4813 87.7948 10.671 87.7948C10.8516 87.7948 11.0097 87.8626 11.1452 87.9981C11.2897 88.1335 11.3619 88.2961 11.3619 88.4858C11.3619 88.6664 11.2897 88.8245 11.1452 88.96C11.0097 89.0864 10.8516 89.1497 10.671 89.1497ZM10.671 93.8374C10.4813 93.8374 10.3187 93.7742 10.1832 93.6477C10.0568 93.5123 9.99354 93.3497 9.99354 93.16C9.99354 92.9794 10.0568 92.8213 10.1832 92.6858C10.3187 92.5503 10.4813 92.4826 10.671 92.4826C10.8516 92.4826 11.0097 92.5503 11.1452 92.6858C11.2897 92.8213 11.3619 92.9794 11.3619 93.16C11.3619 93.3497 11.2942 93.5123 11.1587 93.6477C11.0232 93.7742 10.8606 93.8374 10.671 93.8374ZM15.5475 94.1355C15.3127 94.1355 15.1953 93.991 15.1953 93.7019V85.2477L13.285 85.9793C13.2127 86.0064 13.1495 86.02 13.0953 86.02C13.014 86.02 12.9417 86.0019 12.8785 85.9658C12.8153 85.9206 12.7701 85.8664 12.743 85.8032C12.725 85.749 12.7159 85.7039 12.7159 85.6677C12.7159 85.5955 12.7385 85.5277 12.7837 85.4645C12.8379 85.4013 12.9101 85.3516 13.0004 85.3155L15.385 84.4213C15.4482 84.3942 15.5114 84.3806 15.5746 84.3806C15.674 84.3806 15.7553 84.4213 15.8185 84.5026C15.8817 84.5748 15.9133 84.6742 15.9133 84.8006V93.7019C15.9133 93.991 15.7914 94.1355 15.5475 94.1355ZM21.3085 94.1355C20.631 94.1355 19.9943 94.0045 19.3981 93.7426C18.811 93.4806 18.3143 93.1013 17.9078 92.6045C17.8446 92.5232 17.813 92.4374 17.813 92.3471C17.813 92.2477 17.8536 92.171 17.9349 92.1168C18.0072 92.0716 18.0839 92.049 18.1652 92.049C18.3007 92.049 18.4001 92.0942 18.4633 92.1845C18.7794 92.6 19.1814 92.9206 19.6691 93.1465C20.1659 93.3632 20.7078 93.4716 21.2949 93.4716C22.1891 93.4716 22.8891 93.2232 23.3949 92.7264C23.9098 92.2297 24.1672 91.5161 24.1672 90.5858C24.1672 89.7548 23.9143 89.1181 23.4085 88.6755C22.9027 88.2239 22.2523 87.9981 21.4575 87.9981C21.0149 87.9981 20.5814 88.0884 20.1569 88.269C19.7414 88.4406 19.4117 88.6664 19.1678 88.9464C19.0504 89.0729 18.951 89.1632 18.8698 89.2174C18.7975 89.2716 18.7207 89.2987 18.6394 89.2987C18.4949 89.2987 18.382 89.2581 18.3007 89.1768C18.2285 89.0955 18.2014 88.9871 18.2194 88.8516L18.7478 85.3019C18.7839 85.0671 18.8833 84.8774 19.0459 84.7329C19.2175 84.5884 19.4478 84.5161 19.7369 84.5161H24.0452C24.3162 84.5161 24.4517 84.6245 24.4517 84.8413C24.4517 85.049 24.3162 85.1529 24.0452 85.1529H19.8723C19.7007 85.1529 19.5788 85.189 19.5065 85.2613C19.4343 85.3245 19.3846 85.4464 19.3575 85.6271L18.9646 88.269C19.3169 87.9619 19.7098 87.7316 20.1433 87.5781C20.5859 87.4155 21.051 87.3342 21.5388 87.3342C22.162 87.3342 22.7265 87.4652 23.2323 87.7271C23.7472 87.989 24.1491 88.3639 24.4381 88.8516C24.7362 89.3393 24.8852 89.9129 24.8852 90.5723C24.8852 91.2858 24.7362 91.9135 24.4381 92.4555C24.1491 92.9884 23.7336 93.4039 23.1917 93.7019C22.6588 93.991 22.031 94.1355 21.3085 94.1355Z" fill="#FCFEFF"/>
</svg>
