<svg id="Camada_1" data-name="Camada 1" xmlns="http://www.w3.org/2000/svg" viewBox="0 0 242.96 463.88"><defs><style>.cls-1{stroke:#000;}</style></defs><path class="cls-1" d="M152.19.5h10a114.37,114.37,0,0,1,29.46,3.82,62.51,62.51,0,0,1,25.7,12.1q11.3,8.28,18.18,22.92t6.9,37.56V290.83q0,22.29-6.27,38.2a73,73,0,0,1-16.92,25.47,64.17,64.17,0,0,1-23.82,15.28,87.45,87.45,0,0,1-28.21,4.46h-7.52L152.19,373Zm-79.6,284A75.62,75.62,0,0,1,45,279.37a75.47,75.47,0,0,1-22.57-15.92,85.76,85.76,0,0,1-16.3-26.1Q.5,221.44.5,200.42V.5H13.66q38.24,0,57.67,21Q90.77,41.88,90.76,88.36v90.41q0,7.65.63,14.65a56.78,56.78,0,0,0,3.76,12.73,32.8,32.8,0,0,0,8.15,8.92q5.64,3.18,15,3.18a41,41,0,0,0,10-1.27,29.63,29.63,0,0,0,10-5.73,102.84,102.84,0,0,1-3.76,28,66.19,66.19,0,0,1-11.91,22.92,62,62,0,0,1-20.68,16.55Q89.51,284.48,72.59,284.47ZM47.51,402.25q0-19.72,6.9-31.83,6.89-12.74,16.92-19.74a57.14,57.14,0,0,1,21.94-8.91A100.78,100.78,0,0,1,114,339.22a60.18,60.18,0,0,1,8.77.64q5,0,6.27.63v29.29q0,13.38,6.27,19.74a21.11,21.11,0,0,0,15.67,6.37A29.7,29.7,0,0,0,171,388.25a27.72,27.72,0,0,1,1.88,9.55,55.27,55.27,0,0,1,.63,8.91q0,7.64-3.76,17.83A55.74,55.74,0,0,1,159.09,443q-6.9,8.28-18.81,14.65-11.28,5.73-27.58,5.73-16.92,0-29.46-5.73a71.09,71.09,0,0,1-20.06-14A73,73,0,0,1,51.27,423.9,65.75,65.75,0,0,1,47.51,402.25Z"/></svg>