<svg id="Camada_1" data-name="Camada 1" xmlns="http://www.w3.org/2000/svg" xmlns:xlink="http://www.w3.org/1999/xlink" viewBox="0 0 1392.09 525.33"><defs><style>.cls-1{fill:url(#Gradiente_sem_nome_2);}.cls-2{fill:#1c0d10;}</style><linearGradient id="Gradiente_sem_nome_2" x1="388.11" y1="-5729.38" x2="-52.22" y2="-5153.56" gradientTransform="matrix(1, 0, 0, -1, 0, -5174.06)" gradientUnits="userSpaceOnUse"><stop offset="0" stop-color="#201e1d"/><stop offset="1" stop-color="#586874"/></linearGradient></defs><path class="cls-1" d="M174.87,0h11.56a134,134,0,0,1,34,4.34A72.59,72.59,0,0,1,250,18.07q13,9.39,21,26t7.94,42.63v242.8q0,25.29-7.22,43.35a82.83,82.83,0,0,1-19.51,28.91,74.16,74.16,0,0,1-27.46,17.34,102.29,102.29,0,0,1-32.52,5.06h-8.67l-8.67-1.45ZM83.1,322.28a88.68,88.68,0,0,1-31.8-5.78,87.27,87.27,0,0,1-26-18.07A97.2,97.2,0,0,1,6.5,268.81Q0,250.75,0,226.9V0H15.17Q59.26,0,81.65,23.85,104.06,47,104.05,99.72V202.33q0,8.67.73,16.62a63.47,63.47,0,0,0,4.33,14.45,37.38,37.38,0,0,0,9.4,10.12q6.49,3.61,17.34,3.61a47.66,47.66,0,0,0,11.56-1.44A34.22,34.22,0,0,0,159,239.18a115.25,115.25,0,0,1-4.33,31.8,75.11,75.11,0,0,1-13.73,26,71.24,71.24,0,0,1-23.85,18.79Q102.62,322.28,83.1,322.28ZM54.2,456q0-22.4,7.94-36.13,8-14.44,19.51-22.4A66.36,66.36,0,0,1,107,387.32a117.83,117.83,0,0,1,23.84-2.9,71.77,71.77,0,0,1,10.12.73q5.78,0,7.22.72v33.24q0,15.18,7.23,22.4a24.51,24.51,0,0,0,18.07,7.23,34.53,34.53,0,0,0,23.12-8.67,31,31,0,0,1,2.17,10.83,62.55,62.55,0,0,1,.72,10.12q0,8.67-4.34,20.23a62.93,62.93,0,0,1-12.28,21q-7.95,9.39-21.68,16.62-13,6.49-31.79,6.5-19.51,0-34-6.5a82,82,0,0,1-23.12-15.9,82.34,82.34,0,0,1-13.73-22.4A73.42,73.42,0,0,1,54.2,456Z"/><path class="cls-2" d="M380.29,247.81a6.56,6.56,0,0,1-4.87-1.81,7.72,7.72,0,0,1-1.81-5.42V141.22q0-10.11,6-15.89,6.15-5.79,17-5.78h56q7.05,0,7.05,5.78a4.79,4.79,0,0,1-1.81,4,8.24,8.24,0,0,1-5.24,1.45H396.73a9.18,9.18,0,0,0-7,2.89,11.06,11.06,0,0,0-2.53,7.58v36.31h51.66q7.05,0,7.05,5.78a4.81,4.81,0,0,1-2,4.16,7.92,7.92,0,0,1-5.06,1.45H387.16v51.66a7.72,7.72,0,0,1-1.81,5.42A6.81,6.81,0,0,1,380.29,247.81Zm175,0a67.71,67.71,0,0,1-32.88-7.95,59.63,59.63,0,0,1-23.13-22.94Q491,202.1,491,182.77q0-19.5,8.31-34.14a58.31,58.31,0,0,1,23.13-22.76,70.53,70.53,0,0,1,65.75,0,57.12,57.12,0,0,1,22.95,22.76q8.49,14.64,8.49,34.14,0,19.33-8.49,34.15a58.4,58.4,0,0,1-22.95,22.94A67.7,67.7,0,0,1,555.33,247.81Zm0-11.56a52.62,52.62,0,0,0,26-6.33,44.57,44.57,0,0,0,18.06-18.24q6.69-12.1,6.69-28.91,0-17-6.87-29.08a44.08,44.08,0,0,0-18.42-18.25A54.27,54.27,0,0,0,555,129.3a53.38,53.38,0,0,0-26,6.32,44.71,44.71,0,0,0-17.88,18.43q-6.51,12.1-6.51,28.72,0,16.8,6.51,28.91a46.07,46.07,0,0,0,18.06,18.24A53.66,53.66,0,0,0,555.33,236.25Zm163.36,11.56q-16.07,0-28-6.33a43.26,43.26,0,0,1-18.07-18.24q-6.32-11.93-6.32-28.36V125a7.07,7.07,0,0,1,1.81-5.24,6.25,6.25,0,0,1,4.88-2,6.46,6.46,0,0,1,5,2,7.07,7.07,0,0,1,1.81,5.24v70.45q0,19.52,10.3,30.17t28.9,10.66q18.8,0,29.27-10.66Q759,214.75,759,195.42V125a7.1,7.1,0,0,1,1.8-5.24,6.84,6.84,0,0,1,5.06-2,5.92,5.92,0,0,1,4.88,2,7.11,7.11,0,0,1,1.81,5.24v69.91q0,15.88-6.51,28a44.64,44.64,0,0,1-18.79,18.42Q735.13,247.81,718.69,247.81Zm111,0a6.58,6.58,0,0,1-4.88-1.81,7.77,7.77,0,0,1-1.81-5.42v-73.7q0-15,6.32-26a43.09,43.09,0,0,1,18.43-17.16q11.92-6,28-6t27.82,6a42,42,0,0,1,18.25,17.16q6.51,11,6.5,26v73.7a7.72,7.72,0,0,1-1.81,5.42,6.2,6.2,0,0,1-4.87,1.81,7.2,7.2,0,0,1-5.06-1.81,7.72,7.72,0,0,1-1.81-5.42V166.33q0-17.52-10.29-27.27t-28.73-9.76q-18.06,0-28.72,9.94-10.47,9.93-10.48,27.09v74.25a7.72,7.72,0,0,1-1.81,5.42A6.8,6.8,0,0,1,829.67,247.81ZM1003,246q-11,0-17.16-5.78-6.15-6-6.14-16.26V141.22q0-10.11,6-15.89,6.15-5.79,17-5.78h25.29q18.8,0,32.7,7.94a53.09,53.09,0,0,1,21.67,22q7.59,14.28,7.6,33.42t-7.6,33.42a53.31,53.31,0,0,1-21.67,21.86q-13.92,7.77-32.7,7.77Zm23.13-11.2q23.84,0,36.85-13.55,13.17-13.55,13.19-38.3T1063,144.48q-13.18-13.74-36.85-13.73h-23.31a9.22,9.22,0,0,0-7,2.89,11.1,11.1,0,0,0-2.52,7.58v83.1a11.15,11.15,0,0,0,2.52,7.59,9.22,9.22,0,0,0,7,2.89Zm111.11-92.67q0-10.31,6-16.44,6.15-6.15,17.7-6.14h33.79q49.13,0,49.13,40.82,0,19.69-11.92,29.81t-36,10.12l35,36.31a5.64,5.64,0,0,1,1.63,4.15,6.2,6.2,0,0,1-2.71,5.24,7.49,7.49,0,0,1-4.52,1.63q-3.62,0-6.87-3.62L1177,200.3h-24.39V240a7.82,7.82,0,0,1-2.17,5.78,8.87,8.87,0,0,1-11.2,0,8.23,8.23,0,0,1-2-5.78Zm58.35,45.7q16.62,0,24.57-6.14,8.13-6.33,8.13-21.32,0-15.17-8.13-21.68Q1212,132,1195.58,132H1161.8a8.68,8.68,0,0,0-6.68,2.71,10.43,10.43,0,0,0-2.53,7.41v45.7Zm189.83-70.09a6.27,6.27,0,0,1,4.88,2,7.1,7.1,0,0,1,1.8,5.24v22.58a65.42,65.42,0,0,1-5.78,27.82,49.2,49.2,0,0,1-16.08,19.87,50.4,50.4,0,0,1-24,9.21v36.13a7.72,7.72,0,0,1-1.81,5.42,6.81,6.81,0,0,1-5.06,1.81,6.56,6.56,0,0,1-4.87-1.81,7.72,7.72,0,0,1-1.81-5.42V204.45a50.63,50.63,0,0,1-24.57-8.85,48.43,48.43,0,0,1-15.9-19.69q-5.6-12.28-5.6-28.36V125a7.07,7.07,0,0,1,1.81-5.24,6.25,6.25,0,0,1,4.88-2,6.46,6.46,0,0,1,5,2,7.07,7.07,0,0,1,1.81,5.24v23.12q0,21.32,10.3,33.24,10.47,11.92,28.9,11.92,18.26,0,28.73-11.92,10.47-12.11,10.47-33.24V125a7.07,7.07,0,0,1,1.81-5.24A6.84,6.84,0,0,1,1385.41,117.74Z"/><path class="cls-2" d="M396.69,426.65q-13.72,0-21.32-7.23t-7.58-20.23V326.93q0-12.65,7.22-19.69,7.41-7,20.42-7.05h25.29q20.77,0,35.95,7.59a52.84,52.84,0,0,1,23.12,21.86q8.13,14.26,8.13,34t-8.13,34a53.07,53.07,0,0,1-23.12,21.68q-15,7.41-35.95,7.41ZM418.91,408q22.59,0,33.6-10.84,11-11,11-33.6T452.33,330q-11-11.21-33.42-11.2H399.58a7.48,7.48,0,0,0-5.78,2.35,9.77,9.77,0,0,0-2,6.5v71.54a9.77,9.77,0,0,0,2,6.5,7.48,7.48,0,0,0,5.78,2.35Zm121.87,20.24a12.57,12.57,0,0,1-8.67-2.9,10.05,10.05,0,0,1-3.25-7.94V354.21q0-26.19,15-41t41.73-14.81q17.52,0,30.35,6.68a45.19,45.19,0,0,1,19.51,19.33q6.87,12.64,6.86,29.81v63.23a10.05,10.05,0,0,1-3.25,7.94,12.55,12.55,0,0,1-8.67,2.9,13.26,13.26,0,0,1-8.85-2.9,10.4,10.4,0,0,1-3.25-7.94V388h-65.4v29.45a10.14,10.14,0,0,1-3.43,7.94A12.57,12.57,0,0,1,540.78,428.28Zm77.5-58.9V353.67q0-18.07-8.31-27.1-8.13-9.21-24.39-9.21-32.7,0-32.7,36.31v15.71Zm130,59.08q-21.15,0-36.49-8.13a56.57,56.57,0,0,1-23.13-22.95q-8-14.81-8-34t8-33.78a55.15,55.15,0,0,1,23.13-22.94q15.34-8.31,36.49-8.31t36.3,8.31a54.91,54.91,0,0,1,23.31,22.94q8,14.64,8,33.78t-8,34a56.31,56.31,0,0,1-23.31,22.95Q769.46,428.46,748.32,428.46Zm0-19q20.59,0,32-12.29,11.38-12.46,11.38-33.78,0-21.5-11.92-33.78Q768,317.36,746.51,317.36q-19.69,0-30.71,12.64Q705,342.47,705,363.42q0,21.32,11.38,33.78Q727.72,409.49,748.32,409.49Z"/></svg>