<svg id="Camada_1" data-name="Camada 1" xmlns="http://www.w3.org/2000/svg" xmlns:xlink="http://www.w3.org/1999/xlink" viewBox="0 0 278.92 525.33"><defs><style>.cls-1{fill:url(#Gradiente_sem_nome_2);}</style><linearGradient id="Gradiente_sem_nome_2" x1="388.11" y1="-1497.41" x2="-52.22" y2="-921.59" gradientTransform="matrix(1, 0, 0, -1, 0, -942.09)" gradientUnits="userSpaceOnUse"><stop offset="0" stop-color="#201e1d"/><stop offset="1" stop-color="#586874"/></linearGradient></defs><path class="cls-1" d="M174.87,0h11.56a134,134,0,0,1,34,4.34A72.59,72.59,0,0,1,250,18.07q13,9.39,21,26t7.94,42.63v242.8q0,25.29-7.22,43.35a82.83,82.83,0,0,1-19.51,28.91,74.16,74.16,0,0,1-27.46,17.34,102.29,102.29,0,0,1-32.52,5.06h-8.67l-8.67-1.45ZM83.1,322.28a88.68,88.68,0,0,1-31.8-5.78,87.27,87.27,0,0,1-26-18.07A97.2,97.2,0,0,1,6.5,268.81Q0,250.75,0,226.9V0H15.17Q59.26,0,81.65,23.85,104.06,47,104.05,99.72V202.33q0,8.67.73,16.62a63.47,63.47,0,0,0,4.33,14.45,37.38,37.38,0,0,0,9.4,10.12q6.49,3.61,17.34,3.61a47.66,47.66,0,0,0,11.56-1.44A34.22,34.22,0,0,0,159,239.18a115.25,115.25,0,0,1-4.33,31.8,75.11,75.11,0,0,1-13.73,26,71.24,71.24,0,0,1-23.85,18.79Q102.62,322.28,83.1,322.28ZM54.2,456q0-22.4,7.94-36.13,8-14.44,19.51-22.4A66.36,66.36,0,0,1,107,387.32a117.83,117.83,0,0,1,23.84-2.9,71.77,71.77,0,0,1,10.12.73q5.78,0,7.22.72v33.24q0,15.18,7.23,22.4a24.51,24.51,0,0,0,18.07,7.23,34.53,34.53,0,0,0,23.12-8.67,31,31,0,0,1,2.17,10.83,62.55,62.55,0,0,1,.72,10.12q0,8.67-4.34,20.23a62.93,62.93,0,0,1-12.28,21q-7.95,9.39-21.68,16.62-13,6.49-31.79,6.5-19.51,0-34-6.5a82,82,0,0,1-23.12-15.9,82.34,82.34,0,0,1-13.73-22.4A73.42,73.42,0,0,1,54.2,456Z"/></svg>