<?xml version="1.0" standalone="yes"?>
<svg xmlns="http://www.w3.org/2000/svg" width="96" height="96">
<path style="fill:#1f43bf; stroke:none;" d="M0 0L0 96L96 96L96 0L0 0z"/>
<path style="fill:#ffffff; stroke:none;" d="M40 8L40 44L25 44C28.6748 49.2168 41.2358 65.7932 48 65.7932C54.7642 65.7932 67.3252 49.2168 71 44L56 44L56 8L40 8z"/>
<path style="fill:#899bdd; stroke:none;" d="M24 44L25 45L24 44z"/>
<path style="fill:#8fa1df; stroke:none;" d="M71 44L72 45L71 44z"/>
<path style="fill:#899bdd; stroke:none;" d="M25 45L26 46L25 45z"/>
<path style="fill:#8fa1df; stroke:none;" d="M70 45L71 46L70 45z"/>
<path style="fill:#899bdd; stroke:none;" d="M26 46L27 47L26 46z"/>
<path style="fill:#8fa1df; stroke:none;" d="M69 46L70 47L69 46z"/>
<path style="fill:#899bdd; stroke:none;" d="M27 47L28 48L27 47z"/>
<path style="fill:#8fa1df; stroke:none;" d="M68 47L69 48L68 47z"/>
<path style="fill:#899bdd; stroke:none;" d="M28 48L29 49L28 48z"/>
<path style="fill:#8fa1df; stroke:none;" d="M67 48L68 49L67 48z"/>
<path style="fill:#899bdd; stroke:none;" d="M29 49L30 50L29 49z"/>
<path style="fill:#8fa1df; stroke:none;" d="M66 49L67 50L66 49z"/>
<path style="fill:#899bdd; stroke:none;" d="M30 50L31 51L30 50z"/>
<path style="fill:#8fa1df; stroke:none;" d="M65 50L66 51L65 50z"/>
<path style="fill:#899bdd; stroke:none;" d="M31 51L32 52L31 51z"/>
<path style="fill:#8fa1df; stroke:none;" d="M64 51L65 52L64 51z"/>
<path style="fill:#899bdd; stroke:none;" d="M32 52L33 53L32 52z"/>
<path style="fill:#8fa1df; stroke:none;" d="M63 52L64 53L63 52z"/>
<path style="fill:#899bdd; stroke:none;" d="M33 53L34 54L33 53z"/>
<path style="fill:#8fa1df; stroke:none;" d="M62 53L63 54L62 53z"/>
<path style="fill:#899bdd; stroke:none;" d="M34 54L35 55L34 54z"/>
<path style="fill:#8fa1df; stroke:none;" d="M61 54L62 55L61 54z"/>
<path style="fill:#899bdd; stroke:none;" d="M35 55L36 56L35 55z"/>
<path style="fill:#8fa1df; stroke:none;" d="M60 55L61 56L60 55z"/>
<path style="fill:#899bdd; stroke:none;" d="M36 56L37 57L36 56z"/>
<path style="fill:#8fa1df; stroke:none;" d="M59 56L60 57L59 56z"/>
<path style="fill:#899bdd; stroke:none;" d="M37 57L38 58L37 57z"/>
<path style="fill:#8fa1df; stroke:none;" d="M58 57L59 58L58 57z"/>
<path style="fill:#899bdd; stroke:none;" d="M38 58L39 59L38 58z"/>
<path style="fill:#8fa1df; stroke:none;" d="M57 58L58 59L57 58z"/>
<path style="fill:#899bdd; stroke:none;" d="M39 59L40 60L39 59z"/>
<path style="fill:#8fa1df; stroke:none;" d="M56 59L57 60L56 59z"/>
<path style="fill:#899bdd; stroke:none;" d="M40 60L41 61L40 60z"/>
<path style="fill:#8fa1df; stroke:none;" d="M55 60L56 61L55 60z"/>
<path style="fill:#899bdd; stroke:none;" d="M41 61L42 62L41 61z"/>
<path style="fill:#8fa1df; stroke:none;" d="M54 61L55 62L54 61z"/>
<path style="fill:#899bdd; stroke:none;" d="M42 62L43 63L42 62z"/>
<path style="fill:#8fa1df; stroke:none;" d="M53 62L54 63L53 62z"/>
<path style="fill:#899bdd; stroke:none;" d="M43 63L44 64L43 63z"/>
<path style="fill:#8fa1df; stroke:none;" d="M52 63L53 64L52 63z"/>
<path style="fill:#899bdd; stroke:none;" d="M44 64L45 65L44 64z"/>
<path style="fill:#8fa1df; stroke:none;" d="M51 64L52 65L51 64z"/>
<path style="fill:#899bdd; stroke:none;" d="M45 65L46 66L45 65z"/>
<path style="fill:#8fa1df; stroke:none;" d="M50 65L51 66L50 65z"/>
<path style="fill:#899bdd; stroke:none;" d="M46 66L47 67L46 66z"/>
<path style="fill:#8fa1df; stroke:none;" d="M49 66L50 67L49 66M47.6667 67.3333L48.3333 67.6667L47.6667 67.3333z"/>
<path style="fill:#ffffff; stroke:none;" d="M8 80L8 88L88 88L88 80L8 80z"/>
</svg>
