<svg id="Camada_1" data-name="Camada 1" xmlns="http://www.w3.org/2000/svg" viewBox="0 0 1289.38 463.88"><defs><style>.cls-1{fill:#fff;}.cls-2{fill:#d8552a;}.cls-3{fill:none;stroke:#d8552a;}</style></defs><path class="cls-1" d="M333.33,207.56a6.25,6.25,0,0,1-4.61-1.7,7.34,7.34,0,0,1-1.71-5.13V106.85q0-9.55,5.64-15,5.79-5.46,16-5.46h52.92q6.66,0,6.65,5.46a4.53,4.53,0,0,1-1.7,3.75A7.78,7.78,0,0,1,401.61,97H348.86a8.69,8.69,0,0,0-6.65,2.73,10.46,10.46,0,0,0-2.39,7.17v34.31h48.81q6.66,0,6.66,5.46a4.54,4.54,0,0,1-1.88,3.93,7.45,7.45,0,0,1-4.78,1.36H339.82v48.82a7.34,7.34,0,0,1-1.71,5.13A6.49,6.49,0,0,1,333.33,207.56Z"/><path class="cls-1" d="M498.72,207.56a64,64,0,0,1-31.07-7.51,56.34,56.34,0,0,1-21.85-21.68q-7.85-14-7.85-32.26,0-18.44,7.85-32.26a55.17,55.17,0,0,1,21.85-21.51,66.67,66.67,0,0,1,62.13,0,54,54,0,0,1,21.68,21.51q8,13.83,8,32.26,0,18.27-8,32.26a55.13,55.13,0,0,1-21.68,21.68A64,64,0,0,1,498.72,207.56Zm0-10.92a49.68,49.68,0,0,0,24.58-6,42.25,42.25,0,0,0,17.07-17.24q6.32-11.43,6.31-27.31,0-16.05-6.48-27.48a41.73,41.73,0,0,0-17.41-17.24,51.22,51.22,0,0,0-24.41-5.81,50.39,50.39,0,0,0-24.58,6A42.24,42.24,0,0,0,456.9,119q-6.15,11.43-6.15,27.14,0,15.87,6.15,27.31A43.63,43.63,0,0,0,474,190.66,50.64,50.64,0,0,0,498.72,196.64Z"/><path class="cls-1" d="M653.08,207.56q-15.18,0-26.46-6a40.94,40.94,0,0,1-17.06-17.24q-6-11.26-6-26.8V91.49a6.71,6.71,0,0,1,1.7-4.95,6,6,0,0,1,4.62-1.88,6.12,6.12,0,0,1,4.77,1.88,6.63,6.63,0,0,1,1.71,4.95v66.57q0,18.44,9.73,28.51t27.31,10.07q17.76,0,27.66-10.07,10.06-10.24,10.07-28.51V91.49a6.71,6.71,0,0,1,1.7-4.95,6.49,6.49,0,0,1,4.78-1.88,5.61,5.61,0,0,1,4.61,1.88A6.67,6.67,0,0,1,704,91.49v66.06q0,15-6.14,26.46a42.31,42.31,0,0,1-17.76,17.41Q668.62,207.56,653.08,207.56Z"/><path class="cls-1" d="M757.94,207.56a6.27,6.27,0,0,1-4.61-1.7,7.39,7.39,0,0,1-1.7-5.13V131.09q0-14.18,6-24.58A40.71,40.71,0,0,1,775,90.29q11.26-5.62,26.46-5.63t26.29,5.63A39.68,39.68,0,0,1,845,106.51q6.13,10.41,6.15,24.58v69.64a7.34,7.34,0,0,1-1.71,5.13,5.94,5.94,0,0,1-4.61,1.7,6.85,6.85,0,0,1-4.78-1.7,7.34,7.34,0,0,1-1.71-5.13V130.58q0-16.56-9.73-25.78t-27.14-9.22q-17.07,0-27.14,9.39-9.9,9.39-9.9,25.61v70.15a7.34,7.34,0,0,1-1.71,5.13A6.49,6.49,0,0,1,757.94,207.56Z"/><path class="cls-1" d="M921.72,205.86q-10.41,0-16.22-5.47-5.81-5.62-5.8-15.36V106.85q0-9.55,5.63-15,5.8-5.46,16-5.46h23.89q17.76,0,30.9,7.51a50.14,50.14,0,0,1,20.49,20.82q7.15,13.49,7.17,31.58t-7.17,31.58a50.38,50.38,0,0,1-20.49,20.65q-13.14,7.35-30.9,7.35Zm21.85-10.59q22.53,0,34.82-12.8,12.47-12.81,12.46-36.19t-12.46-36.36q-12.46-13-34.82-13h-22a8.71,8.71,0,0,0-6.66,2.73,10.51,10.51,0,0,0-2.39,7.17v78.52a10.51,10.51,0,0,0,2.39,7.17,8.71,8.71,0,0,0,6.66,2.73Z"/><path class="cls-1" d="M1048.56,107.7q0-9.72,5.64-15.53,5.8-5.81,16.72-5.8h31.92q46.44,0,46.43,38.57,0,18.62-11.26,28.17t-34,9.56L1137.16,197a5.31,5.31,0,0,1,1.53,3.92,5.87,5.87,0,0,1-2.56,5,7,7,0,0,1-4.27,1.53c-2.27,0-4.44-1.14-6.48-3.41l-39.26-41.31h-23v37.55a7.35,7.35,0,0,1-2,5.46,8.38,8.38,0,0,1-10.58,0,7.76,7.76,0,0,1-1.88-5.46Zm55.14,43.19q15.71,0,23.21-5.8,7.68-6,7.68-20.15,0-14.34-7.68-20.48-7.68-6.31-23.21-6.32h-31.92a8.27,8.27,0,0,0-6.32,2.56,9.87,9.87,0,0,0-2.39,7v43.19Z"/><path class="cls-1" d="M1283.07,84.66a5.9,5.9,0,0,1,4.6,1.88,6.63,6.63,0,0,1,1.71,4.95v21.33a61.74,61.74,0,0,1-5.46,26.29,46.57,46.57,0,0,1-15.19,18.78,47.66,47.66,0,0,1-22.7,8.7v34.14a7.34,7.34,0,0,1-1.71,5.13,6.49,6.49,0,0,1-4.78,1.7,6.25,6.25,0,0,1-4.61-1.7,7.34,7.34,0,0,1-1.71-5.13V166.59a47.84,47.84,0,0,1-23.21-8.36,45.75,45.75,0,0,1-15-18.61q-5.29-11.6-5.29-26.8V91.49a6.71,6.71,0,0,1,1.7-4.95,5.94,5.94,0,0,1,4.61-1.88,6.14,6.14,0,0,1,4.78,1.88,6.67,6.67,0,0,1,1.71,4.95v21.85q0,20.13,9.73,31.4,9.9,11.28,27.31,11.27,17.24,0,27.14-11.27,9.9-11.43,9.9-31.4V91.49a6.67,6.67,0,0,1,1.71-4.95A6.47,6.47,0,0,1,1283.07,84.66Z"/><path class="cls-1" d="M354.32,376.55q-13,0-20.14-6.82T327,350.61V282.33q0-12,6.83-18.61,7-6.66,19.29-6.66H377q19.62,0,34,7.17a49.89,49.89,0,0,1,21.85,20.66q7.68,13.49,7.68,32.09t-7.68,32.09A50.06,50.06,0,0,1,411,369.55q-14.17,7-34,7Zm21-17.58q21.35,0,31.75-10.24,10.41-10.41,10.41-31.75T406.9,285.23q-10.41-10.59-31.58-10.58H357.06a7.09,7.09,0,0,0-5.47,2.22,9.2,9.2,0,0,0-1.87,6.14v67.6a9.23,9.23,0,0,0,1.87,6.14,7.09,7.09,0,0,0,5.47,2.22Z"/><path class="cls-1" d="M490.47,378.09a11.88,11.88,0,0,1-8.19-2.73,9.53,9.53,0,0,1-3.07-7.51V308.1q0-24.75,14.17-38.75t39.43-14q16.55,0,28.67,6.31a42.65,42.65,0,0,1,18.44,18.27q6.48,11.94,6.49,28.16v59.75a9.54,9.54,0,0,1-3.08,7.51,11.88,11.88,0,0,1-8.19,2.73,12.54,12.54,0,0,1-8.36-2.73,9.87,9.87,0,0,1-3.08-7.51V340H501.91v27.83a9.63,9.63,0,0,1-3.24,7.51A11.89,11.89,0,0,1,490.47,378.09Zm73.23-55.65V307.59q0-17.07-7.85-25.6-7.68-8.72-23-8.71-30.9,0-30.9,34.31v14.85Z"/><path class="cls-1" d="M686.58,378.26q-20,0-34.49-7.68a53.56,53.56,0,0,1-21.85-21.68q-7.5-14-7.51-32.09t7.51-31.92a52.21,52.21,0,0,1,21.85-21.68q14.52-7.86,34.49-7.85t34.3,7.85a51.91,51.91,0,0,1,22,21.68q7.5,13.83,7.51,31.92t-7.51,32.09a53.24,53.24,0,0,1-22,21.68Q706.56,378.26,686.58,378.26Zm0-17.92q19.45,0,30.21-11.61,10.76-11.78,10.75-31.92,0-20.31-11.27-31.92-11.09-11.61-31.4-11.61-18.61,0-29,12Q645.61,297,645.61,316.81q0,20.15,10.75,31.92Q667.12,360.34,686.58,360.34Z"/><path class="cls-2" d="M152.19.5h10a114.37,114.37,0,0,1,29.46,3.82,62.51,62.51,0,0,1,25.7,12.1q11.3,8.28,18.18,22.92t6.9,37.56V290.83q0,22.29-6.27,38.2a73,73,0,0,1-16.92,25.47,64.17,64.17,0,0,1-23.82,15.28,87.45,87.45,0,0,1-28.21,4.46h-7.52L152.19,373Zm-79.6,284A75.62,75.62,0,0,1,45,279.37a75.47,75.47,0,0,1-22.57-15.92,85.76,85.76,0,0,1-16.3-26.1Q.5,221.44.5,200.42V.5H13.66q38.24,0,57.67,21Q90.77,41.88,90.76,88.36v90.41q0,7.65.63,14.65a56.78,56.78,0,0,0,3.76,12.73,32.8,32.8,0,0,0,8.15,8.92q5.64,3.18,15,3.18a41,41,0,0,0,10-1.27,29.63,29.63,0,0,0,10-5.73,102.84,102.84,0,0,1-3.76,28,66.19,66.19,0,0,1-11.91,22.92,62,62,0,0,1-20.68,16.55Q89.51,284.48,72.59,284.47ZM47.51,402.25q0-19.72,6.9-31.83,6.89-12.74,16.92-19.74a57.14,57.14,0,0,1,21.94-8.91A100.78,100.78,0,0,1,114,339.22a60.18,60.18,0,0,1,8.77.64q5,0,6.27.63v29.29q0,13.38,6.27,19.74a21.11,21.11,0,0,0,15.67,6.37A29.7,29.7,0,0,0,171,388.25a27.72,27.72,0,0,1,1.88,9.55,55.27,55.27,0,0,1,.63,8.91q0,7.64-3.76,17.83A55.74,55.74,0,0,1,159.09,443q-6.9,8.28-18.81,14.65-11.28,5.73-27.58,5.73-16.92,0-29.46-5.73a71.09,71.09,0,0,1-20.06-14A73,73,0,0,1,51.27,423.9,65.75,65.75,0,0,1,47.51,402.25Z"/><path class="cls-3" d="M152.19.5h10a114.37,114.37,0,0,1,29.46,3.82,62.51,62.51,0,0,1,25.7,12.1q11.3,8.28,18.18,22.92t6.9,37.56V290.83q0,22.29-6.27,38.2a73,73,0,0,1-16.92,25.47,64.17,64.17,0,0,1-23.82,15.28,87.45,87.45,0,0,1-28.21,4.46h-7.52L152.19,373Zm-79.6,284A75.62,75.62,0,0,1,45,279.37a75.47,75.47,0,0,1-22.57-15.92,85.76,85.76,0,0,1-16.3-26.1Q.5,221.44.5,200.42V.5H13.66q38.24,0,57.67,21Q90.77,41.88,90.76,88.36v90.41q0,7.65.63,14.65a56.78,56.78,0,0,0,3.76,12.73,32.8,32.8,0,0,0,8.15,8.92q5.64,3.18,15,3.18a41,41,0,0,0,10-1.27,29.63,29.63,0,0,0,10-5.73,102.84,102.84,0,0,1-3.76,28,66.19,66.19,0,0,1-11.91,22.92,62,62,0,0,1-20.68,16.55Q89.51,284.48,72.59,284.47ZM47.51,402.25q0-19.72,6.9-31.83,6.89-12.74,16.92-19.74a57.14,57.14,0,0,1,21.94-8.91A100.78,100.78,0,0,1,114,339.22a60.18,60.18,0,0,1,8.77.64q5,0,6.27.63v29.29q0,13.38,6.27,19.74a21.11,21.11,0,0,0,15.67,6.37A29.7,29.7,0,0,0,171,388.25a27.72,27.72,0,0,1,1.88,9.55,55.27,55.27,0,0,1,.63,8.91q0,7.64-3.76,17.83A55.74,55.74,0,0,1,159.09,443q-6.9,8.28-18.81,14.65-11.28,5.73-27.58,5.73-16.92,0-29.46-5.73a71.09,71.09,0,0,1-20.06-14A73,73,0,0,1,51.27,423.9,65.75,65.75,0,0,1,47.51,402.25Z"/></svg>