<svg id="Camada_1" data-name="Camada 1" xmlns="http://www.w3.org/2000/svg" viewBox="0 0 241.96 462.88"><defs><style>.cls-1{fill:#d8552a;}</style></defs><path class="cls-1" d="M151.69,0h10a114.37,114.37,0,0,1,29.46,3.82,62.51,62.51,0,0,1,25.7,12.1q11.3,8.28,18.18,22.92T242,76.4V290.33q0,22.29-6.27,38.2A73,73,0,0,1,218.77,354,64.17,64.17,0,0,1,195,369.28a87.45,87.45,0,0,1-28.21,4.46h-7.52l-7.53-1.27ZM72.09,284a75.62,75.62,0,0,1-27.58-5.1A75.47,75.47,0,0,1,21.94,263a85.76,85.76,0,0,1-16.3-26.1Q0,220.94,0,199.92V0H13.16Q51.4,0,70.83,21,90.27,41.38,90.26,87.86v90.41q0,7.65.63,14.65a56.78,56.78,0,0,0,3.76,12.73,32.8,32.8,0,0,0,8.15,8.92q5.64,3.18,15,3.18a41,41,0,0,0,10-1.27,29.63,29.63,0,0,0,10-5.73,102.84,102.84,0,0,1-3.76,28,66.19,66.19,0,0,1-11.91,22.92,62,62,0,0,1-20.68,16.55Q89,284,72.09,284ZM47,401.75q0-19.72,6.9-31.83,6.89-12.74,16.92-19.74a57.14,57.14,0,0,1,21.94-8.91,100.78,100.78,0,0,1,20.69-2.55,60.18,60.18,0,0,1,8.77.64q5,0,6.27.63v29.29q0,13.38,6.27,19.74a21.11,21.11,0,0,0,15.67,6.37,29.7,29.7,0,0,0,20.06-7.64,27.72,27.72,0,0,1,1.88,9.55,55.27,55.27,0,0,1,.63,8.91q0,7.64-3.76,17.83a55.74,55.74,0,0,1-10.66,18.46q-6.9,8.28-18.81,14.65-11.28,5.73-27.58,5.73-16.92,0-29.46-5.73a71.09,71.09,0,0,1-20.06-14A73,73,0,0,1,50.77,423.4,65.75,65.75,0,0,1,47,401.75Z"/></svg>