<svg width="428" height="906" viewBox="0 0 428 906" fill="none" xmlns="http://www.w3.org/2000/svg">
<path d="M292.197 793.416C290.558 794.399 290.558 795.26 290.353 795.874C290.149 795.465 289.944 794.604 288.305 793.621C289.534 792.391 289.739 791.982 290.149 791.162C290.353 791.572 290.558 792.432 292.197 793.416Z" fill="#383B51"/>
<path d="M290.353 795.874L290.17 795.966L290.391 796.408L290.548 795.939L290.353 795.874ZM292.197 793.416L292.303 793.591L292.596 793.416L292.303 793.24L292.197 793.416ZM290.149 791.162L290.332 791.07L290.149 790.704L289.965 791.07L290.149 791.162ZM288.305 793.621L288.16 793.476L287.974 793.661L288.199 793.796L288.305 793.621ZM290.548 795.939C290.664 795.59 290.698 795.277 290.917 794.883C291.126 794.506 291.507 794.069 292.303 793.591L292.092 793.24C291.249 793.746 290.81 794.231 290.559 794.684C290.316 795.12 290.248 795.544 290.159 795.81L290.548 795.939ZM289.965 791.254C290.054 791.43 290.175 791.787 290.469 792.194C290.769 792.609 291.252 793.088 292.092 793.591L292.303 793.24C291.503 792.76 291.064 792.317 290.801 791.954C290.532 791.582 290.449 791.304 290.332 791.07L289.965 791.254ZM290.537 795.783C290.449 795.606 290.327 795.249 290.033 794.843C289.733 794.428 289.25 793.949 288.41 793.445L288.199 793.796C288.999 794.276 289.438 794.719 289.701 795.083C289.97 795.454 290.054 795.733 290.17 795.966L290.537 795.783ZM289.965 791.07C289.76 791.481 289.613 791.775 289.367 792.119C289.121 792.464 288.771 792.864 288.16 793.476L288.45 793.766C289.067 793.148 289.435 792.729 289.701 792.357C289.967 791.984 290.127 791.663 290.332 791.254L289.965 791.07Z" fill="#49352F"/>
<path d="M286.051 649.591C284.412 650.574 284.412 651.435 284.207 652.049C284.002 651.639 283.797 650.779 282.158 649.795C283.387 648.566 283.592 648.156 284.002 647.337C284.207 647.747 284.412 648.607 286.051 649.591Z" fill="#383B51"/>
<path d="M284.207 652.049L284.024 652.141L284.245 652.583L284.401 652.114L284.207 652.049ZM286.051 649.591L286.156 649.766L286.449 649.591L286.156 649.415L286.051 649.591ZM284.002 647.337L284.185 647.245L284.002 646.879L283.819 647.245L284.002 647.337ZM282.158 649.795L282.013 649.651L281.828 649.836L282.053 649.971L282.158 649.795ZM284.401 652.114C284.518 651.765 284.551 651.452 284.77 651.058C284.98 650.681 285.361 650.244 286.156 649.766L285.946 649.415C285.102 649.921 284.664 650.406 284.412 650.859C284.17 651.294 284.101 651.719 284.013 651.984L284.401 652.114ZM283.819 647.429C283.907 647.605 284.028 647.962 284.323 648.369C284.623 648.784 285.106 649.262 285.946 649.766L286.156 649.415C285.357 648.935 284.918 648.492 284.655 648.129C284.386 647.757 284.302 647.479 284.185 647.245L283.819 647.429ZM284.39 651.958C284.302 651.781 284.181 651.424 283.886 651.017C283.586 650.602 283.103 650.124 282.264 649.62L282.053 649.971C282.852 650.451 283.291 650.894 283.554 651.258C283.823 651.629 283.907 651.907 284.024 652.141L284.39 651.958ZM283.819 647.245C283.614 647.656 283.466 647.95 283.221 648.293C282.974 648.639 282.625 649.039 282.013 649.651L282.303 649.94C282.921 649.323 283.288 648.904 283.554 648.532C283.821 648.158 283.981 647.837 284.185 647.429L283.819 647.245Z" fill="#49352F"/>
<path d="M369.642 629.512C368.003 630.496 368.003 631.356 367.798 631.971C367.593 631.561 367.388 630.701 365.749 629.717C366.978 628.488 367.183 628.078 367.593 627.259C367.798 627.669 368.003 628.529 369.642 629.512Z" fill="#383B51"/>
<path d="M367.798 631.971L367.615 632.063L367.836 632.505L367.992 632.036L367.798 631.971ZM369.642 629.512L369.747 629.688L370.04 629.512L369.747 629.337L369.642 629.512ZM367.593 627.259L367.776 627.167L367.593 626.801L367.41 627.167L367.593 627.259ZM365.749 629.717L365.604 629.572L365.419 629.758L365.644 629.893L365.749 629.717ZM367.992 632.036C368.109 631.686 368.142 631.374 368.361 630.98C368.57 630.603 368.951 630.166 369.747 629.688L369.536 629.337C368.693 629.843 368.254 630.328 368.003 630.781C367.761 631.216 367.692 631.641 367.603 631.906L367.992 632.036ZM367.41 627.35C367.498 627.527 367.619 627.884 367.914 628.291C368.214 628.705 368.697 629.184 369.536 629.688L369.747 629.337C368.948 628.857 368.509 628.414 368.246 628.05C367.977 627.679 367.893 627.401 367.776 627.167L367.41 627.35ZM367.981 631.879C367.893 631.703 367.772 631.346 367.477 630.939C367.177 630.524 366.694 630.045 365.854 629.542L365.644 629.893C366.443 630.373 366.882 630.816 367.145 631.179C367.414 631.551 367.498 631.829 367.615 632.063L367.981 631.879ZM367.41 627.167C367.204 627.578 367.057 627.872 366.812 628.215C366.565 628.56 366.216 628.961 365.604 629.572L365.894 629.862C366.512 629.244 366.879 628.825 367.145 628.453C367.412 628.08 367.572 627.759 367.776 627.35L367.41 627.167Z" fill="#49352F"/>
<path d="M64.3722 665.571C62.7332 666.554 62.7332 667.415 62.5283 668.03C62.3234 667.62 62.1185 666.759 60.4795 665.776C61.7088 664.547 61.9136 664.137 62.3234 663.317C62.5283 663.727 62.7332 664.588 64.3722 665.571Z" fill="#383B51"/>
<path d="M62.5283 668.03L62.345 668.121L62.5662 668.564L62.7227 668.094L62.5283 668.03ZM64.3722 665.571L64.4776 665.747L64.7704 665.571L64.4776 665.395L64.3722 665.571ZM62.3234 663.317L62.5067 663.226L62.3234 662.859L62.1402 663.226L62.3234 663.317ZM60.4795 665.776L60.3346 665.631L60.1491 665.817L60.3741 665.952L60.4795 665.776ZM62.7227 668.094C62.8391 667.745 62.8726 667.432 63.0915 667.038C63.301 666.661 63.6818 666.224 64.4776 665.747L64.2668 665.395C63.4235 665.901 62.9849 666.386 62.7333 666.839C62.4913 667.275 62.4224 667.7 62.3339 667.965L62.7227 668.094ZM62.1402 663.409C62.2283 663.585 62.3495 663.942 62.644 664.349C62.9442 664.764 63.4271 665.243 64.2668 665.747L64.4776 665.395C63.6782 664.916 63.2392 664.473 62.976 664.109C62.7071 663.737 62.6234 663.459 62.5067 663.226L62.1402 663.409ZM62.7115 667.938C62.6234 667.762 62.5022 667.405 62.2077 666.998C61.9075 666.583 61.4246 666.104 60.5849 665.6L60.3741 665.952C61.1735 666.431 61.6125 666.874 61.8757 667.238C62.1446 667.61 62.2283 667.888 62.345 668.121L62.7115 667.938ZM62.1402 663.226C61.9348 663.636 61.7876 663.93 61.5421 664.274C61.2956 664.619 60.9461 665.02 60.3346 665.631L60.6244 665.921C61.2421 665.303 61.6098 664.884 61.8755 664.512C62.1421 664.139 62.3022 663.818 62.5067 663.409L62.1402 663.226Z" fill="#49352F"/>
<path d="M159.846 705.318C158.207 706.302 158.207 707.162 158.002 707.777C157.797 707.367 157.592 706.506 155.953 705.523C157.182 704.294 157.387 703.884 157.797 703.064C158.002 703.474 158.207 704.335 159.846 705.318Z" fill="#383B51"/>
<path d="M158.002 707.777L157.819 707.868L158.04 708.311L158.196 707.841L158.002 707.777ZM159.846 705.318L159.951 705.494L160.244 705.318L159.951 705.142L159.846 705.318ZM157.797 703.064L157.98 702.973L157.797 702.606L157.614 702.973L157.797 703.064ZM155.953 705.523L155.808 705.378L155.623 705.564L155.848 705.699L155.953 705.523ZM158.196 707.841C158.313 707.492 158.346 707.179 158.565 706.785C158.775 706.408 159.155 705.971 159.951 705.494L159.74 705.142C158.897 705.648 158.459 706.133 158.207 706.586C157.965 707.022 157.896 707.447 157.808 707.712L158.196 707.841ZM157.614 703.156C157.702 703.332 157.823 703.689 158.118 704.096C158.418 704.511 158.901 704.99 159.74 705.494L159.951 705.142C159.152 704.663 158.713 704.22 158.45 703.856C158.181 703.484 158.097 703.206 157.98 702.973L157.614 703.156ZM158.185 707.685C158.097 707.509 157.976 707.152 157.681 706.745C157.381 706.33 156.898 705.851 156.059 705.347L155.848 705.699C156.647 706.178 157.086 706.621 157.349 706.985C157.618 707.357 157.702 707.635 157.819 707.868L158.185 707.685ZM157.614 702.973C157.408 703.383 157.261 703.677 157.016 704.021C156.769 704.366 156.42 704.767 155.808 705.378L156.098 705.668C156.716 705.05 157.083 704.631 157.349 704.259C157.616 703.886 157.776 703.565 157.98 703.156L157.614 702.973Z" fill="#49352F"/>
<path d="M142.635 614.761C140.996 615.744 140.996 616.604 140.791 617.219C140.586 616.809 140.381 615.949 138.742 614.965C139.971 613.736 140.176 613.326 140.586 612.507C140.791 612.917 140.996 613.777 142.635 614.761Z" fill="#383B51"/>
<path d="M140.791 617.219L140.608 617.311L140.829 617.753L140.985 617.284L140.791 617.219ZM142.635 614.761L142.74 614.936L143.033 614.761L142.74 614.585L142.635 614.761ZM140.586 612.507L140.769 612.415L140.586 612.049L140.403 612.415L140.586 612.507ZM138.742 614.965L138.597 614.821L138.412 615.006L138.637 615.141L138.742 614.965ZM140.985 617.284C141.102 616.935 141.135 616.622 141.354 616.228C141.564 615.851 141.945 615.414 142.74 614.936L142.529 614.585C141.686 615.091 141.248 615.576 140.996 616.029C140.754 616.464 140.685 616.889 140.597 617.154L140.985 617.284ZM140.403 612.598C140.491 612.775 140.612 613.132 140.907 613.539C141.207 613.954 141.69 614.432 142.529 614.936L142.74 614.585C141.941 614.105 141.502 613.662 141.239 613.298C140.97 612.927 140.886 612.649 140.769 612.415L140.403 612.598ZM140.974 617.127C140.886 616.951 140.765 616.594 140.47 616.187C140.17 615.772 139.687 615.294 138.848 614.79L138.637 615.141C139.436 615.621 139.875 616.064 140.138 616.427C140.407 616.799 140.491 617.077 140.608 617.311L140.974 617.127ZM140.403 612.415C140.198 612.826 140.05 613.12 139.805 613.463C139.558 613.808 139.209 614.209 138.597 614.821L138.887 615.11C139.505 614.492 139.872 614.074 140.138 613.702C140.405 613.328 140.565 613.007 140.769 612.598L140.403 612.415Z" fill="#49352F"/>
<path d="M117.64 902.822C116.001 903.805 116.001 904.666 115.796 905.281C115.591 904.871 115.386 904.01 113.747 903.027C114.976 901.798 115.181 901.388 115.591 900.568C115.796 900.978 116.001 901.839 117.64 902.822Z" fill="#383B51"/>
<path d="M115.796 905.281L115.613 905.372L115.834 905.815L115.99 905.345L115.796 905.281ZM117.64 902.822L117.745 902.998L118.038 902.822L117.745 902.646L117.64 902.822ZM115.591 900.568L115.774 900.477L115.591 900.11L115.408 900.477L115.591 900.568ZM113.747 903.027L113.602 902.882L113.417 903.068L113.642 903.203L113.747 903.027ZM115.99 905.345C116.107 904.996 116.14 904.683 116.359 904.289C116.569 903.912 116.949 903.475 117.745 902.998L117.534 902.646C116.691 903.152 116.252 903.637 116.001 904.09C115.759 904.526 115.69 904.951 115.602 905.216L115.99 905.345ZM115.408 900.66C115.496 900.836 115.617 901.193 115.912 901.6C116.212 902.015 116.695 902.494 117.534 902.998L117.745 902.646C116.946 902.167 116.507 901.724 116.244 901.36C115.975 900.988 115.891 900.71 115.774 900.477L115.408 900.66ZM115.979 905.189C115.891 905.013 115.77 904.656 115.475 904.249C115.175 903.834 114.692 903.355 113.852 902.851L113.642 903.203C114.441 903.682 114.88 904.125 115.143 904.489C115.412 904.861 115.496 905.139 115.613 905.372L115.979 905.189ZM115.408 900.477C115.202 900.887 115.055 901.181 114.81 901.525C114.563 901.87 114.214 902.271 113.602 902.882L113.892 903.172C114.51 902.554 114.877 902.135 115.143 901.763C115.41 901.39 115.57 901.069 115.774 900.66L115.408 900.477Z" fill="#49352F"/>
<path d="M35.6886 879.875C34.0496 880.858 34.0496 881.719 33.8447 882.333C33.6398 881.924 33.4349 881.063 31.7959 880.08C33.0252 878.85 33.2301 878.441 33.6398 877.621C33.8447 878.031 34.0496 878.891 35.6886 879.875Z" fill="#383B51"/>
<path d="M33.8447 882.333L33.6614 882.425L33.8826 882.867L34.0391 882.398L33.8447 882.333ZM35.6886 879.875L35.794 880.05L36.0868 879.875L35.794 879.699L35.6886 879.875ZM33.6398 877.621L33.8231 877.529L33.6398 877.163L33.4566 877.529L33.6398 877.621ZM31.7959 880.08L31.651 879.935L31.4655 880.12L31.6905 880.255L31.7959 880.08ZM34.0391 882.398C34.1555 882.049 34.189 881.736 34.4079 881.342C34.6174 880.965 34.9982 880.528 35.794 880.05L35.5832 879.699C34.7399 880.205 34.3013 880.69 34.0497 881.143C33.8077 881.579 33.7388 882.003 33.6503 882.269L34.0391 882.398ZM33.4566 877.713C33.5447 877.889 33.6659 878.246 33.9604 878.653C34.2606 879.068 34.7435 879.547 35.5832 880.05L35.794 879.699C34.9947 879.219 34.5556 878.776 34.2924 878.413C34.0235 878.041 33.9398 877.763 33.8231 877.529L33.4566 877.713ZM34.0279 882.242C33.9398 882.065 33.8186 881.708 33.5241 881.301C33.2239 880.887 32.741 880.408 31.9013 879.904L31.6905 880.255C32.4899 880.735 32.9289 881.178 33.1921 881.542C33.4611 881.913 33.5447 882.192 33.6614 882.425L34.0279 882.242ZM33.4566 877.529C33.2513 877.94 33.104 878.234 32.8585 878.578C32.612 878.923 32.2625 879.323 31.651 879.935L31.9408 880.225C32.5585 879.607 32.9262 879.188 33.1919 878.816C33.4585 878.443 33.6186 878.122 33.8231 877.713L33.4566 877.529Z" fill="#49352F"/>
<path d="M411.027 610.254C409.388 611.237 409.388 612.098 409.184 612.712C408.979 612.302 408.774 611.442 407.135 610.459C408.364 609.229 408.569 608.82 408.979 608C409.184 608.41 409.388 609.27 411.027 610.254Z" fill="#383B51"/>
<path d="M409.184 612.712L409 612.804L409.222 613.246L409.378 612.777L409.184 612.712ZM411.027 610.254L411.133 610.429L411.426 610.254L411.133 610.078L411.027 610.254ZM408.979 608L409.162 607.908L408.979 607.542L408.795 607.908L408.979 608ZM407.135 610.459L406.99 610.314L406.804 610.499L407.029 610.634L407.135 610.459ZM409.378 612.777C409.494 612.428 409.528 612.115 409.747 611.721C409.956 611.344 410.337 610.907 411.133 610.429L410.922 610.078C410.079 610.584 409.64 611.069 409.389 611.522C409.147 611.958 409.078 612.382 408.989 612.647L409.378 612.777ZM408.795 608.092C408.884 608.268 409.005 608.625 409.299 609.032C409.6 609.447 410.082 609.926 410.922 610.429L411.133 610.078C410.334 609.598 409.894 609.155 409.631 608.792C409.362 608.42 409.279 608.142 409.162 607.908L408.795 608.092ZM409.367 612.621C409.279 612.444 409.157 612.087 408.863 611.68C408.563 611.266 408.08 610.787 407.24 610.283L407.029 610.634C407.829 611.114 408.268 611.557 408.531 611.921C408.8 612.292 408.884 612.57 409 612.804L409.367 612.621ZM408.795 607.908C408.59 608.319 408.443 608.613 408.197 608.957C407.951 609.302 407.601 609.702 406.99 610.314L407.28 610.603C407.897 609.986 408.265 609.567 408.531 609.195C408.797 608.821 408.957 608.501 409.162 608.092L408.795 607.908Z" fill="#49352F"/>
<path d="M419.633 685.649C417.994 686.633 417.994 687.493 417.789 688.108C417.584 687.698 417.379 686.837 415.74 685.854C416.97 684.625 417.174 684.215 417.584 683.396C417.789 683.805 417.994 684.666 419.633 685.649Z" fill="#383B51"/>
<path d="M417.789 688.108L417.606 688.199L417.827 688.642L417.983 688.173L417.789 688.108ZM419.633 685.649L419.738 685.825L420.031 685.649L419.738 685.474L419.633 685.649ZM417.584 683.396L417.767 683.304L417.584 682.937L417.401 683.304L417.584 683.396ZM415.74 685.854L415.595 685.709L415.41 685.895L415.635 686.03L415.74 685.854ZM417.983 688.173C418.1 687.823 418.133 687.51 418.352 687.116C418.562 686.739 418.943 686.302 419.738 685.825L419.528 685.474C418.684 685.979 418.246 686.464 417.994 686.917C417.752 687.353 417.683 687.778 417.595 688.043L417.983 688.173ZM417.401 683.487C417.489 683.663 417.61 684.02 417.905 684.427C418.205 684.842 418.688 685.321 419.528 685.825L419.738 685.474C418.939 684.994 418.5 684.551 418.237 684.187C417.968 683.816 417.884 683.537 417.767 683.304L417.401 683.487ZM417.972 688.016C417.884 687.84 417.763 687.483 417.468 687.076C417.168 686.661 416.685 686.182 415.846 685.678L415.635 686.03C416.434 686.509 416.873 686.952 417.136 687.316C417.405 687.688 417.489 687.966 417.606 688.199L417.972 688.016ZM417.401 683.304C417.196 683.715 417.048 684.008 416.803 684.352C416.556 684.697 416.207 685.098 415.595 685.709L415.885 685.999C416.503 685.381 416.871 684.962 417.136 684.59C417.403 684.217 417.563 683.896 417.767 683.487L417.401 683.304Z" fill="#49352F"/>
<path d="M240.412 475.416C242.051 476.399 242.051 477.26 242.256 477.874C242.461 477.465 242.666 476.604 244.305 475.621C243.075 474.391 242.871 473.982 242.461 473.162C242.256 473.572 242.051 474.432 240.412 475.416Z" fill="#383B51"/>
<path d="M242.256 477.874L242.439 477.966L242.218 478.408L242.062 477.939L242.256 477.874ZM240.412 475.416L240.307 475.591L240.014 475.416L240.307 475.24L240.412 475.416ZM242.461 473.162L242.278 473.07L242.461 472.704L242.644 473.07L242.461 473.162ZM244.305 475.621L244.45 475.476L244.635 475.661L244.41 475.796L244.305 475.621ZM242.062 477.939C241.945 477.59 241.912 477.277 241.693 476.883C241.483 476.506 241.102 476.069 240.307 475.591L240.517 475.24C241.361 475.746 241.799 476.231 242.051 476.684C242.293 477.12 242.362 477.544 242.45 477.81L242.062 477.939ZM242.644 473.254C242.556 473.43 242.435 473.787 242.14 474.194C241.84 474.609 241.357 475.088 240.517 475.591L240.307 475.24C241.106 474.76 241.545 474.317 241.808 473.954C242.077 473.582 242.161 473.304 242.278 473.07L242.644 473.254ZM242.073 477.783C242.161 477.606 242.282 477.249 242.577 476.843C242.877 476.428 243.36 475.949 244.199 475.445L244.41 475.796C243.611 476.276 243.172 476.719 242.908 477.083C242.64 477.454 242.556 477.733 242.439 477.966L242.073 477.783ZM242.644 473.07C242.849 473.481 242.997 473.775 243.242 474.119C243.489 474.464 243.838 474.864 244.45 475.476L244.16 475.766C243.542 475.148 243.174 474.729 242.909 474.357C242.642 473.984 242.482 473.663 242.278 473.254L242.644 473.07Z" fill="#49352F"/>
<path d="M246.558 331.591C248.197 332.574 248.197 333.435 248.402 334.049C248.607 333.639 248.812 332.779 250.451 331.795C249.222 330.566 249.017 330.156 248.607 329.337C248.402 329.747 248.197 330.607 246.558 331.591Z" fill="#383B51"/>
<path d="M248.402 334.049L248.586 334.141L248.364 334.583L248.208 334.114L248.402 334.049ZM246.558 331.591L246.453 331.766L246.16 331.591L246.453 331.415L246.558 331.591ZM248.607 329.337L248.424 329.245L248.607 328.879L248.791 329.245L248.607 329.337ZM250.451 331.795L250.596 331.651L250.782 331.836L250.557 331.971L250.451 331.795ZM248.208 334.114C248.092 333.765 248.058 333.452 247.839 333.058C247.63 332.681 247.249 332.244 246.453 331.766L246.664 331.415C247.507 331.921 247.946 332.406 248.197 332.859C248.439 333.294 248.508 333.719 248.597 333.984L248.208 334.114ZM248.791 329.429C248.702 329.605 248.581 329.962 248.287 330.369C247.986 330.784 247.504 331.262 246.664 331.766L246.453 331.415C247.252 330.935 247.691 330.492 247.955 330.129C248.224 329.757 248.307 329.479 248.424 329.245L248.791 329.429ZM248.219 333.958C248.307 333.781 248.428 333.424 248.723 333.017C249.023 332.602 249.506 332.124 250.346 331.62L250.557 331.971C249.757 332.451 249.318 332.894 249.055 333.258C248.786 333.629 248.702 333.907 248.586 334.141L248.219 333.958ZM248.791 329.245C248.996 329.656 249.143 329.95 249.389 330.293C249.635 330.639 249.985 331.039 250.596 331.651L250.306 331.94C249.689 331.323 249.321 330.904 249.055 330.532C248.789 330.158 248.628 329.837 248.424 329.429L248.791 329.245Z" fill="#49352F"/>
<path d="M28.5663 374.206C30.2053 375.189 30.2053 376.05 30.4102 376.664C30.6151 376.255 30.8199 375.394 32.459 374.411C31.2297 373.181 31.0248 372.772 30.6151 371.952C30.4102 372.362 30.2053 373.222 28.5663 374.206Z" fill="#383B51"/>
<path d="M30.4102 376.664L30.5934 376.756L30.3722 377.198L30.2158 376.729L30.4102 376.664ZM28.5663 374.206L28.4609 374.382L28.1681 374.206L28.4609 374.03L28.5663 374.206ZM30.6151 371.952L30.4318 371.861L30.6151 371.494L30.7983 371.861L30.6151 371.952ZM32.459 374.411L32.6039 374.266L32.7894 374.451L32.5644 374.586L32.459 374.411ZM30.2158 376.729C30.0994 376.38 30.0658 376.067 29.8469 375.673C29.6375 375.296 29.2566 374.859 28.4609 374.382L28.6717 374.03C29.5149 374.536 29.9536 375.021 30.2051 375.474C30.4472 375.91 30.5161 376.334 30.6046 376.6L30.2158 376.729ZM30.7983 372.044C30.7102 372.22 30.589 372.577 30.2945 372.984C29.9942 373.399 29.5113 373.878 28.6717 374.382L28.4609 374.03C29.2602 373.551 29.6993 373.107 29.9625 372.744C30.2314 372.372 30.3151 372.094 30.4318 371.861L30.7983 372.044ZM30.2269 376.573C30.3151 376.396 30.4363 376.039 30.7308 375.633C31.031 375.218 31.5139 374.739 32.3536 374.235L32.5644 374.586C31.765 375.066 31.326 375.509 31.0628 375.873C30.7938 376.244 30.7102 376.523 30.5934 376.756L30.2269 376.573ZM30.7983 371.861C31.0036 372.271 31.1509 372.565 31.3964 372.909C31.6429 373.254 31.9924 373.654 32.6039 374.266L32.3141 374.556C31.6963 373.938 31.3287 373.519 31.063 373.147C30.7964 372.774 30.6363 372.453 30.4318 372.044L30.7983 371.861Z" fill="#49352F"/>
<path d="M162.968 311.512C164.607 312.496 164.607 313.356 164.812 313.971C165.016 313.561 165.221 312.701 166.86 311.717C165.631 310.488 165.426 310.078 165.016 309.259C164.812 309.669 164.607 310.529 162.968 311.512Z" fill="#383B51"/>
<path d="M164.812 313.971L164.995 314.063L164.774 314.505L164.617 314.036L164.812 313.971ZM162.968 311.512L162.862 311.688L162.569 311.512L162.862 311.337L162.968 311.512ZM165.016 309.259L164.833 309.167L165.016 308.801L165.2 309.167L165.016 309.259ZM166.86 311.717L167.005 311.572L167.191 311.758L166.966 311.893L166.86 311.717ZM164.617 314.036C164.501 313.686 164.467 313.374 164.248 312.98C164.039 312.603 163.658 312.166 162.862 311.688L163.073 311.337C163.916 311.843 164.355 312.328 164.607 312.781C164.849 313.216 164.917 313.641 165.006 313.906L164.617 314.036ZM165.2 309.35C165.112 309.527 164.99 309.884 164.696 310.291C164.396 310.705 163.913 311.184 163.073 311.688L162.862 311.337C163.662 310.857 164.101 310.414 164.364 310.05C164.633 309.679 164.716 309.401 164.833 309.167L165.2 309.35ZM164.628 313.879C164.716 313.703 164.838 313.346 165.132 312.939C165.432 312.524 165.915 312.045 166.755 311.542L166.966 311.893C166.166 312.373 165.727 312.816 165.464 313.179C165.195 313.551 165.112 313.829 164.995 314.063L164.628 313.879ZM165.2 309.167C165.405 309.578 165.552 309.872 165.798 310.215C166.044 310.56 166.394 310.961 167.005 311.572L166.715 311.862C166.098 311.244 165.73 310.825 165.464 310.453C165.198 310.08 165.038 309.759 164.833 309.35L165.2 309.167Z" fill="#49352F"/>
<path d="M372.764 387.318C374.403 388.302 374.403 389.162 374.607 389.777C374.812 389.367 375.017 388.506 376.656 387.523C375.427 386.294 375.222 385.884 374.812 385.064C374.607 385.474 374.403 386.335 372.764 387.318Z" fill="#383B51"/>
<path d="M374.607 389.777L374.791 389.868L374.57 390.311L374.413 389.841L374.607 389.777ZM372.764 387.318L372.658 387.494L372.365 387.318L372.658 387.142L372.764 387.318ZM374.812 385.064L374.629 384.973L374.812 384.606L374.996 384.973L374.812 385.064ZM376.656 387.523L376.801 387.378L376.987 387.564L376.762 387.699L376.656 387.523ZM374.413 389.841C374.297 389.492 374.263 389.179 374.044 388.785C373.835 388.408 373.454 387.971 372.658 387.494L372.869 387.142C373.712 387.648 374.151 388.133 374.402 388.586C374.644 389.022 374.713 389.447 374.802 389.712L374.413 389.841ZM374.996 385.156C374.907 385.332 374.786 385.689 374.492 386.096C374.191 386.511 373.709 386.99 372.869 387.494L372.658 387.142C373.457 386.663 373.897 386.22 374.16 385.856C374.429 385.484 374.512 385.206 374.629 384.973L374.996 385.156ZM374.424 389.685C374.512 389.509 374.634 389.152 374.928 388.745C375.228 388.33 375.711 387.851 376.551 387.347L376.762 387.699C375.962 388.178 375.523 388.621 375.26 388.985C374.991 389.357 374.907 389.635 374.791 389.868L374.424 389.685ZM374.996 384.973C375.201 385.383 375.348 385.677 375.594 386.021C375.84 386.366 376.19 386.767 376.801 387.378L376.511 387.668C375.894 387.05 375.526 386.631 375.26 386.259C374.994 385.886 374.834 385.565 374.629 385.156L374.996 384.973Z" fill="#49352F"/>
<path d="M389.974 296.761C391.614 297.744 391.614 298.604 391.818 299.219C392.023 298.809 392.228 297.949 393.867 296.965C392.638 295.736 392.433 295.326 392.023 294.507C391.818 294.917 391.614 295.777 389.974 296.761Z" fill="#383B51"/>
<path d="M391.818 299.219L392.002 299.311L391.78 299.753L391.624 299.284L391.818 299.219ZM389.974 296.761L389.869 296.936L389.576 296.761L389.869 296.585L389.974 296.761ZM392.023 294.507L391.84 294.415L392.023 294.049L392.207 294.415L392.023 294.507ZM393.867 296.965L394.012 296.821L394.198 297.006L393.973 297.141L393.867 296.965ZM391.624 299.284C391.508 298.935 391.474 298.622 391.255 298.228C391.046 297.851 390.665 297.414 389.869 296.936L390.08 296.585C390.923 297.091 391.362 297.576 391.613 298.029C391.855 298.464 391.924 298.889 392.013 299.154L391.624 299.284ZM392.207 294.598C392.118 294.775 391.997 295.132 391.703 295.539C391.402 295.954 390.92 296.432 390.08 296.936L389.869 296.585C390.668 296.105 391.108 295.662 391.371 295.298C391.64 294.927 391.723 294.649 391.84 294.415L392.207 294.598ZM391.635 299.127C391.723 298.951 391.845 298.594 392.139 298.187C392.439 297.772 392.922 297.294 393.762 296.79L393.973 297.141C393.173 297.621 392.734 298.064 392.471 298.427C392.202 298.799 392.118 299.077 392.002 299.311L391.635 299.127ZM392.207 294.415C392.412 294.826 392.559 295.12 392.805 295.463C393.051 295.808 393.401 296.209 394.012 296.821L393.722 297.11C393.105 296.492 392.737 296.074 392.471 295.702C392.205 295.328 392.044 295.007 391.84 294.598L392.207 294.415Z" fill="#49352F"/>
<path d="M414.97 584.822C416.609 585.805 416.609 586.666 416.814 587.281C417.018 586.871 417.223 586.01 418.862 585.027C417.633 583.798 417.428 583.388 417.018 582.568C416.814 582.978 416.609 583.839 414.97 584.822Z" fill="#383B51"/>
<path d="M416.814 587.281L416.997 587.372L416.776 587.815L416.619 587.345L416.814 587.281ZM414.97 584.822L414.864 584.998L414.571 584.822L414.864 584.646L414.97 584.822ZM417.018 582.568L416.835 582.477L417.018 582.11L417.202 582.477L417.018 582.568ZM418.862 585.027L419.007 584.882L419.193 585.068L418.968 585.203L418.862 585.027ZM416.619 587.345C416.503 586.996 416.469 586.683 416.25 586.289C416.041 585.912 415.66 585.475 414.864 584.998L415.075 584.646C415.918 585.152 416.357 585.637 416.608 586.09C416.851 586.526 416.919 586.951 417.008 587.216L416.619 587.345ZM417.202 582.66C417.113 582.836 416.992 583.193 416.698 583.6C416.398 584.015 415.915 584.494 415.075 584.998L414.864 584.646C415.664 584.167 416.103 583.724 416.366 583.36C416.635 582.988 416.718 582.71 416.835 582.477L417.202 582.66ZM416.63 587.189C416.718 587.013 416.84 586.656 417.134 586.249C417.434 585.834 417.917 585.355 418.757 584.851L418.968 585.203C418.168 585.682 417.729 586.125 417.466 586.489C417.197 586.861 417.113 587.139 416.997 587.372L416.63 587.189ZM417.202 582.477C417.407 582.887 417.554 583.181 417.8 583.525C418.046 583.87 418.396 584.271 419.007 584.882L418.717 585.172C418.1 584.554 417.732 584.135 417.466 583.763C417.2 583.39 417.04 583.069 416.835 582.66L417.202 582.477Z" fill="#49352F"/>
<path d="M9.71764 468.041C11.3567 469.024 11.3567 469.885 11.5616 470.499C11.7664 470.09 11.9713 469.229 13.6104 468.246C12.3811 467.016 12.1762 466.607 11.7664 465.787C11.5616 466.197 11.3567 467.057 9.71764 468.041Z" fill="#383B51"/>
<path d="M11.5616 470.499L11.7448 470.591L11.5236 471.033L11.3672 470.564L11.5616 470.499ZM9.71764 468.041L9.61223 468.216L9.31942 468.041L9.61223 467.865L9.71764 468.041ZM11.7664 465.787L11.5832 465.695L11.7664 465.329L11.9497 465.695L11.7664 465.787ZM13.6104 468.246L13.7552 468.101L13.9408 468.286L13.7158 468.421L13.6104 468.246ZM11.3672 470.564C11.2507 470.215 11.2172 469.902 10.9983 469.508C10.7889 469.131 10.408 468.694 9.61223 468.216L9.82305 467.865C10.6663 468.371 11.1049 468.856 11.3565 469.309C11.5986 469.745 11.6675 470.169 11.7559 470.435L11.3672 470.564ZM11.9497 465.879C11.8615 466.055 11.7403 466.412 11.4458 466.819C11.1456 467.234 10.6627 467.713 9.82305 468.216L9.61223 467.865C10.4116 467.385 10.8507 466.942 11.1139 466.579C11.3828 466.207 11.4665 465.929 11.5832 465.695L11.9497 465.879ZM11.3783 470.408C11.4665 470.231 11.5877 469.874 11.8822 469.468C12.1824 469.053 12.6653 468.574 13.5049 468.07L13.7158 468.421C12.9164 468.901 12.4773 469.344 12.2141 469.708C11.9452 470.079 11.8615 470.358 11.7448 470.591L11.3783 470.408ZM11.9497 465.695C12.155 466.106 12.3022 466.4 12.5478 466.744C12.7943 467.089 13.1437 467.489 13.7552 468.101L13.4655 468.391C12.8477 467.773 12.4801 467.354 12.2144 466.982C11.9477 466.609 11.7876 466.288 11.5832 465.879L11.9497 465.695Z" fill="#49352F"/>
<path d="M121.582 292.254C123.221 293.237 123.221 294.098 123.426 294.712C123.631 294.302 123.836 293.442 125.475 292.459C124.245 291.229 124.04 290.82 123.631 290C123.426 290.41 123.221 291.27 121.582 292.254Z" fill="#383B51"/>
<path d="M123.426 294.712L123.609 294.804L123.388 295.246L123.231 294.777L123.426 294.712ZM121.582 292.254L121.476 292.429L121.184 292.254L121.476 292.078L121.582 292.254ZM123.631 290L123.447 289.908L123.631 289.542L123.814 289.908L123.631 290ZM125.475 292.459L125.619 292.314L125.805 292.499L125.58 292.634L125.475 292.459ZM123.231 294.777C123.115 294.428 123.081 294.115 122.863 293.721C122.653 293.344 122.272 292.907 121.476 292.429L121.687 292.078C122.531 292.584 122.969 293.069 123.221 293.522C123.463 293.958 123.532 294.382 123.62 294.647L123.231 294.777ZM123.814 290.092C123.726 290.268 123.605 290.625 123.31 291.032C123.01 291.447 122.527 291.926 121.687 292.429L121.476 292.078C122.276 291.598 122.715 291.155 122.978 290.792C123.247 290.42 123.331 290.142 123.447 289.908L123.814 290.092ZM123.243 294.621C123.331 294.444 123.452 294.087 123.746 293.68C124.047 293.266 124.53 292.787 125.369 292.283L125.58 292.634C124.781 293.114 124.342 293.557 124.078 293.921C123.809 294.292 123.726 294.57 123.609 294.804L123.243 294.621ZM123.814 289.908C124.019 290.319 124.166 290.613 124.412 290.957C124.659 291.302 125.008 291.702 125.619 292.314L125.33 292.603C124.712 291.986 124.344 291.567 124.079 291.195C123.812 290.821 123.652 290.501 123.447 290.092L123.814 289.908Z" fill="#49352F"/>
<path d="M112.976 367.649C114.615 368.633 114.615 369.493 114.82 370.108C115.025 369.698 115.23 368.837 116.869 367.854C115.64 366.625 115.435 366.215 115.025 365.396C114.82 365.805 114.615 366.666 112.976 367.649Z" fill="#383B51"/>
<path d="M114.82 370.108L115.004 370.199L114.782 370.642L114.626 370.173L114.82 370.108ZM112.976 367.649L112.871 367.825L112.578 367.649L112.871 367.474L112.976 367.649ZM115.025 365.396L114.842 365.304L115.025 364.937L115.208 365.304L115.025 365.396ZM116.869 367.854L117.014 367.709L117.2 367.895L116.975 368.03L116.869 367.854ZM114.626 370.173C114.51 369.823 114.476 369.51 114.257 369.116C114.048 368.739 113.667 368.302 112.871 367.825L113.082 367.474C113.925 367.979 114.364 368.464 114.615 368.917C114.857 369.353 114.926 369.778 115.015 370.043L114.626 370.173ZM115.208 365.487C115.12 365.663 114.999 366.02 114.705 366.427C114.404 366.842 113.922 367.321 113.082 367.825L112.871 367.474C113.67 366.994 114.109 366.551 114.373 366.187C114.642 365.816 114.725 365.537 114.842 365.304L115.208 365.487ZM114.637 370.016C114.725 369.84 114.846 369.483 115.141 369.076C115.441 368.661 115.924 368.182 116.764 367.678L116.975 368.03C116.175 368.509 115.736 368.952 115.473 369.316C115.204 369.688 115.12 369.966 115.004 370.199L114.637 370.016ZM115.208 365.304C115.414 365.715 115.561 366.008 115.807 366.352C116.053 366.697 116.403 367.098 117.014 367.709L116.724 367.999C116.106 367.381 115.739 366.962 115.473 366.59C115.207 366.217 115.046 365.896 114.842 365.487L115.208 365.304Z" fill="#49352F"/>
<path d="M292.197 186.416C290.558 187.399 290.558 188.26 290.353 188.874C290.149 188.465 289.944 187.604 288.305 186.621C289.534 185.391 289.739 184.982 290.149 184.162C290.353 184.572 290.558 185.432 292.197 186.416Z" fill="#383B51"/>
<path d="M290.353 188.874L290.17 188.966L290.391 189.408L290.548 188.939L290.353 188.874ZM292.197 186.416L292.303 186.591L292.596 186.416L292.303 186.24L292.197 186.416ZM290.149 184.162L290.332 184.07L290.149 183.704L289.965 184.07L290.149 184.162ZM288.305 186.621L288.16 186.476L287.974 186.661L288.199 186.796L288.305 186.621ZM290.548 188.939C290.664 188.59 290.698 188.277 290.917 187.883C291.126 187.506 291.507 187.069 292.303 186.591L292.092 186.24C291.249 186.746 290.81 187.231 290.559 187.684C290.316 188.12 290.248 188.544 290.159 188.81L290.548 188.939ZM289.965 184.254C290.054 184.43 290.175 184.787 290.469 185.194C290.769 185.609 291.252 186.088 292.092 186.591L292.303 186.24C291.503 185.76 291.064 185.317 290.801 184.954C290.532 184.582 290.449 184.304 290.332 184.07L289.965 184.254ZM290.537 188.783C290.449 188.606 290.327 188.249 290.033 187.843C289.733 187.428 289.25 186.949 288.41 186.445L288.199 186.796C288.999 187.276 289.438 187.719 289.701 188.083C289.97 188.454 290.054 188.733 290.17 188.966L290.537 188.783ZM289.965 184.07C289.76 184.481 289.613 184.775 289.367 185.119C289.121 185.464 288.771 185.864 288.16 186.476L288.45 186.766C289.067 186.148 289.435 185.729 289.701 185.357C289.967 184.984 290.127 184.663 290.332 184.254L289.965 184.07Z" fill="#49352F"/>
<path d="M286.051 42.5906C284.412 43.574 284.412 44.4345 284.207 45.0491C284.002 44.6394 283.797 43.7789 282.158 42.7955C283.387 41.5662 283.592 41.1564 284.002 40.3369C284.207 40.7467 284.412 41.6072 286.051 42.5906Z" fill="#383B51"/>
<path d="M284.207 45.0491L284.024 45.1408L284.245 45.5832L284.401 45.1139L284.207 45.0491ZM286.051 42.5906L286.156 42.7663L286.449 42.5906L286.156 42.4149L286.051 42.5906ZM284.002 40.3369L284.185 40.2453L284.002 39.8788L283.819 40.2453L284.002 40.3369ZM282.158 42.7955L282.013 42.6506L281.828 42.8361L282.053 42.9712L282.158 42.7955ZM284.401 45.1139C284.518 44.7646 284.551 44.4517 284.77 44.0577C284.98 43.6807 285.361 43.2437 286.156 42.7663L285.946 42.4149C285.102 42.9209 284.664 43.4059 284.412 43.8587C284.17 44.2944 284.101 44.7191 284.013 44.9844L284.401 45.1139ZM283.819 40.4285C283.907 40.6049 284.028 40.9618 284.323 41.3687C284.623 41.7836 285.106 42.2625 285.946 42.7663L286.156 42.4149C285.357 41.9353 284.918 41.4922 284.655 41.1285C284.386 40.7569 284.302 40.4787 284.185 40.2453L283.819 40.4285ZM284.39 44.9575C284.302 44.7812 284.181 44.4243 283.886 44.0173C283.586 43.6025 283.103 43.1236 282.264 42.6198L282.053 42.9712C282.852 43.4508 283.291 43.8939 283.554 44.2575C283.823 44.6291 283.907 44.9073 284.024 45.1408L284.39 44.9575ZM283.819 40.2453C283.614 40.6559 283.466 40.9497 283.221 41.2934C282.974 41.6385 282.625 42.0391 282.013 42.6506L282.303 42.9403C282.921 42.3226 283.288 41.9036 283.554 41.5316C283.821 41.1583 283.981 40.8374 284.185 40.4285L283.819 40.2453Z" fill="#49352F"/>
<path d="M369.642 22.5125C368.003 23.4959 368.003 24.3564 367.798 24.971C367.593 24.5613 367.388 23.7008 365.749 22.7173C366.978 21.4881 367.183 21.0783 367.593 20.2588C367.798 20.6685 368.003 21.529 369.642 22.5125Z" fill="#383B51"/>
<path d="M367.798 24.971L367.615 25.0626L367.836 25.505L367.992 25.0358L367.798 24.971ZM369.642 22.5125L369.747 22.6881L370.04 22.5125L369.747 22.3368L369.642 22.5125ZM367.593 20.2588L367.776 20.1672L367.593 19.8007L367.41 20.1672L367.593 20.2588ZM365.749 22.7173L365.604 22.5725L365.419 22.758L365.644 22.893L365.749 22.7173ZM367.992 25.0358C368.109 24.6865 368.142 24.3735 368.361 23.9795C368.57 23.6026 368.951 23.1656 369.747 22.6881L369.536 22.3368C368.693 22.8427 368.254 23.3277 368.003 23.7805C367.761 24.2163 367.692 24.6409 367.603 24.9062L367.992 25.0358ZM367.41 20.3504C367.498 20.5267 367.619 20.8837 367.914 21.2906C368.214 21.7055 368.697 22.1843 369.536 22.6881L369.747 22.3368C368.948 21.8572 368.509 21.4141 368.246 21.0504C367.977 20.6788 367.893 20.4006 367.776 20.1672L367.41 20.3504ZM367.981 24.8794C367.893 24.7031 367.772 24.3461 367.477 23.9392C367.177 23.5243 366.694 23.0455 365.854 22.5417L365.644 22.893C366.443 23.3726 366.882 23.8157 367.145 24.1794C367.414 24.551 367.498 24.8292 367.615 25.0626L367.981 24.8794ZM367.41 20.1672C367.204 20.5778 367.057 20.8715 366.812 21.2153C366.565 21.5604 366.216 21.961 365.604 22.5725L365.894 22.8622C366.512 22.2444 366.879 21.8255 367.145 21.4535C367.412 21.0802 367.572 20.7593 367.776 20.3504L367.41 20.1672Z" fill="#49352F"/>
<path d="M64.3722 58.5711C62.7332 59.5545 62.7332 60.415 62.5283 61.0296C62.3234 60.6199 62.1185 59.7594 60.4795 58.7759C61.7088 57.5467 61.9136 57.1369 62.3234 56.3174C62.5283 56.7271 62.7332 57.5876 64.3722 58.5711Z" fill="#383B51"/>
<path d="M62.5283 61.0296L62.345 61.1212L62.5662 61.5636L62.7227 61.0944L62.5283 61.0296ZM64.3722 58.5711L64.4776 58.7467L64.7704 58.5711L64.4776 58.3954L64.3722 58.5711ZM62.3234 56.3174L62.5067 56.2258L62.3234 55.8593L62.1402 56.2258L62.3234 56.3174ZM60.4795 58.7759L60.3346 58.6311L60.1491 58.8166L60.3741 58.9516L60.4795 58.7759ZM62.7227 61.0944C62.8391 60.7451 62.8726 60.4321 63.0915 60.0381C63.301 59.6612 63.6818 59.2242 64.4776 58.7467L64.2668 58.3954C63.4235 58.9013 62.9849 59.3863 62.7333 59.8391C62.4913 60.2749 62.4224 60.6995 62.3339 60.9648L62.7227 61.0944ZM62.1402 56.409C62.2283 56.5853 62.3495 56.9423 62.644 57.3492C62.9442 57.7641 63.4271 58.2429 64.2668 58.7467L64.4776 58.3954C63.6782 57.9158 63.2392 57.4727 62.976 57.109C62.7071 56.7374 62.6234 56.4592 62.5067 56.2258L62.1402 56.409ZM62.7115 60.938C62.6234 60.7617 62.5022 60.4047 62.2077 59.9978C61.9075 59.5829 61.4246 59.1041 60.5849 58.6003L60.3741 58.9516C61.1735 59.4312 61.6125 59.8743 61.8757 60.238C62.1446 60.6096 62.2283 60.8878 62.345 61.1212L62.7115 60.938ZM62.1402 56.2258C61.9348 56.6364 61.7876 56.9301 61.5421 57.2739C61.2956 57.619 60.9461 58.0196 60.3346 58.6311L60.6244 58.9208C61.2421 58.303 61.6098 57.8841 61.8755 57.5121C62.1421 57.1388 62.3022 56.8179 62.5067 56.409L62.1402 56.2258Z" fill="#49352F"/>
<path d="M159.846 98.3181C158.207 99.3016 158.207 100.162 158.002 100.777C157.797 100.367 157.592 99.5064 155.953 98.523C157.182 97.2937 157.387 96.884 157.797 96.0645C158.002 96.4742 158.207 97.3347 159.846 98.3181Z" fill="#383B51"/>
<path d="M158.002 100.777L157.819 100.868L158.04 101.311L158.196 100.841L158.002 100.777ZM159.846 98.3181L159.951 98.4938L160.244 98.3181L159.951 98.1424L159.846 98.3181ZM157.797 96.0645L157.98 95.9728L157.797 95.6063L157.614 95.9728L157.797 96.0645ZM155.953 98.523L155.808 98.3781L155.623 98.5637L155.848 98.6987L155.953 98.523ZM158.196 100.841C158.313 100.492 158.346 100.179 158.565 99.7852C158.775 99.4082 159.155 98.9713 159.951 98.4938L159.74 98.1424C158.897 98.6484 158.459 99.1334 158.207 99.5862C157.965 100.022 157.896 100.447 157.808 100.712L158.196 100.841ZM157.614 96.1561C157.702 96.3324 157.823 96.6893 158.118 97.0963C158.418 97.5111 158.901 97.99 159.74 98.4938L159.951 98.1424C159.152 97.6628 158.713 97.2197 158.45 96.8561C158.181 96.4844 158.097 96.2063 157.98 95.9728L157.614 96.1561ZM158.185 100.685C158.097 100.509 157.976 100.152 157.681 99.7449C157.381 99.33 156.898 98.8511 156.059 98.3473L155.848 98.6987C156.647 99.1783 157.086 99.6214 157.349 99.9851C157.618 100.357 157.702 100.635 157.819 100.868L158.185 100.685ZM157.614 95.9728C157.408 96.3835 157.261 96.6772 157.016 97.021C156.769 97.3661 156.42 97.7666 155.808 98.3781L156.098 98.6679C156.716 98.0501 157.083 97.6311 157.349 97.2592C157.616 96.8859 157.776 96.565 157.98 96.1561L157.614 95.9728Z" fill="#49352F"/>
<path d="M142.635 7.76051C140.996 8.74393 140.996 9.60443 140.791 10.2191C140.586 9.80931 140.381 8.94881 138.742 7.96539C139.971 6.73611 140.176 6.32635 140.586 5.50684C140.791 5.9166 140.996 6.77709 142.635 7.76051Z" fill="#383B51"/>
<path d="M140.791 10.2191L140.608 10.3107L140.829 10.7531L140.985 10.2839L140.791 10.2191ZM142.635 7.76051L142.74 7.93619L143.033 7.76051L142.74 7.58483L142.635 7.76051ZM140.586 5.50684L140.769 5.41521L140.586 5.04871L140.403 5.41521L140.586 5.50684ZM138.742 7.96539L138.597 7.82052L138.412 8.00607L138.637 8.14107L138.742 7.96539ZM140.985 10.2839C141.102 9.93451 141.135 9.62159 141.354 9.22758C141.564 8.85062 141.945 8.41366 142.74 7.93619L142.529 7.58483C141.686 8.09079 141.248 8.57578 140.996 9.02858C140.754 9.46434 140.685 9.88898 140.597 10.1543L140.985 10.2839ZM140.403 5.59846C140.491 5.77478 140.612 6.13173 140.907 6.53866C141.207 6.95352 141.69 7.43239 142.529 7.93619L142.74 7.58483C141.941 7.10521 141.502 6.66213 141.239 6.29844C140.97 5.92683 140.886 5.64865 140.769 5.41521L140.403 5.59846ZM140.974 10.1274C140.886 9.95113 140.765 9.59418 140.47 9.18724C140.17 8.77239 139.687 8.29351 138.848 7.78971L138.637 8.14107C139.436 8.6207 139.875 9.06378 140.138 9.42747C140.407 9.79907 140.491 10.0772 140.608 10.3107L140.974 10.1274ZM140.403 5.41521C140.198 5.82584 140.05 6.11958 139.805 6.46337C139.558 6.80847 139.209 7.20902 138.597 7.82052L138.887 8.11026C139.505 7.49249 139.872 7.07352 140.138 6.70154C140.405 6.32825 140.565 6.00735 140.769 5.59846L140.403 5.41521Z" fill="#49352F"/>
<path d="M117.64 295.822C116.001 296.805 116.001 297.666 115.796 298.281C115.591 297.871 115.386 297.01 113.747 296.027C114.976 294.798 115.181 294.388 115.591 293.568C115.796 293.978 116.001 294.839 117.64 295.822Z" fill="#383B51"/>
<path d="M115.796 298.281L115.613 298.372L115.834 298.815L115.99 298.345L115.796 298.281ZM117.64 295.822L117.745 295.998L118.038 295.822L117.745 295.646L117.64 295.822ZM115.591 293.568L115.774 293.477L115.591 293.11L115.408 293.477L115.591 293.568ZM113.747 296.027L113.602 295.882L113.417 296.068L113.642 296.203L113.747 296.027ZM115.99 298.345C116.107 297.996 116.14 297.683 116.359 297.289C116.569 296.912 116.949 296.475 117.745 295.998L117.534 295.646C116.691 296.152 116.252 296.637 116.001 297.09C115.759 297.526 115.69 297.951 115.602 298.216L115.99 298.345ZM115.408 293.66C115.496 293.836 115.617 294.193 115.912 294.6C116.212 295.015 116.695 295.494 117.534 295.998L117.745 295.646C116.946 295.167 116.507 294.724 116.244 294.36C115.975 293.988 115.891 293.71 115.774 293.477L115.408 293.66ZM115.979 298.189C115.891 298.013 115.77 297.656 115.475 297.249C115.175 296.834 114.692 296.355 113.852 295.851L113.642 296.203C114.441 296.682 114.88 297.125 115.143 297.489C115.412 297.861 115.496 298.139 115.613 298.372L115.979 298.189ZM115.408 293.477C115.202 293.887 115.055 294.181 114.81 294.525C114.563 294.87 114.214 295.271 113.602 295.882L113.892 296.172C114.51 295.554 114.877 295.135 115.143 294.763C115.41 294.39 115.57 294.069 115.774 293.66L115.408 293.477Z" fill="#49352F"/>
<path d="M35.6886 272.875C34.0496 273.858 34.0496 274.719 33.8447 275.333C33.6398 274.924 33.4349 274.063 31.7959 273.08C33.0252 271.85 33.2301 271.441 33.6398 270.621C33.8447 271.031 34.0496 271.891 35.6886 272.875Z" fill="#383B51"/>
<path d="M33.8447 275.333L33.6614 275.425L33.8826 275.867L34.0391 275.398L33.8447 275.333ZM35.6886 272.875L35.794 273.05L36.0868 272.875L35.794 272.699L35.6886 272.875ZM33.6398 270.621L33.8231 270.529L33.6398 270.163L33.4566 270.529L33.6398 270.621ZM31.7959 273.08L31.651 272.935L31.4655 273.12L31.6905 273.255L31.7959 273.08ZM34.0391 275.398C34.1555 275.049 34.189 274.736 34.4079 274.342C34.6174 273.965 34.9982 273.528 35.794 273.05L35.5832 272.699C34.7399 273.205 34.3013 273.69 34.0497 274.143C33.8077 274.579 33.7388 275.003 33.6503 275.269L34.0391 275.398ZM33.4566 270.713C33.5447 270.889 33.6659 271.246 33.9604 271.653C34.2606 272.068 34.7435 272.547 35.5832 273.05L35.794 272.699C34.9947 272.219 34.5556 271.776 34.2924 271.413C34.0235 271.041 33.9398 270.763 33.8231 270.529L33.4566 270.713ZM34.0279 275.242C33.9398 275.065 33.8186 274.708 33.5241 274.301C33.2239 273.887 32.741 273.408 31.9013 272.904L31.6905 273.255C32.4899 273.735 32.9289 274.178 33.1921 274.542C33.4611 274.913 33.5447 275.192 33.6614 275.425L34.0279 275.242ZM33.4566 270.529C33.2513 270.94 33.104 271.234 32.8585 271.578C32.612 271.923 32.2625 272.323 31.651 272.935L31.9408 273.225C32.5585 272.607 32.9262 272.188 33.1919 271.816C33.4585 271.443 33.6186 271.122 33.8231 270.713L33.4566 270.529Z" fill="#49352F"/>
<path d="M411.027 3.25368C409.388 4.2371 409.388 5.09759 409.184 5.71223C408.979 5.30247 408.774 4.44198 407.135 3.45856C408.364 2.22928 408.569 1.81952 408.979 1C409.184 1.40976 409.388 2.27025 411.027 3.25368Z" fill="#383B51"/>
<path d="M409.184 5.71223L409 5.80386L409.222 6.24626L409.378 5.77702L409.184 5.71223ZM411.027 3.25368L411.133 3.42936L411.426 3.25368L411.133 3.07799L411.027 3.25368ZM408.979 1L409.162 0.908375L408.979 0.541875L408.795 0.908375L408.979 1ZM407.135 3.45856L406.99 3.31368L406.804 3.49923L407.029 3.63424L407.135 3.45856ZM409.378 5.77702C409.494 5.42767 409.528 5.11475 409.747 4.72075C409.956 4.34378 410.337 3.90682 411.133 3.42936L410.922 3.07799C410.079 3.58395 409.64 4.06895 409.389 4.52175C409.147 4.9575 409.078 5.38215 408.989 5.64744L409.378 5.77702ZM408.795 1.09162C408.884 1.26794 409.005 1.62489 409.299 2.03183C409.6 2.44668 410.082 2.92556 410.922 3.42936L411.133 3.07799C410.334 2.59837 409.894 2.15529 409.631 1.7916C409.362 1.42 409.279 1.14182 409.162 0.908375L408.795 1.09162ZM409.367 5.62061C409.279 5.44429 409.157 5.08734 408.863 4.6804C408.563 4.26555 408.08 3.78667 407.24 3.28287L407.029 3.63424C407.829 4.11386 408.268 4.55694 408.531 4.92063C408.8 5.29223 408.884 5.57041 409 5.80386L409.367 5.62061ZM408.795 0.908375C408.59 1.319 408.443 1.61275 408.197 1.95653C407.951 2.30163 407.601 2.70218 406.99 3.31368L407.28 3.60343C407.897 2.98565 408.265 2.56669 408.531 2.1947C408.797 1.82141 408.957 1.50052 409.162 1.09162L408.795 0.908375Z" fill="#49352F"/>
<path d="M419.633 78.6492C417.994 79.6326 417.994 80.4931 417.789 81.1077C417.584 80.698 417.379 79.8375 415.74 78.8541C416.97 77.6248 417.174 77.215 417.584 76.3955C417.789 76.8053 417.994 77.6658 419.633 78.6492Z" fill="#383B51"/>
<path d="M417.789 81.1077L417.606 81.1994L417.827 81.6418L417.983 81.1725L417.789 81.1077ZM419.633 78.6492L419.738 78.8249L420.031 78.6492L419.738 78.4735L419.633 78.6492ZM417.584 76.3955L417.767 76.3039L417.584 75.9374L417.401 76.3039L417.584 76.3955ZM415.74 78.8541L415.595 78.7092L415.41 78.8947L415.635 79.0297L415.74 78.8541ZM417.983 81.1725C418.1 80.8232 418.133 80.5103 418.352 80.1163C418.562 79.7393 418.943 79.3023 419.738 78.8249L419.528 78.4735C418.684 78.9795 418.246 79.4645 417.994 79.9173C417.752 80.353 417.683 80.7777 417.595 81.0429L417.983 81.1725ZM417.401 76.4871C417.489 76.6634 417.61 77.0204 417.905 77.4273C418.205 77.8422 418.688 78.3211 419.528 78.8249L419.738 78.4735C418.939 77.9939 418.5 77.5508 418.237 77.1871C417.968 76.8155 417.884 76.5373 417.767 76.3039L417.401 76.4871ZM417.972 81.0161C417.884 80.8398 417.763 80.4828 417.468 80.0759C417.168 79.6611 416.685 79.1822 415.846 78.6784L415.635 79.0297C416.434 79.5094 416.873 79.9524 417.136 80.3161C417.405 80.6877 417.489 80.9659 417.606 81.1994L417.972 81.0161ZM417.401 76.3039C417.196 76.7145 417.048 77.0083 416.803 77.352C416.556 77.6971 416.207 78.0977 415.595 78.7092L415.885 78.9989C416.503 78.3812 416.871 77.9622 417.136 77.5902C417.403 77.2169 417.563 76.896 417.767 76.4871L417.401 76.3039Z" fill="#49352F"/>
</svg>
