<svg width="1366" height="1527" viewBox="0 0 1366 1527" fill="none" xmlns="http://www.w3.org/2000/svg">
<path d="M748.5 454.5C744.5 456.9 744.5 459 744 460.5C743.5 459.5 743 457.4 739 455C742 452 742.5 451 743.5 449C744 450 744.5 452.1 748.5 454.5Z" fill="#383B51"/>
<path d="M744 460.5L743.553 460.724L744.093 461.803L744.474 460.658L744 460.5ZM748.5 454.5L748.757 454.929L749.472 454.5L748.757 454.071L748.5 454.5ZM743.5 449L743.947 448.776L743.5 447.882L743.053 448.776L743.5 449ZM739 455L738.646 454.646L738.194 455.099L738.743 455.429L739 455ZM744.474 460.658C744.759 459.806 744.84 459.042 745.375 458.08C745.886 457.16 746.815 456.094 748.757 454.929L748.243 454.071C746.185 455.306 745.114 456.49 744.5 457.595C743.91 458.658 743.741 459.694 743.526 460.342L744.474 460.658ZM743.053 449.224C743.268 449.654 743.564 450.525 744.282 451.518C745.015 452.531 746.194 453.699 748.243 454.929L748.757 454.071C746.806 452.901 745.735 451.819 745.093 450.932C744.436 450.025 744.232 449.346 743.947 448.776L743.053 449.224ZM744.447 460.276C744.232 459.846 743.936 458.975 743.218 457.982C742.485 456.969 741.306 455.801 739.257 454.571L738.743 455.429C740.694 456.599 741.765 457.681 742.407 458.568C743.064 459.475 743.268 460.154 743.553 460.724L744.447 460.276ZM743.053 448.776C742.552 449.779 742.192 450.495 741.593 451.334C740.992 452.177 740.139 453.154 738.646 454.646L739.354 455.354C740.861 453.846 741.758 452.823 742.407 451.916C743.058 451.005 743.448 450.221 743.947 449.224L743.053 448.776Z" fill="#49352F"/>
<path d="M733.5 103.5C729.5 105.9 729.5 108 729 109.5C728.5 108.5 728 106.4 724 104C727 101 727.5 100 728.5 98C729 99 729.5 101.1 733.5 103.5Z" fill="#383B51"/>
<path d="M729 109.5L728.553 109.724L729.093 110.803L729.474 109.658L729 109.5ZM733.5 103.5L733.757 103.929L734.472 103.5L733.757 103.071L733.5 103.5ZM728.5 98L728.947 97.7764L728.5 96.882L728.053 97.7764L728.5 98ZM724 104L723.646 103.646L723.194 104.099L723.743 104.429L724 104ZM729.474 109.658C729.759 108.806 729.84 108.042 730.375 107.08C730.886 106.16 731.815 105.094 733.757 103.929L733.243 103.071C731.185 104.306 730.114 105.49 729.5 106.595C728.91 107.658 728.741 108.694 728.526 109.342L729.474 109.658ZM728.053 98.2236C728.268 98.6539 728.564 99.525 729.282 100.518C730.015 101.531 731.194 102.699 733.243 103.929L733.757 103.071C731.806 101.901 730.735 100.819 730.093 99.9319C729.436 99.025 729.232 98.3461 728.947 97.7764L728.053 98.2236ZM729.447 109.276C729.232 108.846 728.936 107.975 728.218 106.982C727.485 105.969 726.306 104.801 724.257 103.571L723.743 104.429C725.694 105.599 726.765 106.681 727.407 107.568C728.064 108.475 728.268 109.154 728.553 109.724L729.447 109.276ZM728.053 97.7764C727.552 98.7785 727.192 99.4954 726.593 100.334C725.992 101.177 725.139 102.154 723.646 103.646L724.354 104.354C725.861 102.846 726.758 101.823 727.407 100.916C728.058 100.005 728.448 99.2215 728.947 98.2236L728.053 97.7764Z" fill="#49352F"/>
<path d="M1265.5 207.5C1261.5 209.9 1261.5 212 1261 213.5C1260.5 212.5 1260 210.4 1256 208C1259 205 1259.5 204 1260.5 202C1261 203 1261.5 205.1 1265.5 207.5Z" fill="#383B51"/>
<path d="M1261 213.5L1260.55 213.724L1261.09 214.803L1261.47 213.658L1261 213.5ZM1265.5 207.5L1265.76 207.929L1266.47 207.5L1265.76 207.071L1265.5 207.5ZM1260.5 202L1260.95 201.776L1260.5 200.882L1260.05 201.776L1260.5 202ZM1256 208L1255.65 207.646L1255.19 208.099L1255.74 208.429L1256 208ZM1261.47 213.658C1261.76 212.806 1261.84 212.042 1262.37 211.08C1262.89 210.16 1263.82 209.094 1265.76 207.929L1265.24 207.071C1263.18 208.306 1262.11 209.49 1261.5 210.595C1260.91 211.658 1260.74 212.694 1260.53 213.342L1261.47 213.658ZM1260.05 202.224C1260.27 202.654 1260.56 203.525 1261.28 204.518C1262.02 205.531 1263.19 206.699 1265.24 207.929L1265.76 207.071C1263.81 205.901 1262.73 204.819 1262.09 203.932C1261.44 203.025 1261.23 202.346 1260.95 201.776L1260.05 202.224ZM1261.45 213.276C1261.23 212.846 1260.94 211.975 1260.22 210.982C1259.48 209.969 1258.31 208.801 1256.26 207.571L1255.74 208.429C1257.69 209.599 1258.77 210.681 1259.41 211.568C1260.06 212.475 1260.27 213.154 1260.55 213.724L1261.45 213.276ZM1260.05 201.776C1259.55 202.779 1259.19 203.495 1258.59 204.334C1257.99 205.177 1257.14 206.154 1255.65 207.646L1256.35 208.354C1257.86 206.846 1258.76 205.823 1259.41 204.916C1260.06 204.005 1260.45 203.221 1260.95 202.224L1260.05 201.776Z" fill="#49352F"/>
<path d="M937.5 54.5C933.5 56.9 933.5 59 933 60.5C932.5 59.5 932 57.4 928 55C931 52 931.5 51 932.5 49C933 50 933.5 52.1 937.5 54.5Z" fill="#383B51"/>
<path d="M933 60.5L932.553 60.7236L933.093 61.8033L933.474 60.6581L933 60.5ZM937.5 54.5L937.757 54.9287L938.472 54.5L937.757 54.0713L937.5 54.5ZM932.5 49L932.947 48.7764L932.5 47.882L932.053 48.7764L932.5 49ZM928 55L927.646 54.6464L927.194 55.0993L927.743 55.4287L928 55ZM933.474 60.6581C933.759 59.8056 933.84 59.0419 934.375 58.0803C934.886 57.1604 935.815 56.094 937.757 54.9287L937.243 54.0713C935.185 55.306 934.114 56.4896 933.5 57.5947C932.91 58.6581 932.741 59.6944 932.526 60.3419L933.474 60.6581ZM932.053 49.2236C932.268 49.6539 932.564 50.525 933.282 51.5181C934.015 52.5306 935.194 53.6992 937.243 54.9287L937.757 54.0713C935.806 52.9008 934.735 51.8194 934.093 50.9319C933.436 50.025 933.232 49.3461 932.947 48.7764L932.053 49.2236ZM933.447 60.2764C933.232 59.8461 932.936 58.975 932.218 57.9819C931.485 56.9694 930.306 55.8008 928.257 54.5713L927.743 55.4287C929.694 56.5992 930.765 57.6806 931.407 58.5681C932.064 59.475 932.268 60.1539 932.553 60.7236L933.447 60.2764ZM932.053 48.7764C931.552 49.7785 931.192 50.4954 930.593 51.3344C929.992 52.1766 929.139 53.1541 927.646 54.6464L928.354 55.3536C929.861 53.8459 930.758 52.8234 931.407 51.9156C932.058 51.0046 932.448 50.2215 932.947 49.2236L932.053 48.7764Z" fill="#49352F"/>
<path d="M192.5 142.5C188.5 144.9 188.5 147 188 148.5C187.5 147.5 187 145.4 183 143C186 140 186.5 139 187.5 137C188 138 188.5 140.1 192.5 142.5Z" fill="#383B51"/>
<path d="M188 148.5L187.553 148.724L188.093 149.803L188.474 148.658L188 148.5ZM192.5 142.5L192.757 142.929L193.472 142.5L192.757 142.071L192.5 142.5ZM187.5 137L187.947 136.776L187.5 135.882L187.053 136.776L187.5 137ZM183 143L182.646 142.646L182.194 143.099L182.743 143.429L183 143ZM188.474 148.658C188.759 147.806 188.84 147.042 189.375 146.08C189.886 145.16 190.815 144.094 192.757 142.929L192.243 142.071C190.185 143.306 189.114 144.49 188.5 145.595C187.91 146.658 187.741 147.694 187.526 148.342L188.474 148.658ZM187.053 137.224C187.268 137.654 187.564 138.525 188.282 139.518C189.015 140.531 190.194 141.699 192.243 142.929L192.757 142.071C190.806 140.901 189.735 139.819 189.093 138.932C188.436 138.025 188.232 137.346 187.947 136.776L187.053 137.224ZM188.447 148.276C188.232 147.846 187.936 146.975 187.218 145.982C186.485 144.969 185.306 143.801 183.257 142.571L182.743 143.429C184.694 144.599 185.765 145.681 186.407 146.568C187.064 147.475 187.268 148.154 187.553 148.724L188.447 148.276ZM187.053 136.776C186.552 137.779 186.192 138.495 185.593 139.334C184.992 140.177 184.139 141.154 182.646 142.646L183.354 143.354C184.861 141.846 185.758 140.823 186.407 139.916C187.058 139.005 187.448 138.221 187.947 137.224L187.053 136.776Z" fill="#49352F"/>
<path d="M425.5 239.5C421.5 241.9 421.5 244 421 245.5C420.5 244.5 420 242.4 416 240C419 237 419.5 236 420.5 234C421 235 421.5 237.1 425.5 239.5Z" fill="#383B51"/>
<path d="M421 245.5L420.553 245.724L421.093 246.803L421.474 245.658L421 245.5ZM425.5 239.5L425.757 239.929L426.472 239.5L425.757 239.071L425.5 239.5ZM420.5 234L420.947 233.776L420.5 232.882L420.053 233.776L420.5 234ZM416 240L415.646 239.646L415.194 240.099L415.743 240.429L416 240ZM421.474 245.658C421.759 244.806 421.84 244.042 422.375 243.08C422.886 242.16 423.815 241.094 425.757 239.929L425.243 239.071C423.185 240.306 422.114 241.49 421.5 242.595C420.91 243.658 420.741 244.694 420.526 245.342L421.474 245.658ZM420.053 234.224C420.268 234.654 420.564 235.525 421.282 236.518C422.015 237.531 423.194 238.699 425.243 239.929L425.757 239.071C423.806 237.901 422.735 236.819 422.093 235.932C421.436 235.025 421.232 234.346 420.947 233.776L420.053 234.224ZM421.447 245.276C421.232 244.846 420.936 243.975 420.218 242.982C419.485 241.969 418.306 240.801 416.257 239.571L415.743 240.429C417.694 241.599 418.765 242.681 419.407 243.568C420.064 244.475 420.268 245.154 420.553 245.724L421.447 245.276ZM420.053 233.776C419.552 234.779 419.192 235.495 418.593 236.334C417.992 237.177 417.139 238.154 415.646 239.646L416.354 240.354C417.861 238.846 418.758 237.823 419.407 236.916C420.058 236.005 420.448 235.221 420.947 234.224L420.053 233.776Z" fill="#49352F"/>
<path d="M383.5 18.5C379.5 20.9 379.5 23 379 24.5C378.5 23.5 378 21.4 374 19C377 16 377.5 15 378.5 13C379 14 379.5 16.1 383.5 18.5Z" fill="#383B51"/>
<path d="M379 24.5L378.553 24.7236L379.093 25.8033L379.474 24.6581L379 24.5ZM383.5 18.5L383.757 18.9287L384.472 18.5L383.757 18.0713L383.5 18.5ZM378.5 13L378.947 12.7764L378.5 11.882L378.053 12.7764L378.5 13ZM374 19L373.646 18.6464L373.194 19.0993L373.743 19.4287L374 19ZM379.474 24.6581C379.759 23.8056 379.84 23.0419 380.375 22.0803C380.886 21.1604 381.815 20.094 383.757 18.9287L383.243 18.0713C381.185 19.306 380.114 20.4896 379.5 21.5947C378.91 22.6581 378.741 23.6944 378.526 24.3419L379.474 24.6581ZM378.053 13.2236C378.268 13.6539 378.564 14.525 379.282 15.5181C380.015 16.5306 381.194 17.6992 383.243 18.9287L383.757 18.0713C381.806 16.9008 380.735 15.8194 380.093 14.9319C379.436 14.025 379.232 13.3461 378.947 12.7764L378.053 13.2236ZM379.447 24.2764C379.232 23.8461 378.936 22.975 378.218 21.9819C377.485 20.9694 376.306 19.8008 374.257 18.5713L373.743 19.4287C375.694 20.5992 376.765 21.6806 377.407 22.5681C378.064 23.475 378.268 24.1539 378.553 24.7236L379.447 24.2764ZM378.053 12.7764C377.552 13.7785 377.192 14.4954 376.593 15.3344C375.992 16.1766 375.139 17.1541 373.646 18.6464L374.354 19.3536C375.861 17.8459 376.758 16.8234 377.407 15.9156C378.058 15.0046 378.448 14.2215 378.947 13.2236L378.053 12.7764Z" fill="#49352F"/>
<path d="M26.5 207.5C22.5 209.9 22.5 212 22 213.5C21.5 212.5 21 210.4 17 208C20 205 20.5 204 21.5 202C22 203 22.5 205.1 26.5 207.5Z" fill="#383B51"/>
<path d="M22 213.5L21.5528 213.724L22.0926 214.803L22.4743 213.658L22 213.5ZM26.5 207.5L26.7572 207.929L27.4718 207.5L26.7572 207.071L26.5 207.5ZM21.5 202L21.9472 201.776L21.5 200.882L21.0528 201.776L21.5 202ZM17 208L16.6464 207.646L16.1936 208.099L16.7428 208.429L17 208ZM22.4743 213.658C22.7585 212.806 22.8404 212.042 23.3746 211.08C23.8857 210.16 24.8152 209.094 26.7572 207.929L26.2428 207.071C24.1848 208.306 23.1143 209.49 22.5004 210.595C21.9096 211.658 21.7415 212.694 21.5257 213.342L22.4743 213.658ZM21.0528 202.224C21.2679 202.654 21.5637 203.525 22.2824 204.518C23.0151 205.531 24.1936 206.699 26.2428 207.929L26.7572 207.071C24.8064 205.901 23.7349 204.819 23.0926 203.932C22.4363 203.025 22.2321 202.346 21.9472 201.776L21.0528 202.224ZM22.4472 213.276C22.2321 212.846 21.9363 211.975 21.2176 210.982C20.4849 209.969 19.3064 208.801 17.2572 207.571L16.7428 208.429C18.6936 209.599 19.7651 210.681 20.4074 211.568C21.0637 212.475 21.2679 213.154 21.5528 213.724L22.4472 213.276ZM21.0528 201.776C20.5517 202.779 20.1924 203.495 19.5931 204.334C18.9916 205.177 18.1388 206.154 16.6464 207.646L17.3536 208.354C18.8612 206.846 19.7584 205.823 20.4069 204.916C21.0576 204.005 21.4483 203.221 21.9472 202.224L21.0528 201.776Z" fill="#49352F"/>
<path d="M20.5 498.5C16.5 500.9 16.5 503 16 504.5C15.5 503.5 15 501.4 11 499C14 496 14.5 495 15.5 493C16 494 16.5 496.1 20.5 498.5Z" fill="#383B51"/>
<path d="M16 504.5L15.5528 504.724L16.0926 505.803L16.4743 504.658L16 504.5ZM20.5 498.5L20.7572 498.929L21.4718 498.5L20.7572 498.071L20.5 498.5ZM15.5 493L15.9472 492.776L15.5 491.882L15.0528 492.776L15.5 493ZM11 499L10.6464 498.646L10.1936 499.099L10.7428 499.429L11 499ZM16.4743 504.658C16.7585 503.806 16.8404 503.042 17.3746 502.08C17.8857 501.16 18.8152 500.094 20.7572 498.929L20.2428 498.071C18.1848 499.306 17.1143 500.49 16.5004 501.595C15.9096 502.658 15.7415 503.694 15.5257 504.342L16.4743 504.658ZM15.0528 493.224C15.2679 493.654 15.5637 494.525 16.2824 495.518C17.0151 496.531 18.1936 497.699 20.2428 498.929L20.7572 498.071C18.8064 496.901 17.7349 495.819 17.0926 494.932C16.4363 494.025 16.2321 493.346 15.9472 492.776L15.0528 493.224ZM16.4472 504.276C16.2321 503.846 15.9363 502.975 15.2176 501.982C14.4849 500.969 13.3064 499.801 11.2572 498.571L10.7428 499.429C12.6936 500.599 13.7651 501.681 14.4074 502.568C15.0637 503.475 15.2679 504.154 15.5528 504.724L16.4472 504.276ZM15.0528 492.776C14.5517 493.779 14.1924 494.495 13.5931 495.334C12.9916 496.177 12.1388 497.154 10.6464 498.646L11.3536 499.354C12.8612 497.846 13.7584 496.823 14.4069 495.916C15.0576 495.005 15.4483 494.221 15.9472 493.224L15.0528 492.776Z" fill="#49352F"/>
<path d="M322.5 721.5C318.5 723.9 318.5 726 318 727.5C317.5 726.5 317 724.4 313 722C316 719 316.5 718 317.5 716C318 717 318.5 719.1 322.5 721.5Z" fill="#383B51"/>
<path d="M318 727.5L317.553 727.724L318.093 728.803L318.474 727.658L318 727.5ZM322.5 721.5L322.757 721.929L323.472 721.5L322.757 721.071L322.5 721.5ZM317.5 716L317.947 715.776L317.5 714.882L317.053 715.776L317.5 716ZM313 722L312.646 721.646L312.194 722.099L312.743 722.429L313 722ZM318.474 727.658C318.759 726.806 318.84 726.042 319.375 725.08C319.886 724.16 320.815 723.094 322.757 721.929L322.243 721.071C320.185 722.306 319.114 723.49 318.5 724.595C317.91 725.658 317.741 726.694 317.526 727.342L318.474 727.658ZM317.053 716.224C317.268 716.654 317.564 717.525 318.282 718.518C319.015 719.531 320.194 720.699 322.243 721.929L322.757 721.071C320.806 719.901 319.735 718.819 319.093 717.932C318.436 717.025 318.232 716.346 317.947 715.776L317.053 716.224ZM318.447 727.276C318.232 726.846 317.936 725.975 317.218 724.982C316.485 723.969 315.306 722.801 313.257 721.571L312.743 722.429C314.694 723.599 315.765 724.681 316.407 725.568C317.064 726.475 317.268 727.154 317.553 727.724L318.447 727.276ZM317.053 715.776C316.552 716.779 316.192 717.495 315.593 718.334C314.992 719.177 314.139 720.154 312.646 721.646L313.354 722.354C314.861 720.846 315.758 719.823 316.407 718.916C317.058 718.005 317.448 717.221 317.947 716.224L317.053 715.776Z" fill="#49352F"/>
<path d="M145.5 665.5C141.5 667.9 141.5 670 141 671.5C140.5 670.5 140 668.4 136 666C139 663 139.5 662 140.5 660C141 661 141.5 663.1 145.5 665.5Z" fill="#383B51"/>
<path d="M141 671.5L140.553 671.724L141.093 672.803L141.474 671.658L141 671.5ZM145.5 665.5L145.757 665.929L146.472 665.5L145.757 665.071L145.5 665.5ZM140.5 660L140.947 659.776L140.5 658.882L140.053 659.776L140.5 660ZM136 666L135.646 665.646L135.194 666.099L135.743 666.429L136 666ZM141.474 671.658C141.759 670.806 141.84 670.042 142.375 669.08C142.886 668.16 143.815 667.094 145.757 665.929L145.243 665.071C143.185 666.306 142.114 667.49 141.5 668.595C140.91 669.658 140.741 670.694 140.526 671.342L141.474 671.658ZM140.053 660.224C140.268 660.654 140.564 661.525 141.282 662.518C142.015 663.531 143.194 664.699 145.243 665.929L145.757 665.071C143.806 663.901 142.735 662.819 142.093 661.932C141.436 661.025 141.232 660.346 140.947 659.776L140.053 660.224ZM141.447 671.276C141.232 670.846 140.936 669.975 140.218 668.982C139.485 667.969 138.306 666.801 136.257 665.571L135.743 666.429C137.694 667.599 138.765 668.681 139.407 669.568C140.064 670.475 140.268 671.154 140.553 671.724L141.447 671.276ZM140.053 659.776C139.552 660.779 139.192 661.495 138.593 662.334C137.992 663.177 137.139 664.154 135.646 665.646L136.354 666.354C137.861 664.846 138.758 663.823 139.407 662.916C140.058 662.005 140.448 661.221 140.947 660.224L140.053 659.776Z" fill="#49352F"/>
<path d="M1311.5 436.5C1307.5 438.9 1307.5 441 1307 442.5C1306.5 441.5 1306 439.4 1302 437C1305 434 1305.5 433 1306.5 431C1307 432 1307.5 434.1 1311.5 436.5Z" fill="#383B51"/>
<path d="M1307 442.5L1306.55 442.724L1307.09 443.803L1307.47 442.658L1307 442.5ZM1311.5 436.5L1311.76 436.929L1312.47 436.5L1311.76 436.071L1311.5 436.5ZM1306.5 431L1306.95 430.776L1306.5 429.882L1306.05 430.776L1306.5 431ZM1302 437L1301.65 436.646L1301.19 437.099L1301.74 437.429L1302 437ZM1307.47 442.658C1307.76 441.806 1307.84 441.042 1308.37 440.08C1308.89 439.16 1309.82 438.094 1311.76 436.929L1311.24 436.071C1309.18 437.306 1308.11 438.49 1307.5 439.595C1306.91 440.658 1306.74 441.694 1306.53 442.342L1307.47 442.658ZM1306.05 431.224C1306.27 431.654 1306.56 432.525 1307.28 433.518C1308.02 434.531 1309.19 435.699 1311.24 436.929L1311.76 436.071C1309.81 434.901 1308.73 433.819 1308.09 432.932C1307.44 432.025 1307.23 431.346 1306.95 430.776L1306.05 431.224ZM1307.45 442.276C1307.23 441.846 1306.94 440.975 1306.22 439.982C1305.48 438.969 1304.31 437.801 1302.26 436.571L1301.74 437.429C1303.69 438.599 1304.77 439.681 1305.41 440.568C1306.06 441.475 1306.27 442.154 1306.55 442.724L1307.45 442.276ZM1306.05 430.776C1305.55 431.779 1305.19 432.495 1304.59 433.334C1303.99 434.177 1303.14 435.154 1301.65 436.646L1302.35 437.354C1303.86 435.846 1304.76 434.823 1305.41 433.916C1306.06 433.005 1306.45 432.221 1306.95 431.224L1306.05 430.776Z" fill="#49352F"/>
<path d="M1364.5 126.5C1360.5 128.9 1360.5 131 1360 132.5C1359.5 131.5 1359 129.4 1355 127C1358 124 1358.5 123 1359.5 121C1360 122 1360.5 124.1 1364.5 126.5Z" fill="#383B51"/>
<path d="M1360 132.5L1359.55 132.724L1360.09 133.803L1360.47 132.658L1360 132.5ZM1364.5 126.5L1364.76 126.929L1365.47 126.5L1364.76 126.071L1364.5 126.5ZM1359.5 121L1359.95 120.776L1359.5 119.882L1359.05 120.776L1359.5 121ZM1355 127L1354.65 126.646L1354.19 127.099L1354.74 127.429L1355 127ZM1360.47 132.658C1360.76 131.806 1360.84 131.042 1361.37 130.08C1361.89 129.16 1362.82 128.094 1364.76 126.929L1364.24 126.071C1362.18 127.306 1361.11 128.49 1360.5 129.595C1359.91 130.658 1359.74 131.694 1359.53 132.342L1360.47 132.658ZM1359.05 121.224C1359.27 121.654 1359.56 122.525 1360.28 123.518C1361.02 124.531 1362.19 125.699 1364.24 126.929L1364.76 126.071C1362.81 124.901 1361.73 123.819 1361.09 122.932C1360.44 122.025 1360.23 121.346 1359.95 120.776L1359.05 121.224ZM1360.45 132.276C1360.23 131.846 1359.94 130.975 1359.22 129.982C1358.48 128.969 1357.31 127.801 1355.26 126.571L1354.74 127.429C1356.69 128.599 1357.77 129.681 1358.41 130.568C1359.06 131.475 1359.27 132.154 1359.55 132.724L1360.45 132.276ZM1359.05 120.776C1358.55 121.779 1358.19 122.495 1357.59 123.334C1356.99 124.177 1356.14 125.154 1354.65 126.646L1355.35 127.354C1356.86 125.846 1357.76 124.823 1358.41 123.916C1359.06 123.005 1359.45 122.221 1359.95 121.224L1359.05 120.776Z" fill="#49352F"/>
<path d="M1038.5 7.5C1034.5 9.9 1034.5 12 1034 13.5C1033.5 12.5 1033 10.4 1029 8C1032 5 1032.5 4 1033.5 2C1034 3 1034.5 5.1 1038.5 7.5Z" fill="#383B51"/>
<path d="M1034 13.5L1033.55 13.7236L1034.09 14.8033L1034.47 13.6581L1034 13.5ZM1038.5 7.5L1038.76 7.92875L1039.47 7.5L1038.76 7.07125L1038.5 7.5ZM1033.5 2L1033.95 1.77639L1033.5 0.881966L1033.05 1.77639L1033.5 2ZM1029 8L1028.65 7.64645L1028.19 8.09927L1028.74 8.42875L1029 8ZM1034.47 13.6581C1034.76 12.8056 1034.84 12.0419 1035.37 11.0803C1035.89 10.1604 1036.82 9.09398 1038.76 7.92875L1038.24 7.07125C1036.18 8.30602 1035.11 9.48964 1034.5 10.5947C1033.91 11.6581 1033.74 12.6944 1033.53 13.3419L1034.47 13.6581ZM1033.05 2.22361C1033.27 2.6539 1033.56 3.52502 1034.28 4.51813C1035.02 5.53056 1036.19 6.69924 1038.24 7.92875L1038.76 7.07125C1036.81 5.90076 1035.73 4.81944 1035.09 3.93187C1034.44 3.02498 1034.23 2.3461 1033.95 1.77639L1033.05 2.22361ZM1034.45 13.2764C1034.23 12.8461 1033.94 11.975 1033.22 10.9819C1032.48 9.96944 1031.31 8.80076 1029.26 7.57125L1028.74 8.42875C1030.69 9.59924 1031.77 10.6806 1032.41 11.5681C1033.06 12.475 1033.27 13.1539 1033.55 13.7236L1034.45 13.2764ZM1033.05 1.77639C1032.55 2.77851 1032.19 3.49538 1031.59 4.33438C1030.99 5.17657 1030.14 6.15411 1028.65 7.64645L1029.35 8.35355C1030.86 6.84589 1031.76 5.82343 1032.41 4.91562C1033.06 4.00462 1033.45 3.22149 1033.95 2.22361L1033.05 1.77639Z" fill="#49352F"/>
<path d="M1059.5 191.5C1055.5 193.9 1055.5 196 1055 197.5C1054.5 196.5 1054 194.4 1050 192C1053 189 1053.5 188 1054.5 186C1055 187 1055.5 189.1 1059.5 191.5Z" fill="#383B51"/>
<path d="M1055 197.5L1054.55 197.724L1055.09 198.803L1055.47 197.658L1055 197.5ZM1059.5 191.5L1059.76 191.929L1060.47 191.5L1059.76 191.071L1059.5 191.5ZM1054.5 186L1054.95 185.776L1054.5 184.882L1054.05 185.776L1054.5 186ZM1050 192L1049.65 191.646L1049.19 192.099L1049.74 192.429L1050 192ZM1055.47 197.658C1055.76 196.806 1055.84 196.042 1056.37 195.08C1056.89 194.16 1057.82 193.094 1059.76 191.929L1059.24 191.071C1057.18 192.306 1056.11 193.49 1055.5 194.595C1054.91 195.658 1054.74 196.694 1054.53 197.342L1055.47 197.658ZM1054.05 186.224C1054.27 186.654 1054.56 187.525 1055.28 188.518C1056.02 189.531 1057.19 190.699 1059.24 191.929L1059.76 191.071C1057.81 189.901 1056.73 188.819 1056.09 187.932C1055.44 187.025 1055.23 186.346 1054.95 185.776L1054.05 186.224ZM1055.45 197.276C1055.23 196.846 1054.94 195.975 1054.22 194.982C1053.48 193.969 1052.31 192.801 1050.26 191.571L1049.74 192.429C1051.69 193.599 1052.77 194.681 1053.41 195.568C1054.06 196.475 1054.27 197.154 1054.55 197.724L1055.45 197.276ZM1054.05 185.776C1053.55 186.779 1053.19 187.495 1052.59 188.334C1051.99 189.177 1051.14 190.154 1049.65 191.646L1050.35 192.354C1051.86 190.846 1052.76 189.823 1053.41 188.916C1054.06 188.005 1054.45 187.221 1054.95 186.224L1054.05 185.776Z" fill="#49352F"/>
<path d="M738.5 1252.5C734.5 1254.9 734.5 1257 734 1258.5C733.5 1257.5 733 1255.4 729 1253C732 1250 732.5 1249 733.5 1247C734 1248 734.5 1250.1 738.5 1252.5Z" fill="#383B51"/>
<path d="M734 1258.5L733.553 1258.72L734.093 1259.8L734.474 1258.66L734 1258.5ZM738.5 1252.5L738.757 1252.93L739.472 1252.5L738.757 1252.07L738.5 1252.5ZM733.5 1247L733.947 1246.78L733.5 1245.88L733.053 1246.78L733.5 1247ZM729 1253L728.646 1252.65L728.194 1253.1L728.743 1253.43L729 1253ZM734.474 1258.66C734.759 1257.81 734.84 1257.04 735.375 1256.08C735.886 1255.16 736.815 1254.09 738.757 1252.93L738.243 1252.07C736.185 1253.31 735.114 1254.49 734.5 1255.59C733.91 1256.66 733.741 1257.69 733.526 1258.34L734.474 1258.66ZM733.053 1247.22C733.268 1247.65 733.564 1248.53 734.282 1249.52C735.015 1250.53 736.194 1251.7 738.243 1252.93L738.757 1252.07C736.806 1250.9 735.735 1249.82 735.093 1248.93C734.436 1248.02 734.232 1247.35 733.947 1246.78L733.053 1247.22ZM734.447 1258.28C734.232 1257.85 733.936 1256.97 733.218 1255.98C732.485 1254.97 731.306 1253.8 729.257 1252.57L728.743 1253.43C730.694 1254.6 731.765 1255.68 732.407 1256.57C733.064 1257.48 733.268 1258.15 733.553 1258.72L734.447 1258.28ZM733.053 1246.78C732.552 1247.78 732.192 1248.5 731.593 1249.33C730.992 1250.18 730.139 1251.15 728.646 1252.65L729.354 1253.35C730.861 1251.85 731.758 1250.82 732.407 1249.92C733.058 1249 733.448 1248.22 733.947 1247.22L733.053 1246.78Z" fill="#49352F"/>
<path d="M723.5 901.5C719.5 903.9 719.5 906 719 907.5C718.5 906.5 718 904.4 714 902C717 899 717.5 898 718.5 896C719 897 719.5 899.1 723.5 901.5Z" fill="#383B51"/>
<path d="M719 907.5L718.553 907.724L719.093 908.803L719.474 907.658L719 907.5ZM723.5 901.5L723.757 901.929L724.472 901.5L723.757 901.071L723.5 901.5ZM718.5 896L718.947 895.776L718.5 894.882L718.053 895.776L718.5 896ZM714 902L713.646 901.646L713.194 902.099L713.743 902.429L714 902ZM719.474 907.658C719.759 906.806 719.84 906.042 720.375 905.08C720.886 904.16 721.815 903.094 723.757 901.929L723.243 901.071C721.185 902.306 720.114 903.49 719.5 904.595C718.91 905.658 718.741 906.694 718.526 907.342L719.474 907.658ZM718.053 896.224C718.268 896.654 718.564 897.525 719.282 898.518C720.015 899.531 721.194 900.699 723.243 901.929L723.757 901.071C721.806 899.901 720.735 898.819 720.093 897.932C719.436 897.025 719.232 896.346 718.947 895.776L718.053 896.224ZM719.447 907.276C719.232 906.846 718.936 905.975 718.218 904.982C717.485 903.969 716.306 902.801 714.257 901.571L713.743 902.429C715.694 903.599 716.765 904.681 717.407 905.568C718.064 906.475 718.268 907.154 718.553 907.724L719.447 907.276ZM718.053 895.776C717.552 896.779 717.192 897.495 716.593 898.334C715.992 899.177 715.139 900.154 713.646 901.646L714.354 902.354C715.861 900.846 716.758 899.823 717.407 898.916C718.058 898.005 718.448 897.221 718.947 896.224L718.053 895.776Z" fill="#49352F"/>
<path d="M1255.5 1005.5C1251.5 1007.9 1251.5 1010 1251 1011.5C1250.5 1010.5 1250 1008.4 1246 1006C1249 1003 1249.5 1002 1250.5 1000C1251 1001 1251.5 1003.1 1255.5 1005.5Z" fill="#383B51"/>
<path d="M1251 1011.5L1250.55 1011.72L1251.09 1012.8L1251.47 1011.66L1251 1011.5ZM1255.5 1005.5L1255.76 1005.93L1256.47 1005.5L1255.76 1005.07L1255.5 1005.5ZM1250.5 1000L1250.95 999.776L1250.5 998.882L1250.05 999.776L1250.5 1000ZM1246 1006L1245.65 1005.65L1245.19 1006.1L1245.74 1006.43L1246 1006ZM1251.47 1011.66C1251.76 1010.81 1251.84 1010.04 1252.37 1009.08C1252.89 1008.16 1253.82 1007.09 1255.76 1005.93L1255.24 1005.07C1253.18 1006.31 1252.11 1007.49 1251.5 1008.59C1250.91 1009.66 1250.74 1010.69 1250.53 1011.34L1251.47 1011.66ZM1250.05 1000.22C1250.27 1000.65 1250.56 1001.53 1251.28 1002.52C1252.02 1003.53 1253.19 1004.7 1255.24 1005.93L1255.76 1005.07C1253.81 1003.9 1252.73 1002.82 1252.09 1001.93C1251.44 1001.02 1251.23 1000.35 1250.95 999.776L1250.05 1000.22ZM1251.45 1011.28C1251.23 1010.85 1250.94 1009.97 1250.22 1008.98C1249.48 1007.97 1248.31 1006.8 1246.26 1005.57L1245.74 1006.43C1247.69 1007.6 1248.77 1008.68 1249.41 1009.57C1250.06 1010.48 1250.27 1011.15 1250.55 1011.72L1251.45 1011.28ZM1250.05 999.776C1249.55 1000.78 1249.19 1001.5 1248.59 1002.33C1247.99 1003.18 1247.14 1004.15 1245.65 1005.65L1246.35 1006.35C1247.86 1004.85 1248.76 1003.82 1249.41 1002.92C1250.06 1002 1250.45 1001.22 1250.95 1000.22L1250.05 999.776Z" fill="#49352F"/>
<path d="M927.5 852.5C923.5 854.9 923.5 857 923 858.5C922.5 857.5 922 855.4 918 853C921 850 921.5 849 922.5 847C923 848 923.5 850.1 927.5 852.5Z" fill="#383B51"/>
<path d="M923 858.5L922.553 858.724L923.093 859.803L923.474 858.658L923 858.5ZM927.5 852.5L927.757 852.929L928.472 852.5L927.757 852.071L927.5 852.5ZM922.5 847L922.947 846.776L922.5 845.882L922.053 846.776L922.5 847ZM918 853L917.646 852.646L917.194 853.099L917.743 853.429L918 853ZM923.474 858.658C923.759 857.806 923.84 857.042 924.375 856.08C924.886 855.16 925.815 854.094 927.757 852.929L927.243 852.071C925.185 853.306 924.114 854.49 923.5 855.595C922.91 856.658 922.741 857.694 922.526 858.342L923.474 858.658ZM922.053 847.224C922.268 847.654 922.564 848.525 923.282 849.518C924.015 850.531 925.194 851.699 927.243 852.929L927.757 852.071C925.806 850.901 924.735 849.819 924.093 848.932C923.436 848.025 923.232 847.346 922.947 846.776L922.053 847.224ZM923.447 858.276C923.232 857.846 922.936 856.975 922.218 855.982C921.485 854.969 920.306 853.801 918.257 852.571L917.743 853.429C919.694 854.599 920.765 855.681 921.407 856.568C922.064 857.475 922.268 858.154 922.553 858.724L923.447 858.276ZM922.053 846.776C921.552 847.779 921.192 848.495 920.593 849.334C919.992 850.177 919.139 851.154 917.646 852.646L918.354 853.354C919.861 851.846 920.758 850.823 921.407 849.916C922.058 849.005 922.448 848.221 922.947 847.224L922.053 846.776Z" fill="#49352F"/>
<path d="M182.5 940.5C178.5 942.9 178.5 945 178 946.5C177.5 945.5 177 943.4 173 941C176 938 176.5 937 177.5 935C178 936 178.5 938.1 182.5 940.5Z" fill="#383B51"/>
<path d="M178 946.5L177.553 946.724L178.093 947.803L178.474 946.658L178 946.5ZM182.5 940.5L182.757 940.929L183.472 940.5L182.757 940.071L182.5 940.5ZM177.5 935L177.947 934.776L177.5 933.882L177.053 934.776L177.5 935ZM173 941L172.646 940.646L172.194 941.099L172.743 941.429L173 941ZM178.474 946.658C178.759 945.806 178.84 945.042 179.375 944.08C179.886 943.16 180.815 942.094 182.757 940.929L182.243 940.071C180.185 941.306 179.114 942.49 178.5 943.595C177.91 944.658 177.741 945.694 177.526 946.342L178.474 946.658ZM177.053 935.224C177.268 935.654 177.564 936.525 178.282 937.518C179.015 938.531 180.194 939.699 182.243 940.929L182.757 940.071C180.806 938.901 179.735 937.819 179.093 936.932C178.436 936.025 178.232 935.346 177.947 934.776L177.053 935.224ZM178.447 946.276C178.232 945.846 177.936 944.975 177.218 943.982C176.485 942.969 175.306 941.801 173.257 940.571L172.743 941.429C174.694 942.599 175.765 943.681 176.407 944.568C177.064 945.475 177.268 946.154 177.553 946.724L178.447 946.276ZM177.053 934.776C176.552 935.779 176.192 936.495 175.593 937.334C174.992 938.177 174.139 939.154 172.646 940.646L173.354 941.354C174.861 939.846 175.758 938.823 176.407 937.916C177.058 937.005 177.448 936.221 177.947 935.224L177.053 934.776Z" fill="#49352F"/>
<path d="M415.5 1037.5C411.5 1039.9 411.5 1042 411 1043.5C410.5 1042.5 410 1040.4 406 1038C409 1035 409.5 1034 410.5 1032C411 1033 411.5 1035.1 415.5 1037.5Z" fill="#383B51"/>
<path d="M411 1043.5L410.553 1043.72L411.093 1044.8L411.474 1043.66L411 1043.5ZM415.5 1037.5L415.757 1037.93L416.472 1037.5L415.757 1037.07L415.5 1037.5ZM410.5 1032L410.947 1031.78L410.5 1030.88L410.053 1031.78L410.5 1032ZM406 1038L405.646 1037.65L405.194 1038.1L405.743 1038.43L406 1038ZM411.474 1043.66C411.759 1042.81 411.84 1042.04 412.375 1041.08C412.886 1040.16 413.815 1039.09 415.757 1037.93L415.243 1037.07C413.185 1038.31 412.114 1039.49 411.5 1040.59C410.91 1041.66 410.741 1042.69 410.526 1043.34L411.474 1043.66ZM410.053 1032.22C410.268 1032.65 410.564 1033.53 411.282 1034.52C412.015 1035.53 413.194 1036.7 415.243 1037.93L415.757 1037.07C413.806 1035.9 412.735 1034.82 412.093 1033.93C411.436 1033.02 411.232 1032.35 410.947 1031.78L410.053 1032.22ZM411.447 1043.28C411.232 1042.85 410.936 1041.97 410.218 1040.98C409.485 1039.97 408.306 1038.8 406.257 1037.57L405.743 1038.43C407.694 1039.6 408.765 1040.68 409.407 1041.57C410.064 1042.48 410.268 1043.15 410.553 1043.72L411.447 1043.28ZM410.053 1031.78C409.552 1032.78 409.192 1033.5 408.593 1034.33C407.992 1035.18 407.139 1036.15 405.646 1037.65L406.354 1038.35C407.861 1036.85 408.758 1035.82 409.407 1034.92C410.058 1034 410.448 1033.22 410.947 1032.22L410.053 1031.78Z" fill="#49352F"/>
<path d="M373.5 816.5C369.5 818.9 369.5 821 369 822.5C368.5 821.5 368 819.4 364 817C367 814 367.5 813 368.5 811C369 812 369.5 814.1 373.5 816.5Z" fill="#383B51"/>
<path d="M369 822.5L368.553 822.724L369.093 823.803L369.474 822.658L369 822.5ZM373.5 816.5L373.757 816.929L374.472 816.5L373.757 816.071L373.5 816.5ZM368.5 811L368.947 810.776L368.5 809.882L368.053 810.776L368.5 811ZM364 817L363.646 816.646L363.194 817.099L363.743 817.429L364 817ZM369.474 822.658C369.759 821.806 369.84 821.042 370.375 820.08C370.886 819.16 371.815 818.094 373.757 816.929L373.243 816.071C371.185 817.306 370.114 818.49 369.5 819.595C368.91 820.658 368.741 821.694 368.526 822.342L369.474 822.658ZM368.053 811.224C368.268 811.654 368.564 812.525 369.282 813.518C370.015 814.531 371.194 815.699 373.243 816.929L373.757 816.071C371.806 814.901 370.735 813.819 370.093 812.932C369.436 812.025 369.232 811.346 368.947 810.776L368.053 811.224ZM369.447 822.276C369.232 821.846 368.936 820.975 368.218 819.982C367.485 818.969 366.306 817.801 364.257 816.571L363.743 817.429C365.694 818.599 366.765 819.681 367.407 820.568C368.064 821.475 368.268 822.154 368.553 822.724L369.447 822.276ZM368.053 810.776C367.552 811.779 367.192 812.495 366.593 813.334C365.992 814.177 365.139 815.154 363.646 816.646L364.354 817.354C365.861 815.846 366.758 814.823 367.407 813.916C368.058 813.005 368.448 812.221 368.947 811.224L368.053 810.776Z" fill="#49352F"/>
<path d="M16.5 1005.5C12.5 1007.9 12.5 1010 12 1011.5C11.5 1010.5 11 1008.4 7 1006C10 1003 10.5 1002 11.5 1000C12 1001 12.5 1003.1 16.5 1005.5Z" fill="#383B51"/>
<path d="M12 1011.5L11.5528 1011.72L12.0926 1012.8L12.4743 1011.66L12 1011.5ZM16.5 1005.5L16.7572 1005.93L17.4718 1005.5L16.7572 1005.07L16.5 1005.5ZM11.5 1000L11.9472 999.776L11.5 998.882L11.0528 999.776L11.5 1000ZM7 1006L6.64645 1005.65L6.19362 1006.1L6.74275 1006.43L7 1006ZM12.4743 1011.66C12.7585 1010.81 12.8404 1010.04 13.3746 1009.08C13.8857 1008.16 14.8152 1007.09 16.7572 1005.93L16.2428 1005.07C14.1848 1006.31 13.1143 1007.49 12.5004 1008.59C11.9096 1009.66 11.7415 1010.69 11.5257 1011.34L12.4743 1011.66ZM11.0528 1000.22C11.2679 1000.65 11.5637 1001.53 12.2824 1002.52C13.0151 1003.53 14.1936 1004.7 16.2428 1005.93L16.7572 1005.07C14.8064 1003.9 13.7349 1002.82 13.0926 1001.93C12.4363 1001.02 12.2321 1000.35 11.9472 999.776L11.0528 1000.22ZM12.4472 1011.28C12.2321 1010.85 11.9363 1009.97 11.2176 1008.98C10.4849 1007.97 9.30642 1006.8 7.25725 1005.57L6.74275 1006.43C8.69358 1007.6 9.76512 1008.68 10.4074 1009.57C11.0637 1010.48 11.2679 1011.15 11.5528 1011.72L12.4472 1011.28ZM11.0528 999.776C10.5517 1000.78 10.1924 1001.5 9.59313 1002.33C8.99157 1003.18 8.13879 1004.15 6.64645 1005.65L7.35355 1006.35C8.86121 1004.85 9.75843 1003.82 10.4069 1002.92C11.0576 1002 11.4483 1001.22 11.9472 1000.22L11.0528 999.776Z" fill="#49352F"/>
<path d="M10.5 1296.5C6.5 1298.9 6.5 1301 6 1302.5C5.5 1301.5 5 1299.4 1 1297C4 1294 4.5 1293 5.5 1291C6 1292 6.5 1294.1 10.5 1296.5Z" fill="#383B51"/>
<path d="M6 1302.5L5.55279 1302.72L6.09262 1303.8L6.47434 1302.66L6 1302.5ZM10.5 1296.5L10.7572 1296.93L11.4718 1296.5L10.7572 1296.07L10.5 1296.5ZM5.5 1291L5.94721 1290.78L5.5 1289.88L5.05279 1290.78L5.5 1291ZM1 1297L0.646447 1296.65L0.193624 1297.1L0.742752 1297.43L1 1297ZM6.47434 1302.66C6.75853 1301.81 6.84038 1301.04 7.37458 1300.08C7.88567 1299.16 8.8152 1298.09 10.7572 1296.93L10.2428 1296.07C8.1848 1297.31 7.11433 1298.49 6.50042 1299.59C5.90962 1300.66 5.74147 1301.69 5.52566 1302.34L6.47434 1302.66ZM5.05279 1291.22C5.26793 1291.65 5.56374 1292.53 6.28244 1293.52C7.01512 1294.53 8.19358 1295.7 10.2428 1296.93L10.7572 1296.07C8.80642 1294.9 7.73488 1293.82 7.09256 1292.93C6.43626 1292.02 6.23207 1291.35 5.94721 1290.78L5.05279 1291.22ZM6.44721 1302.28C6.23207 1301.85 5.93626 1300.97 5.21756 1299.98C4.48488 1298.97 3.30642 1297.8 1.25725 1296.57L0.742752 1297.43C2.69358 1298.6 3.76512 1299.68 4.40744 1300.57C5.06374 1301.48 5.26793 1302.15 5.55279 1302.72L6.44721 1302.28ZM5.05279 1290.78C4.55173 1291.78 4.19242 1292.5 3.59313 1293.33C2.99157 1294.18 2.13879 1295.15 0.646447 1296.65L1.35355 1297.35C2.86121 1295.85 3.75843 1294.82 4.40687 1293.92C5.05758 1293 5.44827 1292.22 5.94721 1291.22L5.05279 1290.78Z" fill="#49352F"/>
<path d="M312.5 1519.5C308.5 1521.9 308.5 1524 308 1525.5C307.5 1524.5 307 1522.4 303 1520C306 1517 306.5 1516 307.5 1514C308 1515 308.5 1517.1 312.5 1519.5Z" fill="#383B51"/>
<path d="M308 1525.5L307.553 1525.72L308.093 1526.8L308.474 1525.66L308 1525.5ZM312.5 1519.5L312.757 1519.93L313.472 1519.5L312.757 1519.07L312.5 1519.5ZM307.5 1514L307.947 1513.78L307.5 1512.88L307.053 1513.78L307.5 1514ZM303 1520L302.646 1519.65L302.194 1520.1L302.743 1520.43L303 1520ZM308.474 1525.66C308.759 1524.81 308.84 1524.04 309.375 1523.08C309.886 1522.16 310.815 1521.09 312.757 1519.93L312.243 1519.07C310.185 1520.31 309.114 1521.49 308.5 1522.59C307.91 1523.66 307.741 1524.69 307.526 1525.34L308.474 1525.66ZM307.053 1514.22C307.268 1514.65 307.564 1515.53 308.282 1516.52C309.015 1517.53 310.194 1518.7 312.243 1519.93L312.757 1519.07C310.806 1517.9 309.735 1516.82 309.093 1515.93C308.436 1515.02 308.232 1514.35 307.947 1513.78L307.053 1514.22ZM308.447 1525.28C308.232 1524.85 307.936 1523.97 307.218 1522.98C306.485 1521.97 305.306 1520.8 303.257 1519.57L302.743 1520.43C304.694 1521.6 305.765 1522.68 306.407 1523.57C307.064 1524.48 307.268 1525.15 307.553 1525.72L308.447 1525.28ZM307.053 1513.78C306.552 1514.78 306.192 1515.5 305.593 1516.33C304.992 1517.18 304.139 1518.15 302.646 1519.65L303.354 1520.35C304.861 1518.85 305.758 1517.82 306.407 1516.92C307.058 1516 307.448 1515.22 307.947 1514.22L307.053 1513.78Z" fill="#49352F"/>
<path d="M135.5 1463.5C131.5 1465.9 131.5 1468 131 1469.5C130.5 1468.5 130 1466.4 126 1464C129 1461 129.5 1460 130.5 1458C131 1459 131.5 1461.1 135.5 1463.5Z" fill="#383B51"/>
<path d="M131 1469.5L130.553 1469.72L131.093 1470.8L131.474 1469.66L131 1469.5ZM135.5 1463.5L135.757 1463.93L136.472 1463.5L135.757 1463.07L135.5 1463.5ZM130.5 1458L130.947 1457.78L130.5 1456.88L130.053 1457.78L130.5 1458ZM126 1464L125.646 1463.65L125.194 1464.1L125.743 1464.43L126 1464ZM131.474 1469.66C131.759 1468.81 131.84 1468.04 132.375 1467.08C132.886 1466.16 133.815 1465.09 135.757 1463.93L135.243 1463.07C133.185 1464.31 132.114 1465.49 131.5 1466.59C130.91 1467.66 130.741 1468.69 130.526 1469.34L131.474 1469.66ZM130.053 1458.22C130.268 1458.65 130.564 1459.53 131.282 1460.52C132.015 1461.53 133.194 1462.7 135.243 1463.93L135.757 1463.07C133.806 1461.9 132.735 1460.82 132.093 1459.93C131.436 1459.02 131.232 1458.35 130.947 1457.78L130.053 1458.22ZM131.447 1469.28C131.232 1468.85 130.936 1467.97 130.218 1466.98C129.485 1465.97 128.306 1464.8 126.257 1463.57L125.743 1464.43C127.694 1465.6 128.765 1466.68 129.407 1467.57C130.064 1468.48 130.268 1469.15 130.553 1469.72L131.447 1469.28ZM130.053 1457.78C129.552 1458.78 129.192 1459.5 128.593 1460.33C127.992 1461.18 127.139 1462.15 125.646 1463.65L126.354 1464.35C127.861 1462.85 128.758 1461.82 129.407 1460.92C130.058 1460 130.448 1459.22 130.947 1458.22L130.053 1457.78Z" fill="#49352F"/>
<path d="M1301.5 1234.5C1297.5 1236.9 1297.5 1239 1297 1240.5C1296.5 1239.5 1296 1237.4 1292 1235C1295 1232 1295.5 1231 1296.5 1229C1297 1230 1297.5 1232.1 1301.5 1234.5Z" fill="#383B51"/>
<path d="M1297 1240.5L1296.55 1240.72L1297.09 1241.8L1297.47 1240.66L1297 1240.5ZM1301.5 1234.5L1301.76 1234.93L1302.47 1234.5L1301.76 1234.07L1301.5 1234.5ZM1296.5 1229L1296.95 1228.78L1296.5 1227.88L1296.05 1228.78L1296.5 1229ZM1292 1235L1291.65 1234.65L1291.19 1235.1L1291.74 1235.43L1292 1235ZM1297.47 1240.66C1297.76 1239.81 1297.84 1239.04 1298.37 1238.08C1298.89 1237.16 1299.82 1236.09 1301.76 1234.93L1301.24 1234.07C1299.18 1235.31 1298.11 1236.49 1297.5 1237.59C1296.91 1238.66 1296.74 1239.69 1296.53 1240.34L1297.47 1240.66ZM1296.05 1229.22C1296.27 1229.65 1296.56 1230.53 1297.28 1231.52C1298.02 1232.53 1299.19 1233.7 1301.24 1234.93L1301.76 1234.07C1299.81 1232.9 1298.73 1231.82 1298.09 1230.93C1297.44 1230.02 1297.23 1229.35 1296.95 1228.78L1296.05 1229.22ZM1297.45 1240.28C1297.23 1239.85 1296.94 1238.97 1296.22 1237.98C1295.48 1236.97 1294.31 1235.8 1292.26 1234.57L1291.74 1235.43C1293.69 1236.6 1294.77 1237.68 1295.41 1238.57C1296.06 1239.48 1296.27 1240.15 1296.55 1240.72L1297.45 1240.28ZM1296.05 1228.78C1295.55 1229.78 1295.19 1230.5 1294.59 1231.33C1293.99 1232.18 1293.14 1233.15 1291.65 1234.65L1292.35 1235.35C1293.86 1233.85 1294.76 1232.82 1295.41 1231.92C1296.06 1231 1296.45 1230.22 1296.95 1229.22L1296.05 1228.78Z" fill="#49352F"/>
<path d="M1354.5 924.5C1350.5 926.9 1350.5 929 1350 930.5C1349.5 929.5 1349 927.4 1345 925C1348 922 1348.5 921 1349.5 919C1350 920 1350.5 922.1 1354.5 924.5Z" fill="#383B51"/>
<path d="M1350 930.5L1349.55 930.724L1350.09 931.803L1350.47 930.658L1350 930.5ZM1354.5 924.5L1354.76 924.929L1355.47 924.5L1354.76 924.071L1354.5 924.5ZM1349.5 919L1349.95 918.776L1349.5 917.882L1349.05 918.776L1349.5 919ZM1345 925L1344.65 924.646L1344.19 925.099L1344.74 925.429L1345 925ZM1350.47 930.658C1350.76 929.806 1350.84 929.042 1351.37 928.08C1351.89 927.16 1352.82 926.094 1354.76 924.929L1354.24 924.071C1352.18 925.306 1351.11 926.49 1350.5 927.595C1349.91 928.658 1349.74 929.694 1349.53 930.342L1350.47 930.658ZM1349.05 919.224C1349.27 919.654 1349.56 920.525 1350.28 921.518C1351.02 922.531 1352.19 923.699 1354.24 924.929L1354.76 924.071C1352.81 922.901 1351.73 921.819 1351.09 920.932C1350.44 920.025 1350.23 919.346 1349.95 918.776L1349.05 919.224ZM1350.45 930.276C1350.23 929.846 1349.94 928.975 1349.22 927.982C1348.48 926.969 1347.31 925.801 1345.26 924.571L1344.74 925.429C1346.69 926.599 1347.77 927.681 1348.41 928.568C1349.06 929.475 1349.27 930.154 1349.55 930.724L1350.45 930.276ZM1349.05 918.776C1348.55 919.779 1348.19 920.495 1347.59 921.334C1346.99 922.177 1346.14 923.154 1344.65 924.646L1345.35 925.354C1346.86 923.846 1347.76 922.823 1348.41 921.916C1349.06 921.005 1349.45 920.221 1349.95 919.224L1349.05 918.776Z" fill="#49352F"/>
<path d="M1028.5 805.5C1024.5 807.9 1024.5 810 1024 811.5C1023.5 810.5 1023 808.4 1019 806C1022 803 1022.5 802 1023.5 800C1024 801 1024.5 803.1 1028.5 805.5Z" fill="#383B51"/>
<path d="M1024 811.5L1023.55 811.724L1024.09 812.803L1024.47 811.658L1024 811.5ZM1028.5 805.5L1028.76 805.929L1029.47 805.5L1028.76 805.071L1028.5 805.5ZM1023.5 800L1023.95 799.776L1023.5 798.882L1023.05 799.776L1023.5 800ZM1019 806L1018.65 805.646L1018.19 806.099L1018.74 806.429L1019 806ZM1024.47 811.658C1024.76 810.806 1024.84 810.042 1025.37 809.08C1025.89 808.16 1026.82 807.094 1028.76 805.929L1028.24 805.071C1026.18 806.306 1025.11 807.49 1024.5 808.595C1023.91 809.658 1023.74 810.694 1023.53 811.342L1024.47 811.658ZM1023.05 800.224C1023.27 800.654 1023.56 801.525 1024.28 802.518C1025.02 803.531 1026.19 804.699 1028.24 805.929L1028.76 805.071C1026.81 803.901 1025.73 802.819 1025.09 801.932C1024.44 801.025 1024.23 800.346 1023.95 799.776L1023.05 800.224ZM1024.45 811.276C1024.23 810.846 1023.94 809.975 1023.22 808.982C1022.48 807.969 1021.31 806.801 1019.26 805.571L1018.74 806.429C1020.69 807.599 1021.77 808.681 1022.41 809.568C1023.06 810.475 1023.27 811.154 1023.55 811.724L1024.45 811.276ZM1023.05 799.776C1022.55 800.779 1022.19 801.495 1021.59 802.334C1020.99 803.177 1020.14 804.154 1018.65 805.646L1019.35 806.354C1020.86 804.846 1021.76 803.823 1022.41 802.916C1023.06 802.005 1023.45 801.221 1023.95 800.224L1023.05 799.776Z" fill="#49352F"/>
<path d="M1049.5 989.5C1045.5 991.9 1045.5 994 1045 995.5C1044.5 994.5 1044 992.4 1040 990C1043 987 1043.5 986 1044.5 984C1045 985 1045.5 987.1 1049.5 989.5Z" fill="#383B51"/>
<path d="M1045 995.5L1044.55 995.724L1045.09 996.803L1045.47 995.658L1045 995.5ZM1049.5 989.5L1049.76 989.929L1050.47 989.5L1049.76 989.071L1049.5 989.5ZM1044.5 984L1044.95 983.776L1044.5 982.882L1044.05 983.776L1044.5 984ZM1040 990L1039.65 989.646L1039.19 990.099L1039.74 990.429L1040 990ZM1045.47 995.658C1045.76 994.806 1045.84 994.042 1046.37 993.08C1046.89 992.16 1047.82 991.094 1049.76 989.929L1049.24 989.071C1047.18 990.306 1046.11 991.49 1045.5 992.595C1044.91 993.658 1044.74 994.694 1044.53 995.342L1045.47 995.658ZM1044.05 984.224C1044.27 984.654 1044.56 985.525 1045.28 986.518C1046.02 987.531 1047.19 988.699 1049.24 989.929L1049.76 989.071C1047.81 987.901 1046.73 986.819 1046.09 985.932C1045.44 985.025 1045.23 984.346 1044.95 983.776L1044.05 984.224ZM1045.45 995.276C1045.23 994.846 1044.94 993.975 1044.22 992.982C1043.48 991.969 1042.31 990.801 1040.26 989.571L1039.74 990.429C1041.69 991.599 1042.77 992.681 1043.41 993.568C1044.06 994.475 1044.27 995.154 1044.55 995.724L1045.45 995.276ZM1044.05 983.776C1043.55 984.779 1043.19 985.495 1042.59 986.334C1041.99 987.177 1041.14 988.154 1039.65 989.646L1040.35 990.354C1041.86 988.846 1042.76 987.823 1043.41 986.916C1044.06 986.005 1044.45 985.221 1044.95 984.224L1044.05 983.776Z" fill="#49352F"/>
</svg>
