<svg width="330" height="219" viewBox="0 0 330 219" fill="none" xmlns="http://www.w3.org/2000/svg">
<rect width="330" height="219" rx="5" fill="white"/>
<rect width="330" height="219" fill="url(#paint0_linear_1034_2319)"/>
<rect width="330" height="219" fill="url(#paint1_radial_1034_2319)" fill-opacity="0.2"/>
<path d="M96.232 75H97.768C99.304 75 100.808 75.192 102.28 75.576C103.752 75.896 105.064 76.504 106.216 77.4C107.368 78.232 108.296 79.384 109 80.856C109.704 82.328 110.056 84.216 110.056 86.52V118.776C110.056 121.016 109.736 122.936 109.096 124.536C108.456 126.072 107.592 127.352 106.504 128.376C105.48 129.4 104.264 130.168 102.856 130.68C101.512 131.128 100.072 131.352 98.536 131.352H97.384L96.232 131.16V75ZM84.04 117.816C82.568 117.816 81.16 117.56 79.816 117.048C78.536 116.472 77.384 115.672 76.36 114.648C75.336 113.56 74.504 112.248 73.864 110.712C73.288 109.112 73 107.256 73 105.144V75H75.016C78.92 75 81.864 76.056 83.848 78.168C85.832 80.216 86.824 83.576 86.824 88.248V101.88C86.824 102.648 86.856 103.384 86.92 104.088C87.048 104.792 87.24 105.432 87.496 106.008C87.816 106.52 88.232 106.968 88.744 107.352C89.32 107.672 90.088 107.832 91.048 107.832C91.56 107.832 92.072 107.768 92.584 107.64C93.16 107.448 93.672 107.16 94.12 106.776C94.12 108.248 93.928 109.656 93.544 111C93.16 112.28 92.552 113.432 91.72 114.456C90.888 115.48 89.832 116.312 88.552 116.952C87.272 117.528 85.768 117.816 84.04 117.816ZM80.2 135.576C80.2 133.592 80.552 131.992 81.256 130.776C81.96 129.496 82.824 128.504 83.848 127.8C84.936 127.096 86.056 126.648 87.208 126.456C88.424 126.2 89.48 126.072 90.376 126.072C90.824 126.072 91.272 126.104 91.72 126.168C92.232 126.168 92.552 126.2 92.68 126.264V130.68C92.68 132.024 93 133.016 93.64 133.656C94.28 134.296 95.08 134.616 96.04 134.616C97.192 134.616 98.216 134.232 99.112 133.464C99.304 133.976 99.4 134.456 99.4 134.904C99.464 135.288 99.496 135.736 99.496 136.248C99.496 137.016 99.304 137.912 98.92 138.936C98.6 139.896 98.056 140.824 97.288 141.72C96.584 142.552 95.624 143.288 94.408 143.928C93.256 144.504 91.848 144.792 90.184 144.792C88.456 144.792 86.952 144.504 85.672 143.928C84.456 143.352 83.432 142.648 82.6 141.816C81.832 140.92 81.224 139.928 80.776 138.84C80.392 137.752 80.2 136.664 80.2 135.576Z" fill="#D8552A"/>
<path d="M96.232 75H97.768C99.304 75 100.808 75.192 102.28 75.576C103.752 75.896 105.064 76.504 106.216 77.4C107.368 78.232 108.296 79.384 109 80.856C109.704 82.328 110.056 84.216 110.056 86.52V118.776C110.056 121.016 109.736 122.936 109.096 124.536C108.456 126.072 107.592 127.352 106.504 128.376C105.48 129.4 104.264 130.168 102.856 130.68C101.512 131.128 100.072 131.352 98.536 131.352H97.384L96.232 131.16V75ZM84.04 117.816C82.568 117.816 81.16 117.56 79.816 117.048C78.536 116.472 77.384 115.672 76.36 114.648C75.336 113.56 74.504 112.248 73.864 110.712C73.288 109.112 73 107.256 73 105.144V75H75.016C78.92 75 81.864 76.056 83.848 78.168C85.832 80.216 86.824 83.576 86.824 88.248V101.88C86.824 102.648 86.856 103.384 86.92 104.088C87.048 104.792 87.24 105.432 87.496 106.008C87.816 106.52 88.232 106.968 88.744 107.352C89.32 107.672 90.088 107.832 91.048 107.832C91.56 107.832 92.072 107.768 92.584 107.64C93.16 107.448 93.672 107.16 94.12 106.776C94.12 108.248 93.928 109.656 93.544 111C93.16 112.28 92.552 113.432 91.72 114.456C90.888 115.48 89.832 116.312 88.552 116.952C87.272 117.528 85.768 117.816 84.04 117.816ZM80.2 135.576C80.2 133.592 80.552 131.992 81.256 130.776C81.96 129.496 82.824 128.504 83.848 127.8C84.936 127.096 86.056 126.648 87.208 126.456C88.424 126.2 89.48 126.072 90.376 126.072C90.824 126.072 91.272 126.104 91.72 126.168C92.232 126.168 92.552 126.2 92.68 126.264V130.68C92.68 132.024 93 133.016 93.64 133.656C94.28 134.296 95.08 134.616 96.04 134.616C97.192 134.616 98.216 134.232 99.112 133.464C99.304 133.976 99.4 134.456 99.4 134.904C99.464 135.288 99.496 135.736 99.496 136.248C99.496 137.016 99.304 137.912 98.92 138.936C98.6 139.896 98.056 140.824 97.288 141.72C96.584 142.552 95.624 143.288 94.408 143.928C93.256 144.504 91.848 144.792 90.184 144.792C88.456 144.792 86.952 144.504 85.672 143.928C84.456 143.352 83.432 142.648 82.6 141.816C81.832 140.92 81.224 139.928 80.776 138.84C80.392 137.752 80.2 136.664 80.2 135.576Z" stroke="#D8552A"/>
<path d="M123.527 107.24C123.255 107.24 123.039 107.16 122.879 107C122.719 106.824 122.639 106.584 122.639 106.28V93.08C122.639 92.184 122.903 91.48 123.431 90.968C123.975 90.456 124.727 90.2 125.687 90.2H133.127C133.751 90.2 134.063 90.456 134.063 90.968C134.063 91.192 133.983 91.368 133.823 91.496C133.663 91.624 133.431 91.688 133.127 91.688H125.711C125.327 91.688 125.015 91.816 124.775 92.072C124.551 92.328 124.439 92.664 124.439 93.08V97.904H131.303C131.927 97.904 132.239 98.16 132.239 98.672C132.239 98.912 132.151 99.096 131.975 99.224C131.815 99.352 131.591 99.416 131.303 99.416H124.439V106.28C124.439 106.584 124.359 106.824 124.199 107C124.039 107.16 123.815 107.24 123.527 107.24Z" fill="white"/>
<path d="M146.78 107.24C145.164 107.24 143.708 106.888 142.412 106.184C141.116 105.464 140.092 104.448 139.34 103.136C138.604 101.824 138.236 100.312 138.236 98.6C138.236 96.872 138.604 95.36 139.34 94.064C140.092 92.752 141.116 91.744 142.412 91.04C143.708 90.32 145.164 89.96 146.78 89.96C148.396 89.96 149.852 90.32 151.148 91.04C152.444 91.744 153.46 92.752 154.196 94.064C154.948 95.36 155.324 96.872 155.324 98.6C155.324 100.312 154.948 101.824 154.196 103.136C153.46 104.448 152.444 105.464 151.148 106.184C149.852 106.888 148.396 107.24 146.78 107.24ZM146.78 105.704C148.076 105.704 149.228 105.424 150.236 104.864C151.26 104.304 152.06 103.496 152.636 102.44C153.228 101.368 153.524 100.088 153.524 98.6C153.524 97.096 153.22 95.808 152.612 94.736C152.02 93.664 151.204 92.856 150.164 92.312C149.14 91.768 147.996 91.496 146.732 91.496C145.452 91.496 144.3 91.776 143.276 92.336C142.268 92.896 141.476 93.712 140.9 94.784C140.324 95.856 140.036 97.128 140.036 98.6C140.036 100.088 140.324 101.368 140.9 102.44C141.492 103.496 142.292 104.304 143.3 104.864C144.324 105.424 145.484 105.704 146.78 105.704Z" fill="white"/>
<path d="M168.484 107.24C167.06 107.24 165.82 106.96 164.764 106.4C163.724 105.84 162.924 105.032 162.364 103.976C161.804 102.92 161.524 101.664 161.524 100.208V90.92C161.524 90.616 161.604 90.384 161.764 90.224C161.924 90.048 162.14 89.96 162.412 89.96C162.7 89.96 162.924 90.048 163.084 90.224C163.244 90.384 163.324 90.616 163.324 90.92V100.28C163.324 102.008 163.78 103.344 164.692 104.288C165.604 105.232 166.884 105.704 168.532 105.704C170.196 105.704 171.492 105.232 172.42 104.288C173.364 103.328 173.836 101.992 173.836 100.28V90.92C173.836 90.616 173.916 90.384 174.076 90.224C174.252 90.048 174.476 89.96 174.748 89.96C175.036 89.96 175.252 90.048 175.396 90.224C175.556 90.384 175.636 90.616 175.636 90.92V100.208C175.636 101.616 175.348 102.856 174.772 103.928C174.196 104.984 173.364 105.8 172.276 106.376C171.204 106.952 169.94 107.24 168.484 107.24Z" fill="white"/>
<path d="M183.227 107.24C182.955 107.24 182.739 107.16 182.579 107C182.419 106.824 182.339 106.584 182.339 106.28V96.488C182.339 95.16 182.619 94.008 183.179 93.032C183.755 92.04 184.571 91.28 185.627 90.752C186.683 90.224 187.923 89.96 189.347 89.96C190.771 89.96 192.003 90.224 193.043 90.752C194.099 91.28 194.907 92.04 195.467 93.032C196.043 94.008 196.331 95.16 196.331 96.488V106.28C196.331 106.584 196.251 106.824 196.091 107C195.947 107.16 195.731 107.24 195.443 107.24C195.171 107.24 194.947 107.16 194.771 107C194.611 106.824 194.531 106.584 194.531 106.28V96.416C194.531 94.864 194.075 93.656 193.163 92.792C192.251 91.928 190.979 91.496 189.347 91.496C187.747 91.496 186.475 91.936 185.531 92.816C184.603 93.696 184.139 94.896 184.139 96.416V106.28C184.139 106.584 184.059 106.824 183.899 107C183.739 107.16 183.515 107.24 183.227 107.24Z" fill="white"/>
<path d="M206.254 107C205.278 107 204.518 106.744 203.974 106.232C203.43 105.704 203.158 104.984 203.158 104.072V93.08C203.158 92.184 203.422 91.48 203.95 90.968C204.494 90.456 205.246 90.2 206.206 90.2H209.566C211.23 90.2 212.678 90.552 213.91 91.256C215.158 91.944 216.118 92.92 216.79 94.184C217.462 95.448 217.798 96.928 217.798 98.624C217.798 100.32 217.462 101.8 216.79 103.064C216.118 104.312 215.158 105.28 213.91 105.968C212.678 106.656 211.23 107 209.566 107H206.254ZM209.326 105.512C211.438 105.512 213.07 104.912 214.222 103.712C215.39 102.512 215.974 100.816 215.974 98.624C215.974 96.432 215.39 94.728 214.222 93.512C213.054 92.296 211.422 91.688 209.326 91.688H206.23C205.846 91.688 205.534 91.816 205.294 92.072C205.07 92.328 204.958 92.664 204.958 93.08V104.12C204.958 104.536 205.07 104.872 205.294 105.128C205.534 105.384 205.846 105.512 206.23 105.512H209.326Z" fill="white"/>
<path d="M224.088 93.2C224.088 92.288 224.352 91.56 224.88 91.016C225.424 90.472 226.208 90.2 227.232 90.2H231.72C236.072 90.2 238.248 92.008 238.248 95.624C238.248 97.368 237.72 98.688 236.664 99.584C235.608 100.48 234.016 100.928 231.888 100.928L236.544 105.752C236.688 105.896 236.76 106.08 236.76 106.304C236.76 106.592 236.64 106.824 236.4 107C236.208 107.144 236.008 107.216 235.8 107.216C235.48 107.216 235.176 107.056 234.888 106.736L229.368 100.928H226.128V106.208C226.128 106.528 226.032 106.784 225.84 106.976C225.664 107.152 225.416 107.24 225.096 107.24C224.776 107.24 224.528 107.152 224.352 106.976C224.176 106.784 224.088 106.528 224.088 106.208V93.2ZM231.84 99.272C233.312 99.272 234.4 99 235.104 98.456C235.824 97.896 236.184 96.952 236.184 95.624C236.184 94.28 235.824 93.32 235.104 92.744C234.384 92.152 233.296 91.856 231.84 91.856H227.352C226.984 91.856 226.688 91.976 226.464 92.216C226.24 92.456 226.128 92.784 226.128 93.2V99.272H231.84Z" fill="white"/>
<path d="M257.059 89.96C257.331 89.96 257.547 90.048 257.707 90.224C257.867 90.384 257.947 90.616 257.947 90.92V93.92C257.947 95.28 257.691 96.512 257.179 97.616C256.683 98.704 255.971 99.584 255.043 100.256C254.115 100.928 253.051 101.336 251.851 101.48V106.28C251.851 106.584 251.771 106.824 251.611 107C251.451 107.16 251.227 107.24 250.939 107.24C250.667 107.24 250.451 107.16 250.291 107C250.131 106.824 250.051 106.584 250.051 106.28V101.48C248.803 101.352 247.715 100.96 246.787 100.304C245.875 99.648 245.171 98.776 244.675 97.688C244.179 96.6 243.931 95.344 243.931 93.92V90.92C243.931 90.616 244.011 90.384 244.171 90.224C244.331 90.048 244.547 89.96 244.819 89.96C245.107 89.96 245.331 90.048 245.491 90.224C245.651 90.384 245.731 90.616 245.731 90.92V93.992C245.731 95.88 246.187 97.352 247.099 98.408C248.027 99.464 249.307 99.992 250.939 99.992C252.555 99.992 253.827 99.464 254.755 98.408C255.683 97.336 256.147 95.864 256.147 93.992V90.92C256.147 90.616 256.227 90.384 256.387 90.224C256.563 90.048 256.787 89.96 257.059 89.96Z" fill="white"/>
<path d="M125.705 131C124.489 131 123.545 130.68 122.873 130.04C122.201 129.4 121.865 128.504 121.865 127.352V117.752C121.865 116.632 122.185 115.76 122.825 115.136C123.481 114.512 124.385 114.2 125.537 114.2H128.897C130.737 114.2 132.329 114.536 133.673 115.208C135.017 115.88 136.041 116.848 136.745 118.112C137.465 119.376 137.825 120.88 137.825 122.624C137.825 124.368 137.465 125.872 136.745 127.136C136.041 128.384 135.017 129.344 133.673 130.016C132.345 130.672 130.753 131 128.897 131H125.705ZM128.657 128.528C130.657 128.528 132.145 128.048 133.121 127.088C134.097 126.112 134.585 124.624 134.585 122.624C134.585 120.624 134.089 119.136 133.097 118.16C132.121 117.168 130.641 116.672 128.657 116.672H126.089C125.769 116.672 125.513 116.776 125.321 116.984C125.145 117.192 125.057 117.48 125.057 117.848V127.352C125.057 127.72 125.145 128.008 125.321 128.216C125.513 128.424 125.769 128.528 126.089 128.528H128.657Z" fill="white"/>
<path d="M144.848 131.216C144.368 131.216 143.984 131.088 143.696 130.832C143.408 130.576 143.264 130.224 143.264 129.776V121.376C143.264 119.056 143.928 117.24 145.256 115.928C146.584 114.616 148.432 113.96 150.8 113.96C152.352 113.96 153.696 114.256 154.832 114.848C155.968 115.44 156.832 116.296 157.424 117.416C158.032 118.536 158.336 119.856 158.336 121.376V129.776C158.336 130.224 158.192 130.576 157.904 130.832C157.616 131.088 157.232 131.216 156.752 131.216C156.272 131.216 155.88 131.088 155.576 130.832C155.288 130.56 155.144 130.208 155.144 129.776V125.864H146.456V129.776C146.456 130.208 146.304 130.56 146 130.832C145.712 131.088 145.328 131.216 144.848 131.216ZM155.144 123.392V121.304C155.144 119.704 154.776 118.504 154.04 117.704C153.32 116.888 152.24 116.48 150.8 116.48C147.904 116.48 146.456 118.088 146.456 121.304V123.392H155.144Z" fill="white"/>
<path d="M172.419 131.24C170.547 131.24 168.931 130.88 167.571 130.16C166.227 129.424 165.203 128.408 164.499 127.112C163.795 125.8 163.443 124.296 163.443 122.6C163.443 120.904 163.795 119.408 164.499 118.112C165.203 116.8 166.227 115.784 167.571 115.064C168.931 114.328 170.547 113.96 172.419 113.96C174.291 113.96 175.899 114.328 177.243 115.064C178.603 115.784 179.635 116.8 180.339 118.112C181.043 119.408 181.395 120.904 181.395 122.6C181.395 124.296 181.043 125.8 180.339 127.112C179.635 128.408 178.603 129.424 177.243 130.16C175.899 130.88 174.291 131.24 172.419 131.24ZM172.419 128.72C174.243 128.72 175.659 128.176 176.667 127.088C177.675 125.984 178.179 124.488 178.179 122.6C178.179 120.696 177.651 119.2 176.595 118.112C175.555 117.024 174.083 116.48 172.179 116.48C170.435 116.48 169.075 117.04 168.099 118.16C167.139 119.264 166.659 120.744 166.659 122.6C166.659 124.488 167.163 125.984 168.171 127.088C169.179 128.176 170.595 128.72 172.419 128.72Z" fill="white"/>
<defs>
<linearGradient id="paint0_linear_1034_2319" x1="-5.06844e-06" y1="4.86667" x2="332.447" y2="202.487" gradientUnits="userSpaceOnUse">
<stop stop-color="#060E1B"/>
<stop offset="1" stop-color="#1F0D0E"/>
</linearGradient>
<radialGradient id="paint1_radial_1034_2319" cx="0" cy="0" r="1" gradientUnits="userSpaceOnUse" gradientTransform="translate(-9.73959 94.6567) rotate(29.7813) scale(123.702 204.298)">
<stop stop-color="#CCBA76"/>
<stop offset="0.982448" stop-color="#B78810" stop-opacity="0"/>
</radialGradient>
</defs>
</svg>
