<svg width="330" height="219" viewBox="0 0 330 219" fill="none" xmlns="http://www.w3.org/2000/svg">
<rect width="330" height="219" rx="5" fill="#D7B9A3"/>
<path d="M95.232 75H96.768C98.304 75 99.808 75.192 101.28 75.576C102.752 75.896 104.064 76.504 105.216 77.4C106.368 78.232 107.296 79.384 108 80.856C108.704 82.328 109.056 84.216 109.056 86.52V118.776C109.056 121.016 108.736 122.936 108.096 124.536C107.456 126.072 106.592 127.352 105.504 128.376C104.48 129.4 103.264 130.168 101.856 130.68C100.512 131.128 99.072 131.352 97.536 131.352H96.384L95.232 131.16V75ZM83.04 117.816C81.568 117.816 80.16 117.56 78.816 117.048C77.536 116.472 76.384 115.672 75.36 114.648C74.336 113.56 73.504 112.248 72.864 110.712C72.288 109.112 72 107.256 72 105.144V75H74.016C77.92 75 80.864 76.056 82.848 78.168C84.832 80.216 85.824 83.576 85.824 88.248V101.88C85.824 102.648 85.856 103.384 85.92 104.088C86.048 104.792 86.24 105.432 86.496 106.008C86.816 106.52 87.232 106.968 87.744 107.352C88.32 107.672 89.088 107.832 90.048 107.832C90.56 107.832 91.072 107.768 91.584 107.64C92.16 107.448 92.672 107.16 93.12 106.776C93.12 108.248 92.928 109.656 92.544 111C92.16 112.28 91.552 113.432 90.72 114.456C89.888 115.48 88.832 116.312 87.552 116.952C86.272 117.528 84.768 117.816 83.04 117.816ZM79.2 135.576C79.2 133.592 79.552 131.992 80.256 130.776C80.96 129.496 81.824 128.504 82.848 127.8C83.936 127.096 85.056 126.648 86.208 126.456C87.424 126.2 88.48 126.072 89.376 126.072C89.824 126.072 90.272 126.104 90.72 126.168C91.232 126.168 91.552 126.2 91.68 126.264V130.68C91.68 132.024 92 133.016 92.64 133.656C93.28 134.296 94.08 134.616 95.04 134.616C96.192 134.616 97.216 134.232 98.112 133.464C98.304 133.976 98.4 134.456 98.4 134.904C98.464 135.288 98.496 135.736 98.496 136.248C98.496 137.016 98.304 137.912 97.92 138.936C97.6 139.896 97.056 140.824 96.288 141.72C95.584 142.552 94.624 143.288 93.408 143.928C92.256 144.504 90.848 144.792 89.184 144.792C87.456 144.792 85.952 144.504 84.672 143.928C83.456 143.352 82.432 142.648 81.6 141.816C80.832 140.92 80.224 139.928 79.776 138.84C79.392 137.752 79.2 136.664 79.2 135.576Z" fill="#D8552A"/>
<path d="M95.232 75H96.768C98.304 75 99.808 75.192 101.28 75.576C102.752 75.896 104.064 76.504 105.216 77.4C106.368 78.232 107.296 79.384 108 80.856C108.704 82.328 109.056 84.216 109.056 86.52V118.776C109.056 121.016 108.736 122.936 108.096 124.536C107.456 126.072 106.592 127.352 105.504 128.376C104.48 129.4 103.264 130.168 101.856 130.68C100.512 131.128 99.072 131.352 97.536 131.352H96.384L95.232 131.16V75ZM83.04 117.816C81.568 117.816 80.16 117.56 78.816 117.048C77.536 116.472 76.384 115.672 75.36 114.648C74.336 113.56 73.504 112.248 72.864 110.712C72.288 109.112 72 107.256 72 105.144V75H74.016C77.92 75 80.864 76.056 82.848 78.168C84.832 80.216 85.824 83.576 85.824 88.248V101.88C85.824 102.648 85.856 103.384 85.92 104.088C86.048 104.792 86.24 105.432 86.496 106.008C86.816 106.52 87.232 106.968 87.744 107.352C88.32 107.672 89.088 107.832 90.048 107.832C90.56 107.832 91.072 107.768 91.584 107.64C92.16 107.448 92.672 107.16 93.12 106.776C93.12 108.248 92.928 109.656 92.544 111C92.16 112.28 91.552 113.432 90.72 114.456C89.888 115.48 88.832 116.312 87.552 116.952C86.272 117.528 84.768 117.816 83.04 117.816ZM79.2 135.576C79.2 133.592 79.552 131.992 80.256 130.776C80.96 129.496 81.824 128.504 82.848 127.8C83.936 127.096 85.056 126.648 86.208 126.456C87.424 126.2 88.48 126.072 89.376 126.072C89.824 126.072 90.272 126.104 90.72 126.168C91.232 126.168 91.552 126.2 91.68 126.264V130.68C91.68 132.024 92 133.016 92.64 133.656C93.28 134.296 94.08 134.616 95.04 134.616C96.192 134.616 97.216 134.232 98.112 133.464C98.304 133.976 98.4 134.456 98.4 134.904C98.464 135.288 98.496 135.736 98.496 136.248C98.496 137.016 98.304 137.912 97.92 138.936C97.6 139.896 97.056 140.824 96.288 141.72C95.584 142.552 94.624 143.288 93.408 143.928C92.256 144.504 90.848 144.792 89.184 144.792C87.456 144.792 85.952 144.504 84.672 143.928C83.456 143.352 82.432 142.648 81.6 141.816C80.832 140.92 80.224 139.928 79.776 138.84C79.392 137.752 79.2 136.664 79.2 135.576Z" stroke="#D8552A"/>
<path d="M122.526 107.24C122.254 107.24 122.038 107.16 121.878 107C121.718 106.824 121.638 106.584 121.638 106.28V93.08C121.638 92.184 121.902 91.48 122.43 90.968C122.974 90.456 123.726 90.2 124.686 90.2H132.126C132.75 90.2 133.062 90.456 133.062 90.968C133.062 91.192 132.982 91.368 132.822 91.496C132.662 91.624 132.43 91.688 132.126 91.688H124.71C124.326 91.688 124.014 91.816 123.774 92.072C123.55 92.328 123.438 92.664 123.438 93.08V97.904H130.302C130.926 97.904 131.238 98.16 131.238 98.672C131.238 98.912 131.15 99.096 130.974 99.224C130.814 99.352 130.59 99.416 130.302 99.416H123.438V106.28C123.438 106.584 123.358 106.824 123.198 107C123.038 107.16 122.814 107.24 122.526 107.24ZM145.78 107.24C144.164 107.24 142.708 106.888 141.412 106.184C140.116 105.464 139.092 104.448 138.34 103.136C137.604 101.824 137.236 100.312 137.236 98.6C137.236 96.872 137.604 95.36 138.34 94.064C139.092 92.752 140.116 91.744 141.412 91.04C142.708 90.32 144.164 89.96 145.78 89.96C147.396 89.96 148.852 90.32 150.148 91.04C151.444 91.744 152.46 92.752 153.196 94.064C153.948 95.36 154.324 96.872 154.324 98.6C154.324 100.312 153.948 101.824 153.196 103.136C152.46 104.448 151.444 105.464 150.148 106.184C148.852 106.888 147.396 107.24 145.78 107.24ZM145.78 105.704C147.076 105.704 148.228 105.424 149.236 104.864C150.26 104.304 151.06 103.496 151.636 102.44C152.228 101.368 152.524 100.088 152.524 98.6C152.524 97.096 152.22 95.808 151.612 94.736C151.02 93.664 150.204 92.856 149.164 92.312C148.14 91.768 146.996 91.496 145.732 91.496C144.452 91.496 143.3 91.776 142.276 92.336C141.268 92.896 140.476 93.712 139.9 94.784C139.324 95.856 139.036 97.128 139.036 98.6C139.036 100.088 139.324 101.368 139.9 102.44C140.492 103.496 141.292 104.304 142.3 104.864C143.324 105.424 144.484 105.704 145.78 105.704ZM167.483 107.24C166.059 107.24 164.819 106.96 163.763 106.4C162.723 105.84 161.923 105.032 161.363 103.976C160.803 102.92 160.523 101.664 160.523 100.208V90.92C160.523 90.616 160.603 90.384 160.763 90.224C160.923 90.048 161.139 89.96 161.411 89.96C161.699 89.96 161.923 90.048 162.083 90.224C162.243 90.384 162.323 90.616 162.323 90.92V100.28C162.323 102.008 162.779 103.344 163.691 104.288C164.603 105.232 165.883 105.704 167.531 105.704C169.195 105.704 170.491 105.232 171.419 104.288C172.363 103.328 172.835 101.992 172.835 100.28V90.92C172.835 90.616 172.915 90.384 173.075 90.224C173.251 90.048 173.475 89.96 173.747 89.96C174.035 89.96 174.251 90.048 174.395 90.224C174.555 90.384 174.635 90.616 174.635 90.92V100.208C174.635 101.616 174.347 102.856 173.771 103.928C173.195 104.984 172.363 105.8 171.275 106.376C170.203 106.952 168.939 107.24 167.483 107.24ZM182.227 107.24C181.955 107.24 181.739 107.16 181.579 107C181.419 106.824 181.339 106.584 181.339 106.28V96.488C181.339 95.16 181.619 94.008 182.179 93.032C182.755 92.04 183.571 91.28 184.627 90.752C185.683 90.224 186.923 89.96 188.347 89.96C189.771 89.96 191.003 90.224 192.043 90.752C193.099 91.28 193.907 92.04 194.467 93.032C195.043 94.008 195.331 95.16 195.331 96.488V106.28C195.331 106.584 195.251 106.824 195.091 107C194.947 107.16 194.731 107.24 194.443 107.24C194.171 107.24 193.947 107.16 193.771 107C193.611 106.824 193.531 106.584 193.531 106.28V96.416C193.531 94.864 193.075 93.656 192.163 92.792C191.251 91.928 189.979 91.496 188.347 91.496C186.747 91.496 185.475 91.936 184.531 92.816C183.603 93.696 183.139 94.896 183.139 96.416V106.28C183.139 106.584 183.059 106.824 182.899 107C182.739 107.16 182.515 107.24 182.227 107.24ZM205.253 107C204.277 107 203.517 106.744 202.973 106.232C202.429 105.704 202.157 104.984 202.157 104.072V93.08C202.157 92.184 202.421 91.48 202.949 90.968C203.493 90.456 204.245 90.2 205.205 90.2H208.565C210.229 90.2 211.677 90.552 212.909 91.256C214.157 91.944 215.117 92.92 215.789 94.184C216.461 95.448 216.797 96.928 216.797 98.624C216.797 100.32 216.461 101.8 215.789 103.064C215.117 104.312 214.157 105.28 212.909 105.968C211.677 106.656 210.229 107 208.565 107H205.253ZM208.325 105.512C210.437 105.512 212.069 104.912 213.221 103.712C214.389 102.512 214.973 100.816 214.973 98.624C214.973 96.432 214.389 94.728 213.221 93.512C212.053 92.296 210.421 91.688 208.325 91.688H205.229C204.845 91.688 204.533 91.816 204.293 92.072C204.069 92.328 203.957 92.664 203.957 93.08V104.12C203.957 104.536 204.069 104.872 204.293 105.128C204.533 105.384 204.845 105.512 205.229 105.512H208.325ZM223.087 93.2C223.087 92.288 223.351 91.56 223.879 91.016C224.423 90.472 225.207 90.2 226.231 90.2H230.719C235.071 90.2 237.247 92.008 237.247 95.624C237.247 97.368 236.719 98.688 235.663 99.584C234.607 100.48 233.015 100.928 230.887 100.928L235.543 105.752C235.687 105.896 235.759 106.08 235.759 106.304C235.759 106.592 235.639 106.824 235.399 107C235.207 107.144 235.007 107.216 234.799 107.216C234.479 107.216 234.175 107.056 233.887 106.736L228.367 100.928H225.127V106.208C225.127 106.528 225.031 106.784 224.839 106.976C224.663 107.152 224.415 107.24 224.095 107.24C223.775 107.24 223.527 107.152 223.351 106.976C223.175 106.784 223.087 106.528 223.087 106.208V93.2ZM230.839 99.272C232.311 99.272 233.399 99 234.103 98.456C234.823 97.896 235.183 96.952 235.183 95.624C235.183 94.28 234.823 93.32 234.103 92.744C233.383 92.152 232.295 91.856 230.839 91.856H226.351C225.983 91.856 225.687 91.976 225.463 92.216C225.239 92.456 225.127 92.784 225.127 93.2V99.272H230.839ZM256.059 89.96C256.331 89.96 256.547 90.048 256.707 90.224C256.867 90.384 256.947 90.616 256.947 90.92V93.92C256.947 95.28 256.691 96.512 256.179 97.616C255.683 98.704 254.971 99.584 254.043 100.256C253.115 100.928 252.051 101.336 250.851 101.48V106.28C250.851 106.584 250.771 106.824 250.611 107C250.451 107.16 250.227 107.24 249.939 107.24C249.667 107.24 249.451 107.16 249.291 107C249.131 106.824 249.051 106.584 249.051 106.28V101.48C247.803 101.352 246.715 100.96 245.787 100.304C244.875 99.648 244.171 98.776 243.675 97.688C243.179 96.6 242.931 95.344 242.931 93.92V90.92C242.931 90.616 243.011 90.384 243.171 90.224C243.331 90.048 243.547 89.96 243.819 89.96C244.107 89.96 244.331 90.048 244.491 90.224C244.651 90.384 244.731 90.616 244.731 90.92V93.992C244.731 95.88 245.187 97.352 246.099 98.408C247.027 99.464 248.307 99.992 249.939 99.992C251.555 99.992 252.827 99.464 253.755 98.408C254.683 97.336 255.147 95.864 255.147 93.992V90.92C255.147 90.616 255.227 90.384 255.387 90.224C255.563 90.048 255.787 89.96 256.059 89.96Z" fill="#1C0D10"/>
<path d="M124.705 131C123.489 131 122.545 130.68 121.873 130.04C121.201 129.4 120.865 128.504 120.865 127.352V117.752C120.865 116.632 121.185 115.76 121.825 115.136C122.481 114.512 123.385 114.2 124.537 114.2H127.897C129.737 114.2 131.329 114.536 132.673 115.208C134.017 115.88 135.041 116.848 135.745 118.112C136.465 119.376 136.825 120.88 136.825 122.624C136.825 124.368 136.465 125.872 135.745 127.136C135.041 128.384 134.017 129.344 132.673 130.016C131.345 130.672 129.753 131 127.897 131H124.705ZM127.657 128.528C129.657 128.528 131.145 128.048 132.121 127.088C133.097 126.112 133.585 124.624 133.585 122.624C133.585 120.624 133.089 119.136 132.097 118.16C131.121 117.168 129.641 116.672 127.657 116.672H125.089C124.769 116.672 124.513 116.776 124.321 116.984C124.145 117.192 124.057 117.48 124.057 117.848V127.352C124.057 127.72 124.145 128.008 124.321 128.216C124.513 128.424 124.769 128.528 125.089 128.528H127.657ZM143.847 131.216C143.367 131.216 142.983 131.088 142.695 130.832C142.407 130.576 142.263 130.224 142.263 129.776V121.376C142.263 119.056 142.927 117.24 144.255 115.928C145.583 114.616 147.431 113.96 149.799 113.96C151.351 113.96 152.695 114.256 153.831 114.848C154.967 115.44 155.831 116.296 156.423 117.416C157.031 118.536 157.335 119.856 157.335 121.376V129.776C157.335 130.224 157.191 130.576 156.903 130.832C156.615 131.088 156.231 131.216 155.751 131.216C155.271 131.216 154.879 131.088 154.575 130.832C154.287 130.56 154.143 130.208 154.143 129.776V125.864H145.455V129.776C145.455 130.208 145.303 130.56 144.999 130.832C144.711 131.088 144.327 131.216 143.847 131.216ZM154.143 123.392V121.304C154.143 119.704 153.775 118.504 153.039 117.704C152.319 116.888 151.239 116.48 149.799 116.48C146.903 116.48 145.455 118.088 145.455 121.304V123.392H154.143ZM171.419 131.24C169.547 131.24 167.931 130.88 166.571 130.16C165.227 129.424 164.203 128.408 163.499 127.112C162.795 125.8 162.443 124.296 162.443 122.6C162.443 120.904 162.795 119.408 163.499 118.112C164.203 116.8 165.227 115.784 166.571 115.064C167.931 114.328 169.547 113.96 171.419 113.96C173.291 113.96 174.899 114.328 176.243 115.064C177.603 115.784 178.635 116.8 179.339 118.112C180.043 119.408 180.395 120.904 180.395 122.6C180.395 124.296 180.043 125.8 179.339 127.112C178.635 128.408 177.603 129.424 176.243 130.16C174.899 130.88 173.291 131.24 171.419 131.24ZM171.419 128.72C173.243 128.72 174.659 128.176 175.667 127.088C176.675 125.984 177.179 124.488 177.179 122.6C177.179 120.696 176.651 119.2 175.595 118.112C174.555 117.024 173.083 116.48 171.179 116.48C169.435 116.48 168.075 117.04 167.099 118.16C166.139 119.264 165.659 120.744 165.659 122.6C165.659 124.488 166.163 125.984 167.171 127.088C168.179 128.176 169.595 128.72 171.419 128.72Z" fill="#1C0D10"/>
</svg>
