<svg width="338" height="227" viewBox="0 0 338 227" fill="none" xmlns="http://www.w3.org/2000/svg">
<g filter="url(#filter0_d_1034_2333)">
<rect x="4" width="330" height="219" rx="5" fill="#FCFEFF"/>
<path d="M100.232 75H101.768C103.304 75 104.808 75.192 106.28 75.576C107.752 75.896 109.064 76.504 110.216 77.4C111.368 78.232 112.296 79.384 113 80.856C113.704 82.328 114.056 84.216 114.056 86.52V118.776C114.056 121.016 113.736 122.936 113.096 124.536C112.456 126.072 111.592 127.352 110.504 128.376C109.48 129.4 108.264 130.168 106.856 130.68C105.512 131.128 104.072 131.352 102.536 131.352C102.152 131.352 101.768 131.352 101.384 131.352C101 131.288 100.616 131.224 100.232 131.16V75ZM88.04 117.816C86.568 117.816 85.16 117.56 83.816 117.048C82.536 116.472 81.384 115.672 80.36 114.648C79.336 113.56 78.504 112.248 77.864 110.712C77.288 109.112 77 107.256 77 105.144V75H79.016C82.92 75 85.864 76.056 87.848 78.168C89.832 80.216 90.824 83.576 90.824 88.248V101.88C90.824 102.648 90.856 103.384 90.92 104.088C91.048 104.792 91.24 105.432 91.496 106.008C91.816 106.52 92.232 106.968 92.744 107.352C93.32 107.672 94.088 107.832 95.048 107.832C95.56 107.832 96.072 107.768 96.584 107.64C97.16 107.448 97.672 107.16 98.12 106.776C98.12 108.248 97.928 109.656 97.544 111C97.16 112.28 96.552 113.432 95.72 114.456C94.888 115.48 93.832 116.312 92.552 116.952C91.272 117.528 89.768 117.816 88.04 117.816ZM84.2 135.576C84.2 133.592 84.552 131.992 85.256 130.776C85.96 129.496 86.824 128.504 87.848 127.8C88.936 127.096 90.056 126.648 91.208 126.456C92.424 126.2 93.48 126.072 94.376 126.072C94.824 126.072 95.272 126.104 95.72 126.168C96.232 126.168 96.552 126.2 96.68 126.264V130.68C96.68 132.024 97 133.016 97.64 133.656C98.28 134.296 99.08 134.616 100.04 134.616C101.192 134.616 102.216 134.232 103.112 133.464C103.304 133.976 103.4 134.456 103.4 134.904C103.464 135.288 103.496 135.736 103.496 136.248C103.496 137.016 103.304 137.912 102.92 138.936C102.6 139.896 102.056 140.824 101.288 141.72C100.584 142.552 99.624 143.288 98.408 143.928C97.256 144.504 95.848 144.792 94.184 144.792C92.456 144.792 90.952 144.504 89.672 143.928C88.456 143.352 87.432 142.648 86.6 141.816C85.832 140.92 85.224 139.928 84.776 138.84C84.392 137.752 84.2 136.664 84.2 135.576Z" fill="url(#paint0_linear_1034_2333)"/>
<path d="M127.526 107.24C127.254 107.24 127.038 107.16 126.878 107C126.718 106.824 126.638 106.584 126.638 106.28V93.08C126.638 92.184 126.902 91.48 127.43 90.968C127.974 90.456 128.726 90.2 129.686 90.2H137.126C137.75 90.2 138.062 90.456 138.062 90.968C138.062 91.192 137.982 91.368 137.822 91.496C137.662 91.624 137.43 91.688 137.126 91.688H129.71C129.326 91.688 129.014 91.816 128.774 92.072C128.55 92.328 128.438 92.664 128.438 93.08V97.904H135.302C135.926 97.904 136.238 98.16 136.238 98.672C136.238 98.912 136.15 99.096 135.974 99.224C135.814 99.352 135.59 99.416 135.302 99.416H128.438V106.28C128.438 106.584 128.358 106.824 128.198 107C128.038 107.16 127.814 107.24 127.526 107.24ZM150.78 107.24C149.164 107.24 147.708 106.888 146.412 106.184C145.116 105.464 144.092 104.448 143.34 103.136C142.604 101.824 142.236 100.312 142.236 98.6C142.236 96.872 142.604 95.36 143.34 94.064C144.092 92.752 145.116 91.744 146.412 91.04C147.708 90.32 149.164 89.96 150.78 89.96C152.396 89.96 153.852 90.32 155.148 91.04C156.444 91.744 157.46 92.752 158.196 94.064C158.948 95.36 159.324 96.872 159.324 98.6C159.324 100.312 158.948 101.824 158.196 103.136C157.46 104.448 156.444 105.464 155.148 106.184C153.852 106.888 152.396 107.24 150.78 107.24ZM150.78 105.704C152.076 105.704 153.228 105.424 154.236 104.864C155.26 104.304 156.06 103.496 156.636 102.44C157.228 101.368 157.524 100.088 157.524 98.6C157.524 97.096 157.22 95.808 156.612 94.736C156.02 93.664 155.204 92.856 154.164 92.312C153.14 91.768 151.996 91.496 150.732 91.496C149.452 91.496 148.3 91.776 147.276 92.336C146.268 92.896 145.476 93.712 144.9 94.784C144.324 95.856 144.036 97.128 144.036 98.6C144.036 100.088 144.324 101.368 144.9 102.44C145.492 103.496 146.292 104.304 147.3 104.864C148.324 105.424 149.484 105.704 150.78 105.704ZM172.483 107.24C171.059 107.24 169.819 106.96 168.763 106.4C167.723 105.84 166.923 105.032 166.363 103.976C165.803 102.92 165.523 101.664 165.523 100.208V90.92C165.523 90.616 165.603 90.384 165.763 90.224C165.923 90.048 166.139 89.96 166.411 89.96C166.699 89.96 166.923 90.048 167.083 90.224C167.243 90.384 167.323 90.616 167.323 90.92V100.28C167.323 102.008 167.779 103.344 168.691 104.288C169.603 105.232 170.883 105.704 172.531 105.704C174.195 105.704 175.491 105.232 176.419 104.288C177.363 103.328 177.835 101.992 177.835 100.28V90.92C177.835 90.616 177.915 90.384 178.075 90.224C178.251 90.048 178.475 89.96 178.747 89.96C179.035 89.96 179.251 90.048 179.395 90.224C179.555 90.384 179.635 90.616 179.635 90.92V100.208C179.635 101.616 179.347 102.856 178.771 103.928C178.195 104.984 177.363 105.8 176.275 106.376C175.203 106.952 173.939 107.24 172.483 107.24ZM187.227 107.24C186.955 107.24 186.739 107.16 186.579 107C186.419 106.824 186.339 106.584 186.339 106.28V96.488C186.339 95.16 186.619 94.008 187.179 93.032C187.755 92.04 188.571 91.28 189.627 90.752C190.683 90.224 191.923 89.96 193.347 89.96C194.771 89.96 196.003 90.224 197.043 90.752C198.099 91.28 198.907 92.04 199.467 93.032C200.043 94.008 200.331 95.16 200.331 96.488V106.28C200.331 106.584 200.251 106.824 200.091 107C199.947 107.16 199.731 107.24 199.443 107.24C199.171 107.24 198.947 107.16 198.771 107C198.611 106.824 198.531 106.584 198.531 106.28V96.416C198.531 94.864 198.075 93.656 197.163 92.792C196.251 91.928 194.979 91.496 193.347 91.496C191.747 91.496 190.475 91.936 189.531 92.816C188.603 93.696 188.139 94.896 188.139 96.416V106.28C188.139 106.584 188.059 106.824 187.899 107C187.739 107.16 187.515 107.24 187.227 107.24ZM210.253 107C209.277 107 208.517 106.744 207.973 106.232C207.429 105.704 207.157 104.984 207.157 104.072V93.08C207.157 92.184 207.421 91.48 207.949 90.968C208.493 90.456 209.245 90.2 210.205 90.2H213.565C215.229 90.2 216.677 90.552 217.909 91.256C219.157 91.944 220.117 92.92 220.789 94.184C221.461 95.448 221.797 96.928 221.797 98.624C221.797 100.32 221.461 101.8 220.789 103.064C220.117 104.312 219.157 105.28 217.909 105.968C216.677 106.656 215.229 107 213.565 107H210.253ZM213.325 105.512C215.437 105.512 217.069 104.912 218.221 103.712C219.389 102.512 219.973 100.816 219.973 98.624C219.973 96.432 219.389 94.728 218.221 93.512C217.053 92.296 215.421 91.688 213.325 91.688H210.229C209.845 91.688 209.533 91.816 209.293 92.072C209.069 92.328 208.957 92.664 208.957 93.08V104.12C208.957 104.536 209.069 104.872 209.293 105.128C209.533 105.384 209.845 105.512 210.229 105.512H213.325ZM228.087 93.2C228.087 92.288 228.351 91.56 228.879 91.016C229.423 90.472 230.207 90.2 231.231 90.2H235.719C240.071 90.2 242.247 92.008 242.247 95.624C242.247 97.368 241.719 98.688 240.663 99.584C239.607 100.48 238.015 100.928 235.887 100.928L240.543 105.752C240.687 105.896 240.759 106.08 240.759 106.304C240.759 106.592 240.639 106.824 240.399 107C240.207 107.144 240.007 107.216 239.799 107.216C239.479 107.216 239.175 107.056 238.887 106.736L233.367 100.928H230.127V106.208C230.127 106.528 230.031 106.784 229.839 106.976C229.663 107.152 229.415 107.24 229.095 107.24C228.775 107.24 228.527 107.152 228.351 106.976C228.175 106.784 228.087 106.528 228.087 106.208V93.2ZM235.839 99.272C237.311 99.272 238.399 99 239.103 98.456C239.823 97.896 240.183 96.952 240.183 95.624C240.183 94.28 239.823 93.32 239.103 92.744C238.383 92.152 237.295 91.856 235.839 91.856H231.351C230.983 91.856 230.687 91.976 230.463 92.216C230.239 92.456 230.127 92.784 230.127 93.2V99.272H235.839ZM261.059 89.96C261.331 89.96 261.547 90.048 261.707 90.224C261.867 90.384 261.947 90.616 261.947 90.92V93.92C261.947 95.28 261.691 96.512 261.179 97.616C260.683 98.704 259.971 99.584 259.043 100.256C258.115 100.928 257.051 101.336 255.851 101.48V106.28C255.851 106.584 255.771 106.824 255.611 107C255.451 107.16 255.227 107.24 254.939 107.24C254.667 107.24 254.451 107.16 254.291 107C254.131 106.824 254.051 106.584 254.051 106.28V101.48C252.803 101.352 251.715 100.96 250.787 100.304C249.875 99.648 249.171 98.776 248.675 97.688C248.179 96.6 247.931 95.344 247.931 93.92V90.92C247.931 90.616 248.011 90.384 248.171 90.224C248.331 90.048 248.547 89.96 248.819 89.96C249.107 89.96 249.331 90.048 249.491 90.224C249.651 90.384 249.731 90.616 249.731 90.92V93.992C249.731 95.88 250.187 97.352 251.099 98.408C252.027 99.464 253.307 99.992 254.939 99.992C256.555 99.992 257.827 99.464 258.755 98.408C259.683 97.336 260.147 95.864 260.147 93.992V90.92C260.147 90.616 260.227 90.384 260.387 90.224C260.563 90.048 260.787 89.96 261.059 89.96Z" fill="#1C0D10"/>
<path d="M129.705 131C128.489 131 127.545 130.68 126.873 130.04C126.201 129.4 125.865 128.504 125.865 127.352V117.752C125.865 116.632 126.185 115.76 126.825 115.136C127.481 114.512 128.385 114.2 129.537 114.2H132.897C134.737 114.2 136.329 114.536 137.673 115.208C139.017 115.88 140.041 116.848 140.745 118.112C141.465 119.376 141.825 120.88 141.825 122.624C141.825 124.368 141.465 125.872 140.745 127.136C140.041 128.384 139.017 129.344 137.673 130.016C136.345 130.672 134.753 131 132.897 131H129.705ZM132.657 128.528C134.657 128.528 136.145 128.048 137.121 127.088C138.097 126.112 138.585 124.624 138.585 122.624C138.585 120.624 138.089 119.136 137.097 118.16C136.121 117.168 134.641 116.672 132.657 116.672H130.089C129.769 116.672 129.513 116.776 129.321 116.984C129.145 117.192 129.057 117.48 129.057 117.848V127.352C129.057 127.72 129.145 128.008 129.321 128.216C129.513 128.424 129.769 128.528 130.089 128.528H132.657ZM148.847 131.216C148.367 131.216 147.983 131.088 147.695 130.832C147.407 130.576 147.263 130.224 147.263 129.776V121.376C147.263 119.056 147.927 117.24 149.255 115.928C150.583 114.616 152.431 113.96 154.799 113.96C156.351 113.96 157.695 114.256 158.831 114.848C159.967 115.44 160.831 116.296 161.423 117.416C162.031 118.536 162.335 119.856 162.335 121.376V129.776C162.335 130.224 162.191 130.576 161.903 130.832C161.615 131.088 161.231 131.216 160.751 131.216C160.271 131.216 159.879 131.088 159.575 130.832C159.287 130.56 159.143 130.208 159.143 129.776V125.864H150.455V129.776C150.455 130.208 150.303 130.56 149.999 130.832C149.711 131.088 149.327 131.216 148.847 131.216ZM159.143 123.392V121.304C159.143 119.704 158.775 118.504 158.039 117.704C157.319 116.888 156.239 116.48 154.799 116.48C151.903 116.48 150.455 118.088 150.455 121.304V123.392H159.143ZM176.419 131.24C174.547 131.24 172.931 130.88 171.571 130.16C170.227 129.424 169.203 128.408 168.499 127.112C167.795 125.8 167.443 124.296 167.443 122.6C167.443 120.904 167.795 119.408 168.499 118.112C169.203 116.8 170.227 115.784 171.571 115.064C172.931 114.328 174.547 113.96 176.419 113.96C178.291 113.96 179.899 114.328 181.243 115.064C182.603 115.784 183.635 116.8 184.339 118.112C185.043 119.408 185.395 120.904 185.395 122.6C185.395 124.296 185.043 125.8 184.339 127.112C183.635 128.408 182.603 129.424 181.243 130.16C179.899 130.88 178.291 131.24 176.419 131.24ZM176.419 128.72C178.243 128.72 179.659 128.176 180.667 127.088C181.675 125.984 182.179 124.488 182.179 122.6C182.179 120.696 181.651 119.2 180.595 118.112C179.555 117.024 178.083 116.48 176.179 116.48C174.435 116.48 173.075 117.04 172.099 118.16C171.139 119.264 170.659 120.744 170.659 122.6C170.659 124.488 171.163 125.984 172.171 127.088C173.179 128.176 174.595 128.72 176.419 128.72Z" fill="#1C0D10"/>
</g>
<defs>
<filter id="filter0_d_1034_2333" x="0" y="0" width="338" height="227" filterUnits="userSpaceOnUse" color-interpolation-filters="sRGB">
<feFlood flood-opacity="0" result="BackgroundImageFix"/>
<feColorMatrix in="SourceAlpha" type="matrix" values="0 0 0 0 0 0 0 0 0 0 0 0 0 0 0 0 0 0 127 0" result="hardAlpha"/>
<feOffset dy="4"/>
<feGaussianBlur stdDeviation="2"/>
<feComposite in2="hardAlpha" operator="out"/>
<feColorMatrix type="matrix" values="0 0 0 0 0 0 0 0 0 0 0 0 0 0 0 0 0 0 0.25 0"/>
<feBlend mode="normal" in2="BackgroundImageFix" result="effect1_dropShadow_1034_2333"/>
<feBlend mode="normal" in="SourceGraphic" in2="effect1_dropShadow_1034_2333" result="shape"/>
</filter>
<linearGradient id="paint0_linear_1034_2333" x1="125" y1="151.5" x2="66.5" y2="75" gradientUnits="userSpaceOnUse">
<stop stop-color="#201E1D"/>
<stop offset="1" stop-color="#586874"/>
</linearGradient>
</defs>
</svg>
